G04 #@! TF.GenerationSoftware,KiCad,Pcbnew,(5.1.9-0-10_14)*
G04 #@! TF.CreationDate,2021-07-16T17:28:01+01:00*
G04 #@! TF.ProjectId,Draytronics-Elise-PCB V2,44726179-7472-46f6-9e69-63732d456c69,rev?*
G04 #@! TF.SameCoordinates,Original*
G04 #@! TF.FileFunction,Soldermask,Top*
G04 #@! TF.FilePolarity,Negative*
%FSLAX46Y46*%
G04 Gerber Fmt 4.6, Leading zero omitted, Abs format (unit mm)*
G04 Created by KiCad (PCBNEW (5.1.9-0-10_14)) date 2021-07-16 17:28:01*
%MOMM*%
%LPD*%
G01*
G04 APERTURE LIST*
%ADD10C,3.987800*%
%ADD11C,1.750000*%
%ADD12C,3.048000*%
%ADD13C,7.000240*%
%ADD14C,1.000000*%
%ADD15C,5.000000*%
%ADD16C,0.650000*%
%ADD17O,1.000000X2.100000*%
%ADD18O,1.000000X1.600000*%
G04 APERTURE END LIST*
D10*
G04 #@! TO.C,MX14*
X291033200Y-34848800D03*
D11*
X285953200Y-34848800D03*
X296113200Y-34848800D03*
D12*
X279126950Y-27863800D03*
X302939450Y-27863800D03*
D10*
X279126950Y-43103800D03*
X302939450Y-43103800D03*
G04 #@! TD*
G04 #@! TO.C,MX73*
X319587880Y-111053880D03*
D11*
X314507880Y-111053880D03*
X324667880Y-111053880D03*
G04 #@! TD*
G04 #@! TO.C,MX1*
X38933120Y-34864040D03*
X28773120Y-34864040D03*
D10*
X33853120Y-34864040D03*
G04 #@! TD*
G04 #@! TO.C,MX64*
X36245800Y-111048800D03*
D11*
X31165800Y-111048800D03*
X41325800Y-111048800D03*
G04 #@! TD*
D10*
G04 #@! TO.C,MX74*
X38608000Y-111048800D03*
D11*
X33528000Y-111048800D03*
X43688000Y-111048800D03*
G04 #@! TD*
D13*
G04 #@! TO.C,REF\u002A\u002A*
X86243160Y-92059760D03*
D14*
X86243160Y-89759760D03*
X87443160Y-89759760D03*
X85043160Y-89759760D03*
X86243160Y-94359760D03*
X85043160Y-94359760D03*
X87443160Y-94359760D03*
G04 #@! TD*
G04 #@! TO.C,REF\u002A\u002A*
X212975040Y-113247200D03*
X210575040Y-113247200D03*
X211775040Y-113247200D03*
X210575040Y-108647200D03*
X212975040Y-108647200D03*
X211775040Y-108647200D03*
D13*
X211775040Y-110947200D03*
G04 #@! TD*
G04 #@! TO.C,REF\u002A\u002A*
X310063080Y-101523520D03*
D14*
X310063080Y-99223520D03*
X311263080Y-99223520D03*
X308863080Y-99223520D03*
X310063080Y-103823520D03*
X308863080Y-103823520D03*
X311263080Y-103823520D03*
G04 #@! TD*
G04 #@! TO.C,REF\u002A\u002A*
X286716320Y-56178480D03*
X284316320Y-56178480D03*
X285516320Y-56178480D03*
X284316320Y-51578480D03*
X286716320Y-51578480D03*
X285516320Y-51578480D03*
D13*
X285516320Y-53878480D03*
G04 #@! TD*
G04 #@! TO.C,REF\u002A\u002A*
X272039080Y-34904680D03*
D14*
X272039080Y-32604680D03*
X273239080Y-32604680D03*
X270839080Y-32604680D03*
X272039080Y-37204680D03*
X270839080Y-37204680D03*
X273239080Y-37204680D03*
G04 #@! TD*
G04 #@! TO.C,REF\u002A\u002A*
X187473440Y-56214040D03*
X185073440Y-56214040D03*
X186273440Y-56214040D03*
X185073440Y-51614040D03*
X187473440Y-51614040D03*
X186273440Y-51614040D03*
D13*
X186273440Y-53914040D03*
G04 #@! TD*
G04 #@! TO.C,REF\u002A\u002A*
X152948640Y-72964040D03*
D14*
X152948640Y-70664040D03*
X154148640Y-70664040D03*
X151748640Y-70664040D03*
X152948640Y-75264040D03*
X151748640Y-75264040D03*
X154148640Y-75264040D03*
G04 #@! TD*
G04 #@! TO.C,REF\u002A\u002A*
X50516640Y-113338640D03*
X48116640Y-113338640D03*
X49316640Y-113338640D03*
X48116640Y-108738640D03*
X50516640Y-108738640D03*
X49316640Y-108738640D03*
D13*
X49316640Y-111038640D03*
G04 #@! TD*
D15*
G04 #@! TO.C,REF\u002A\u002A*
X48818800Y-53924200D03*
G04 #@! TD*
G04 #@! TO.C,REF\u002A\u002A*
X62331600Y-34950400D03*
G04 #@! TD*
D16*
G04 #@! TO.C,USB1*
X45434800Y-31100600D03*
X39654800Y-31100600D03*
D17*
X38224800Y-31630600D03*
X46864800Y-31630600D03*
D18*
X38224800Y-27450600D03*
X46864800Y-27450600D03*
G04 #@! TD*
D10*
G04 #@! TO.C,MX78*
X257683000Y-111048800D03*
D11*
X252603000Y-111048800D03*
X262763000Y-111048800D03*
G04 #@! TD*
D10*
G04 #@! TO.C,MX77*
X229108000Y-111048800D03*
D11*
X224028000Y-111048800D03*
X234188000Y-111048800D03*
G04 #@! TD*
D10*
G04 #@! TO.C,MX76*
X148132800Y-111048800D03*
D11*
X143052800Y-111048800D03*
X153212800Y-111048800D03*
D12*
X90982800Y-118033800D03*
X205282800Y-118033800D03*
D10*
X90982800Y-102793800D03*
X205282800Y-102793800D03*
G04 #@! TD*
G04 #@! TO.C,MX75*
X67183000Y-111048800D03*
D11*
X62103000Y-111048800D03*
X72263000Y-111048800D03*
G04 #@! TD*
D10*
G04 #@! TO.C,MX67*
X155295600Y-111048800D03*
D11*
X150215600Y-111048800D03*
X160375600Y-111048800D03*
D12*
X105295700Y-118033800D03*
X205295500Y-118033800D03*
D10*
X105295700Y-102793800D03*
X205295500Y-102793800D03*
G04 #@! TD*
G04 #@! TO.C,MX66*
X83870800Y-111048800D03*
D11*
X78790800Y-111048800D03*
X88950800Y-111048800D03*
G04 #@! TD*
D10*
G04 #@! TO.C,MX65*
X60045600Y-111048800D03*
D11*
X54965600Y-111048800D03*
X65125600Y-111048800D03*
G04 #@! TD*
D10*
G04 #@! TO.C,MX61*
X274370800Y-91998800D03*
D11*
X269290800Y-91998800D03*
X279450800Y-91998800D03*
G04 #@! TD*
D10*
G04 #@! TO.C,MX49*
X45745400Y-91998800D03*
D11*
X40665400Y-91998800D03*
X50825400Y-91998800D03*
D12*
X33839150Y-85013800D03*
X57651650Y-85013800D03*
D10*
X33839150Y-100253800D03*
X57651650Y-100253800D03*
G04 #@! TD*
G04 #@! TO.C,MX48*
X36220400Y-91998800D03*
D11*
X31140400Y-91998800D03*
X41300400Y-91998800D03*
G04 #@! TD*
D10*
G04 #@! TO.C,MX45*
X288696400Y-72948800D03*
D11*
X283616400Y-72948800D03*
X293776400Y-72948800D03*
D12*
X276790150Y-65963800D03*
X300602650Y-65963800D03*
D10*
X276790150Y-81203800D03*
X300602650Y-81203800D03*
G04 #@! TD*
G04 #@! TO.C,MX31*
X289941000Y-51485800D03*
X289941000Y-75361800D03*
D12*
X305181000Y-51485800D03*
X305181000Y-75361800D03*
D11*
X298196000Y-68503800D03*
X298196000Y-58343800D03*
D10*
X298196000Y-63423800D03*
G04 #@! TD*
G04 #@! TO.C,MX72*
X300532800Y-111048800D03*
D11*
X295452800Y-111048800D03*
X305612800Y-111048800D03*
G04 #@! TD*
D10*
G04 #@! TO.C,MX71*
X281482800Y-111048800D03*
D11*
X276402800Y-111048800D03*
X286562800Y-111048800D03*
G04 #@! TD*
D10*
G04 #@! TO.C,MX70*
X262432800Y-111048800D03*
D11*
X257352800Y-111048800D03*
X267512800Y-111048800D03*
G04 #@! TD*
D10*
G04 #@! TO.C,MX69*
X243382800Y-111048800D03*
D11*
X238302800Y-111048800D03*
X248462800Y-111048800D03*
G04 #@! TD*
D10*
G04 #@! TO.C,MX68*
X224332800Y-111048800D03*
D11*
X219252800Y-111048800D03*
X229412800Y-111048800D03*
G04 #@! TD*
D10*
G04 #@! TO.C,MX63*
X319608200Y-91998800D03*
D11*
X314528200Y-91998800D03*
X324688200Y-91998800D03*
G04 #@! TD*
D10*
G04 #@! TO.C,MX62*
X300558200Y-91998800D03*
D11*
X295478200Y-91998800D03*
X305638200Y-91998800D03*
G04 #@! TD*
D10*
G04 #@! TO.C,MX60*
X248183400Y-91998800D03*
D11*
X243103400Y-91998800D03*
X253263400Y-91998800D03*
G04 #@! TD*
D10*
G04 #@! TO.C,MX59*
X229133400Y-91998800D03*
D11*
X224053400Y-91998800D03*
X234213400Y-91998800D03*
G04 #@! TD*
D10*
G04 #@! TO.C,MX58*
X210083400Y-91998800D03*
D11*
X205003400Y-91998800D03*
X215163400Y-91998800D03*
G04 #@! TD*
D10*
G04 #@! TO.C,MX57*
X191033400Y-91998800D03*
D11*
X185953400Y-91998800D03*
X196113400Y-91998800D03*
G04 #@! TD*
D10*
G04 #@! TO.C,MX56*
X171983400Y-91998800D03*
D11*
X166903400Y-91998800D03*
X177063400Y-91998800D03*
G04 #@! TD*
D10*
G04 #@! TO.C,MX55*
X152933400Y-91998800D03*
D11*
X147853400Y-91998800D03*
X158013400Y-91998800D03*
G04 #@! TD*
D10*
G04 #@! TO.C,MX54*
X133883400Y-91998800D03*
D11*
X128803400Y-91998800D03*
X138963400Y-91998800D03*
G04 #@! TD*
D10*
G04 #@! TO.C,MX53*
X114833400Y-91998800D03*
D11*
X109753400Y-91998800D03*
X119913400Y-91998800D03*
G04 #@! TD*
D10*
G04 #@! TO.C,MX52*
X95783400Y-91998800D03*
D11*
X90703400Y-91998800D03*
X100863400Y-91998800D03*
G04 #@! TD*
D10*
G04 #@! TO.C,MX51*
X76733400Y-91998800D03*
D11*
X71653400Y-91998800D03*
X81813400Y-91998800D03*
G04 #@! TD*
D10*
G04 #@! TO.C,MX50*
X57658000Y-91998800D03*
D11*
X52578000Y-91998800D03*
X62738000Y-91998800D03*
G04 #@! TD*
D10*
G04 #@! TO.C,MX47*
X319608200Y-72948800D03*
D11*
X314528200Y-72948800D03*
X324688200Y-72948800D03*
G04 #@! TD*
D10*
G04 #@! TO.C,MX46*
X276783800Y-72948800D03*
D11*
X271703800Y-72948800D03*
X281863800Y-72948800D03*
G04 #@! TD*
D10*
G04 #@! TO.C,MX44*
X257733800Y-72948800D03*
D11*
X252653800Y-72948800D03*
X262813800Y-72948800D03*
G04 #@! TD*
D10*
G04 #@! TO.C,MX43*
X238683800Y-72948800D03*
D11*
X233603800Y-72948800D03*
X243763800Y-72948800D03*
G04 #@! TD*
D10*
G04 #@! TO.C,MX42*
X219633800Y-72948800D03*
D11*
X214553800Y-72948800D03*
X224713800Y-72948800D03*
G04 #@! TD*
D10*
G04 #@! TO.C,MX41*
X200583800Y-72948800D03*
D11*
X195503800Y-72948800D03*
X205663800Y-72948800D03*
G04 #@! TD*
D10*
G04 #@! TO.C,MX40*
X181533800Y-72948800D03*
D11*
X176453800Y-72948800D03*
X186613800Y-72948800D03*
G04 #@! TD*
D10*
G04 #@! TO.C,MX39*
X162483800Y-72948800D03*
D11*
X157403800Y-72948800D03*
X167563800Y-72948800D03*
G04 #@! TD*
D10*
G04 #@! TO.C,MX38*
X143433800Y-72948800D03*
D11*
X138353800Y-72948800D03*
X148513800Y-72948800D03*
G04 #@! TD*
D10*
G04 #@! TO.C,MX37*
X124358400Y-72948800D03*
D11*
X119278400Y-72948800D03*
X129438400Y-72948800D03*
G04 #@! TD*
D10*
G04 #@! TO.C,MX36*
X105308400Y-72948800D03*
D11*
X100228400Y-72948800D03*
X110388400Y-72948800D03*
G04 #@! TD*
D10*
G04 #@! TO.C,MX35*
X86258400Y-72948800D03*
D11*
X81178400Y-72948800D03*
X91338400Y-72948800D03*
G04 #@! TD*
D10*
G04 #@! TO.C,MX34*
X67208400Y-72948800D03*
D11*
X62128400Y-72948800D03*
X72288400Y-72948800D03*
G04 #@! TD*
D10*
G04 #@! TO.C,MX33*
X41021000Y-72948800D03*
D11*
X35941000Y-72948800D03*
X46101000Y-72948800D03*
G04 #@! TD*
D10*
G04 #@! TO.C,MX32*
X36271200Y-72923400D03*
D11*
X31191200Y-72923400D03*
X41351200Y-72923400D03*
G04 #@! TD*
D10*
G04 #@! TO.C,MX30*
X319608200Y-53898800D03*
D11*
X314528200Y-53898800D03*
X324688200Y-53898800D03*
G04 #@! TD*
D10*
G04 #@! TO.C,MX29*
X295783000Y-53898800D03*
D11*
X290703000Y-53898800D03*
X300863000Y-53898800D03*
G04 #@! TD*
D10*
G04 #@! TO.C,MX28*
X272008600Y-53898800D03*
D11*
X266928600Y-53898800D03*
X277088600Y-53898800D03*
G04 #@! TD*
D10*
G04 #@! TO.C,MX27*
X252984000Y-53898800D03*
D11*
X247904000Y-53898800D03*
X258064000Y-53898800D03*
G04 #@! TD*
D10*
G04 #@! TO.C,MX26*
X233908600Y-53898800D03*
D11*
X228828600Y-53898800D03*
X238988600Y-53898800D03*
G04 #@! TD*
D10*
G04 #@! TO.C,MX25*
X214833200Y-53898800D03*
D11*
X209753200Y-53898800D03*
X219913200Y-53898800D03*
G04 #@! TD*
D10*
G04 #@! TO.C,MX24*
X195783200Y-53898800D03*
D11*
X190703200Y-53898800D03*
X200863200Y-53898800D03*
G04 #@! TD*
D10*
G04 #@! TO.C,MX23*
X176733200Y-53898800D03*
D11*
X171653200Y-53898800D03*
X181813200Y-53898800D03*
G04 #@! TD*
D10*
G04 #@! TO.C,MX22*
X157683200Y-53898800D03*
D11*
X152603200Y-53898800D03*
X162763200Y-53898800D03*
G04 #@! TD*
D10*
G04 #@! TO.C,MX21*
X138633200Y-53898800D03*
D11*
X133553200Y-53898800D03*
X143713200Y-53898800D03*
G04 #@! TD*
D10*
G04 #@! TO.C,MX20*
X119583200Y-53898800D03*
D11*
X114503200Y-53898800D03*
X124663200Y-53898800D03*
G04 #@! TD*
D10*
G04 #@! TO.C,MX19*
X100533200Y-53898800D03*
D11*
X95453200Y-53898800D03*
X105613200Y-53898800D03*
G04 #@! TD*
D10*
G04 #@! TO.C,MX18*
X81483200Y-53898800D03*
D11*
X76403200Y-53898800D03*
X86563200Y-53898800D03*
G04 #@! TD*
D10*
G04 #@! TO.C,MX17*
X62458600Y-53898800D03*
D11*
X57378600Y-53898800D03*
X67538600Y-53898800D03*
G04 #@! TD*
D10*
G04 #@! TO.C,MX16*
X38633400Y-53898800D03*
D11*
X33553400Y-53898800D03*
X43713400Y-53898800D03*
G04 #@! TD*
D10*
G04 #@! TO.C,MX15*
X319608200Y-34848800D03*
D11*
X314528200Y-34848800D03*
X324688200Y-34848800D03*
G04 #@! TD*
D10*
G04 #@! TO.C,MX13*
X262458200Y-34848800D03*
D11*
X257378200Y-34848800D03*
X267538200Y-34848800D03*
G04 #@! TD*
D10*
G04 #@! TO.C,MX12*
X243408200Y-34848800D03*
D11*
X238328200Y-34848800D03*
X248488200Y-34848800D03*
G04 #@! TD*
D10*
G04 #@! TO.C,MX11*
X224358200Y-34848800D03*
D11*
X219278200Y-34848800D03*
X229438200Y-34848800D03*
G04 #@! TD*
D10*
G04 #@! TO.C,MX10*
X205308200Y-34848800D03*
D11*
X200228200Y-34848800D03*
X210388200Y-34848800D03*
G04 #@! TD*
D10*
G04 #@! TO.C,MX9*
X186258200Y-34848800D03*
D11*
X181178200Y-34848800D03*
X191338200Y-34848800D03*
G04 #@! TD*
D10*
G04 #@! TO.C,MX8*
X167208200Y-34848800D03*
D11*
X162128200Y-34848800D03*
X172288200Y-34848800D03*
G04 #@! TD*
D10*
G04 #@! TO.C,MX7*
X148158200Y-34848800D03*
D11*
X143078200Y-34848800D03*
X153238200Y-34848800D03*
G04 #@! TD*
D10*
G04 #@! TO.C,MX6*
X129108200Y-34848800D03*
D11*
X124028200Y-34848800D03*
X134188200Y-34848800D03*
G04 #@! TD*
D10*
G04 #@! TO.C,MX5*
X110058200Y-34848800D03*
D11*
X104978200Y-34848800D03*
X115138200Y-34848800D03*
G04 #@! TD*
D10*
G04 #@! TO.C,MX4*
X91008200Y-34848800D03*
D11*
X85928200Y-34848800D03*
X96088200Y-34848800D03*
G04 #@! TD*
D10*
G04 #@! TO.C,MX3*
X71958200Y-34848800D03*
D11*
X66878200Y-34848800D03*
X77038200Y-34848800D03*
G04 #@! TD*
D10*
G04 #@! TO.C,MX2*
X52908200Y-34848800D03*
D11*
X47828200Y-34848800D03*
X57988200Y-34848800D03*
G04 #@! TD*
M02*
