M48
; DRILL file {KiCad (5.1.9-0-10_14)} date Friday, July 16, 2021 at 05:28:08 PM
; FORMAT={-:-/ absolute / inch / decimal}
; #@! TF.CreationDate,2021-07-16T17:28:08+01:00
; #@! TF.GenerationSoftware,Kicad,Pcbnew,(5.1.9-0-10_14)
; #@! TF.FileFunction,NonPlated,1,2,NPTH
FMAT,2
INCH
T1C0.0256
T2C0.0689
T3C0.1200
T4C0.1570
%
G90
G05
T1
X1.5612Y-1.2244
X1.7888Y-1.2244
T2
X1.1328Y-1.3726
X1.226Y-3.622
X1.227Y-4.372
X1.228Y-2.871
X1.32Y-4.372
X1.321Y-2.122
X1.415Y-2.872
X1.5328Y-1.3726
X1.601Y-3.622
X1.626Y-3.622
X1.627Y-4.372
X1.628Y-2.871
X1.72Y-4.372
X1.721Y-2.122
X1.815Y-2.872
X1.883Y-1.372
X2.001Y-3.622
X2.07Y-3.622
X2.164Y-4.372
X2.259Y-2.122
X2.283Y-1.372
X2.445Y-4.372
X2.446Y-2.872
X2.47Y-3.622
X2.564Y-4.372
X2.633Y-1.372
X2.659Y-2.122
X2.821Y-3.622
X2.845Y-4.372
X2.846Y-2.872
X3.008Y-2.122
X3.033Y-1.372
X3.102Y-4.372
X3.196Y-2.872
X3.221Y-3.622
X3.383Y-1.372
X3.408Y-2.122
X3.502Y-4.372
X3.571Y-3.622
X3.596Y-2.872
X3.758Y-2.122
X3.783Y-1.372
X3.946Y-2.872
X3.971Y-3.622
X4.133Y-1.372
X4.158Y-2.122
X4.321Y-3.622
X4.346Y-2.872
X4.508Y-2.122
X4.533Y-1.372
X4.696Y-2.872
X4.721Y-3.622
X4.883Y-1.372
X4.908Y-2.122
X5.071Y-3.622
X5.096Y-2.872
X5.258Y-2.122
X5.283Y-1.372
X5.447Y-2.872
X5.471Y-3.622
X5.632Y-4.372
X5.633Y-1.372
X5.658Y-2.122
X5.821Y-3.622
X5.847Y-2.872
X5.914Y-4.372
X6.008Y-2.122
X6.032Y-4.372
X6.033Y-1.372
X6.197Y-2.872
X6.221Y-3.622
X6.314Y-4.372
X6.383Y-1.372
X6.408Y-2.122
X6.571Y-3.622
X6.597Y-2.872
X6.758Y-2.122
X6.783Y-1.372
X6.947Y-2.872
X6.971Y-3.622
X7.133Y-1.372
X7.158Y-2.122
X7.321Y-3.622
X7.347Y-2.872
X7.508Y-2.122
X7.533Y-1.372
X7.697Y-2.872
X7.721Y-3.622
X7.883Y-1.372
X7.908Y-2.122
X8.071Y-3.622
X8.097Y-2.872
X8.258Y-2.122
X8.283Y-1.372
X8.447Y-2.872
X8.471Y-3.622
X8.632Y-4.372
X8.633Y-1.372
X8.658Y-2.122
X8.82Y-4.372
X8.821Y-3.622
X8.847Y-2.872
X9.009Y-2.122
X9.032Y-4.372
X9.033Y-1.372
X9.197Y-2.872
X9.22Y-4.372
X9.221Y-3.622
X9.382Y-4.372
X9.383Y-1.372
X9.409Y-2.122
X9.571Y-3.622
X9.597Y-2.872
X9.76Y-2.122
X9.782Y-4.372
X9.783Y-1.372
X9.945Y-4.372
X9.947Y-2.872
X9.971Y-3.622
X10.132Y-4.372
X10.133Y-1.372
X10.16Y-2.122
X10.345Y-4.372
X10.347Y-2.872
X10.509Y-2.122
X10.532Y-4.372
X10.533Y-1.372
X10.602Y-3.622
X10.697Y-2.872
X10.882Y-4.372
X10.909Y-2.122
X11.002Y-3.622
X11.097Y-2.872
X11.166Y-2.872
X11.258Y-1.372
X11.282Y-4.372
X11.445Y-2.122
X11.566Y-2.872
X11.632Y-4.372
X11.633Y-3.622
X11.658Y-1.372
X11.74Y-2.297
X11.74Y-2.697
X11.845Y-2.122
X12.032Y-4.372
X12.033Y-3.622
X12.3822Y-4.3722
X12.383Y-1.372
X12.383Y-2.122
X12.383Y-2.872
X12.383Y-3.622
X12.7822Y-4.3722
X12.783Y-1.372
X12.783Y-2.122
X12.783Y-2.872
X12.783Y-3.622
T3
X1.3322Y-3.347
X2.2698Y-3.347
X3.582Y-4.647
X4.1455Y-4.647
X8.082Y-4.647
X8.0825Y-4.647
X10.8972Y-2.597
X10.9893Y-1.097
X11.8347Y-2.597
X11.9268Y-1.097
X12.015Y-2.027
X12.015Y-2.967
T4
X1.3322Y-3.947
X1.3328Y-1.3726
X1.426Y-3.622
X1.427Y-4.372
X1.428Y-2.871
X1.52Y-4.372
X1.521Y-2.122
X1.615Y-2.872
X1.801Y-3.622
X2.083Y-1.372
X2.2698Y-3.947
X2.27Y-3.622
X2.364Y-4.372
X2.459Y-2.122
X2.645Y-4.372
X2.646Y-2.872
X2.833Y-1.372
X3.021Y-3.622
X3.208Y-2.122
X3.302Y-4.372
X3.396Y-2.872
X3.582Y-4.047
X3.583Y-1.372
X3.771Y-3.622
X3.958Y-2.122
X4.1455Y-4.047
X4.146Y-2.872
X4.333Y-1.372
X4.521Y-3.622
X4.708Y-2.122
X4.896Y-2.872
X5.083Y-1.372
X5.271Y-3.622
X5.458Y-2.122
X5.647Y-2.872
X5.832Y-4.372
X5.833Y-1.372
X6.021Y-3.622
X6.114Y-4.372
X6.208Y-2.122
X6.397Y-2.872
X6.583Y-1.372
X6.771Y-3.622
X6.958Y-2.122
X7.147Y-2.872
X7.333Y-1.372
X7.521Y-3.622
X7.708Y-2.122
X7.897Y-2.872
X8.082Y-4.047
X8.0825Y-4.047
X8.083Y-1.372
X8.271Y-3.622
X8.458Y-2.122
X8.647Y-2.872
X8.832Y-4.372
X8.833Y-1.372
X9.02Y-4.372
X9.021Y-3.622
X9.209Y-2.122
X9.397Y-2.872
X9.582Y-4.372
X9.583Y-1.372
X9.771Y-3.622
X9.96Y-2.122
X10.145Y-4.372
X10.147Y-2.872
X10.332Y-4.372
X10.333Y-1.372
X10.709Y-2.122
X10.802Y-3.622
X10.897Y-2.872
X10.8972Y-3.197
X10.9893Y-1.697
X11.082Y-4.372
X11.366Y-2.872
X11.415Y-2.027
X11.415Y-2.967
X11.458Y-1.372
X11.645Y-2.122
X11.74Y-2.497
X11.832Y-4.372
X11.833Y-3.622
X11.8347Y-3.197
X11.9268Y-1.697
X12.5822Y-4.3722
X12.583Y-1.372
X12.583Y-2.122
X12.583Y-2.872
X12.583Y-3.622
T0
M30
