G04 #@! TF.GenerationSoftware,KiCad,Pcbnew,(5.1.9-0-10_14)*
G04 #@! TF.CreationDate,2021-07-16T17:28:01+01:00*
G04 #@! TF.ProjectId,Draytronics-Elise-PCB V2,44726179-7472-46f6-9e69-63732d456c69,rev?*
G04 #@! TF.SameCoordinates,Original*
G04 #@! TF.FileFunction,Legend,Top*
G04 #@! TF.FilePolarity,Positive*
%FSLAX46Y46*%
G04 Gerber Fmt 4.6, Leading zero omitted, Abs format (unit mm)*
G04 Created by KiCad (PCBNEW (5.1.9-0-10_14)) date 2021-07-16 17:28:01*
%MOMM*%
%LPD*%
G01*
G04 APERTURE LIST*
%ADD10C,0.150000*%
%ADD11C,0.010000*%
G04 APERTURE END LIST*
D10*
X203376190Y-114652380D02*
X203709523Y-115652380D01*
X204042857Y-114652380D01*
X204328571Y-114747619D02*
X204376190Y-114700000D01*
X204471428Y-114652380D01*
X204709523Y-114652380D01*
X204804761Y-114700000D01*
X204852380Y-114747619D01*
X204900000Y-114842857D01*
X204900000Y-114938095D01*
X204852380Y-115080952D01*
X204280952Y-115652380D01*
X204900000Y-115652380D01*
X205328571Y-115557142D02*
X205376190Y-115604761D01*
X205328571Y-115652380D01*
X205280952Y-115604761D01*
X205328571Y-115557142D01*
X205328571Y-115652380D01*
X205995238Y-114652380D02*
X206090476Y-114652380D01*
X206185714Y-114700000D01*
X206233333Y-114747619D01*
X206280952Y-114842857D01*
X206328571Y-115033333D01*
X206328571Y-115271428D01*
X206280952Y-115461904D01*
X206233333Y-115557142D01*
X206185714Y-115604761D01*
X206090476Y-115652380D01*
X205995238Y-115652380D01*
X205900000Y-115604761D01*
X205852380Y-115557142D01*
X205804761Y-115461904D01*
X205757142Y-115271428D01*
X205757142Y-115033333D01*
X205804761Y-114842857D01*
X205852380Y-114747619D01*
X205900000Y-114700000D01*
X205995238Y-114652380D01*
X122331554Y-118135660D02*
X122331554Y-117468994D01*
X122331554Y-117135660D02*
X122283935Y-117183280D01*
X122331554Y-117230899D01*
X122379173Y-117183280D01*
X122331554Y-117135660D01*
X122331554Y-117230899D01*
X122807744Y-117468994D02*
X122807744Y-118135660D01*
X122807744Y-117564232D02*
X122855363Y-117516613D01*
X122950601Y-117468994D01*
X123093459Y-117468994D01*
X123188697Y-117516613D01*
X123236316Y-117611851D01*
X123236316Y-118135660D01*
X123569649Y-117468994D02*
X123950601Y-117468994D01*
X123712506Y-118135660D02*
X123712506Y-117278518D01*
X123760125Y-117183280D01*
X123855363Y-117135660D01*
X123950601Y-117135660D01*
X124426792Y-118135660D02*
X124331554Y-118088041D01*
X124283935Y-118040422D01*
X124236316Y-117945184D01*
X124236316Y-117659470D01*
X124283935Y-117564232D01*
X124331554Y-117516613D01*
X124426792Y-117468994D01*
X124569649Y-117468994D01*
X124664887Y-117516613D01*
X124712506Y-117564232D01*
X124760125Y-117659470D01*
X124760125Y-117945184D01*
X124712506Y-118040422D01*
X124664887Y-118088041D01*
X124569649Y-118135660D01*
X124426792Y-118135660D01*
X125807744Y-117659470D02*
X125760125Y-117611851D01*
X125664887Y-117564232D01*
X125569649Y-117564232D01*
X125474411Y-117611851D01*
X125426792Y-117659470D01*
X125379173Y-117754708D01*
X125379173Y-117849946D01*
X125426792Y-117945184D01*
X125474411Y-117992803D01*
X125569649Y-118040422D01*
X125664887Y-118040422D01*
X125760125Y-117992803D01*
X125807744Y-117945184D01*
X125807744Y-117564232D02*
X125807744Y-117945184D01*
X125855363Y-117992803D01*
X125902982Y-117992803D01*
X125998220Y-117945184D01*
X126045840Y-117849946D01*
X126045840Y-117611851D01*
X125950601Y-117468994D01*
X125807744Y-117373756D01*
X125617268Y-117326137D01*
X125426792Y-117373756D01*
X125283935Y-117468994D01*
X125188697Y-117611851D01*
X125141078Y-117802327D01*
X125188697Y-117992803D01*
X125283935Y-118135660D01*
X125426792Y-118230899D01*
X125617268Y-118278518D01*
X125807744Y-118230899D01*
X125950601Y-118135660D01*
X126902982Y-118135660D02*
X126902982Y-117135660D01*
X126902982Y-118088041D02*
X126807744Y-118135660D01*
X126617268Y-118135660D01*
X126522030Y-118088041D01*
X126474411Y-118040422D01*
X126426792Y-117945184D01*
X126426792Y-117659470D01*
X126474411Y-117564232D01*
X126522030Y-117516613D01*
X126617268Y-117468994D01*
X126807744Y-117468994D01*
X126902982Y-117516613D01*
X127379173Y-118135660D02*
X127379173Y-117468994D01*
X127379173Y-117659470D02*
X127426792Y-117564232D01*
X127474411Y-117516613D01*
X127569649Y-117468994D01*
X127664887Y-117468994D01*
X128426792Y-118135660D02*
X128426792Y-117611851D01*
X128379173Y-117516613D01*
X128283935Y-117468994D01*
X128093459Y-117468994D01*
X127998220Y-117516613D01*
X128426792Y-118088041D02*
X128331554Y-118135660D01*
X128093459Y-118135660D01*
X127998220Y-118088041D01*
X127950601Y-117992803D01*
X127950601Y-117897565D01*
X127998220Y-117802327D01*
X128093459Y-117754708D01*
X128331554Y-117754708D01*
X128426792Y-117707089D01*
X128807744Y-117468994D02*
X129045840Y-118135660D01*
X129283935Y-117468994D02*
X129045840Y-118135660D01*
X128950601Y-118373756D01*
X128902982Y-118421375D01*
X128807744Y-118468994D01*
X129522030Y-117468994D02*
X129902982Y-117468994D01*
X129664887Y-117135660D02*
X129664887Y-117992803D01*
X129712506Y-118088041D01*
X129807744Y-118135660D01*
X129902982Y-118135660D01*
X130236316Y-118135660D02*
X130236316Y-117468994D01*
X130236316Y-117659470D02*
X130283935Y-117564232D01*
X130331554Y-117516613D01*
X130426792Y-117468994D01*
X130522030Y-117468994D01*
X130998220Y-118135660D02*
X130902982Y-118088041D01*
X130855363Y-118040422D01*
X130807744Y-117945184D01*
X130807744Y-117659470D01*
X130855363Y-117564232D01*
X130902982Y-117516613D01*
X130998220Y-117468994D01*
X131141078Y-117468994D01*
X131236316Y-117516613D01*
X131283935Y-117564232D01*
X131331554Y-117659470D01*
X131331554Y-117945184D01*
X131283935Y-118040422D01*
X131236316Y-118088041D01*
X131141078Y-118135660D01*
X130998220Y-118135660D01*
X131760125Y-117468994D02*
X131760125Y-118135660D01*
X131760125Y-117564232D02*
X131807744Y-117516613D01*
X131902982Y-117468994D01*
X132045840Y-117468994D01*
X132141078Y-117516613D01*
X132188697Y-117611851D01*
X132188697Y-118135660D01*
X132664887Y-118135660D02*
X132664887Y-117468994D01*
X132664887Y-117135660D02*
X132617268Y-117183280D01*
X132664887Y-117230899D01*
X132712506Y-117183280D01*
X132664887Y-117135660D01*
X132664887Y-117230899D01*
X133569649Y-118088041D02*
X133474411Y-118135660D01*
X133283935Y-118135660D01*
X133188697Y-118088041D01*
X133141078Y-118040422D01*
X133093459Y-117945184D01*
X133093459Y-117659470D01*
X133141078Y-117564232D01*
X133188697Y-117516613D01*
X133283935Y-117468994D01*
X133474411Y-117468994D01*
X133569649Y-117516613D01*
X133950601Y-118088041D02*
X134045840Y-118135660D01*
X134236316Y-118135660D01*
X134331554Y-118088041D01*
X134379173Y-117992803D01*
X134379173Y-117945184D01*
X134331554Y-117849946D01*
X134236316Y-117802327D01*
X134093459Y-117802327D01*
X133998220Y-117754708D01*
X133950601Y-117659470D01*
X133950601Y-117611851D01*
X133998220Y-117516613D01*
X134093459Y-117468994D01*
X134236316Y-117468994D01*
X134331554Y-117516613D01*
X134807744Y-118040422D02*
X134855363Y-118088041D01*
X134807744Y-118135660D01*
X134760125Y-118088041D01*
X134807744Y-118040422D01*
X134807744Y-118135660D01*
X135712506Y-118088041D02*
X135617268Y-118135660D01*
X135426792Y-118135660D01*
X135331554Y-118088041D01*
X135283935Y-118040422D01*
X135236316Y-117945184D01*
X135236316Y-117659470D01*
X135283935Y-117564232D01*
X135331554Y-117516613D01*
X135426792Y-117468994D01*
X135617268Y-117468994D01*
X135712506Y-117516613D01*
X136283935Y-118135660D02*
X136188697Y-118088041D01*
X136141078Y-118040422D01*
X136093459Y-117945184D01*
X136093459Y-117659470D01*
X136141078Y-117564232D01*
X136188697Y-117516613D01*
X136283935Y-117468994D01*
X136426792Y-117468994D01*
X136522030Y-117516613D01*
X136569649Y-117564232D01*
X136617268Y-117659470D01*
X136617268Y-117945184D01*
X136569649Y-118040422D01*
X136522030Y-118088041D01*
X136426792Y-118135660D01*
X136283935Y-118135660D01*
X137045840Y-118040422D02*
X137093459Y-118088041D01*
X137045840Y-118135660D01*
X136998220Y-118088041D01*
X137045840Y-118040422D01*
X137045840Y-118135660D01*
X137950601Y-117468994D02*
X137950601Y-118135660D01*
X137522030Y-117468994D02*
X137522030Y-117992803D01*
X137569649Y-118088041D01*
X137664887Y-118135660D01*
X137807744Y-118135660D01*
X137902982Y-118088041D01*
X137950601Y-118040422D01*
X138426792Y-118135660D02*
X138426792Y-117135660D01*
X138522030Y-117754708D02*
X138807744Y-118135660D01*
X138807744Y-117468994D02*
X138426792Y-117849946D01*
X165933932Y-118257580D02*
X165933932Y-117257580D01*
X166172027Y-117257580D01*
X166314884Y-117305200D01*
X166410122Y-117400438D01*
X166457741Y-117495676D01*
X166505360Y-117686152D01*
X166505360Y-117829009D01*
X166457741Y-118019485D01*
X166410122Y-118114723D01*
X166314884Y-118209961D01*
X166172027Y-118257580D01*
X165933932Y-118257580D01*
X167314884Y-118209961D02*
X167219646Y-118257580D01*
X167029170Y-118257580D01*
X166933932Y-118209961D01*
X166886313Y-118114723D01*
X166886313Y-117733771D01*
X166933932Y-117638533D01*
X167029170Y-117590914D01*
X167219646Y-117590914D01*
X167314884Y-117638533D01*
X167362503Y-117733771D01*
X167362503Y-117829009D01*
X166886313Y-117924247D01*
X167743456Y-118209961D02*
X167838694Y-118257580D01*
X168029170Y-118257580D01*
X168124408Y-118209961D01*
X168172027Y-118114723D01*
X168172027Y-118067104D01*
X168124408Y-117971866D01*
X168029170Y-117924247D01*
X167886313Y-117924247D01*
X167791075Y-117876628D01*
X167743456Y-117781390D01*
X167743456Y-117733771D01*
X167791075Y-117638533D01*
X167886313Y-117590914D01*
X168029170Y-117590914D01*
X168124408Y-117638533D01*
X168600599Y-118257580D02*
X168600599Y-117590914D01*
X168600599Y-117257580D02*
X168552980Y-117305200D01*
X168600599Y-117352819D01*
X168648218Y-117305200D01*
X168600599Y-117257580D01*
X168600599Y-117352819D01*
X169505360Y-117590914D02*
X169505360Y-118400438D01*
X169457741Y-118495676D01*
X169410122Y-118543295D01*
X169314884Y-118590914D01*
X169172027Y-118590914D01*
X169076789Y-118543295D01*
X169505360Y-118209961D02*
X169410122Y-118257580D01*
X169219646Y-118257580D01*
X169124408Y-118209961D01*
X169076789Y-118162342D01*
X169029170Y-118067104D01*
X169029170Y-117781390D01*
X169076789Y-117686152D01*
X169124408Y-117638533D01*
X169219646Y-117590914D01*
X169410122Y-117590914D01*
X169505360Y-117638533D01*
X169981551Y-117590914D02*
X169981551Y-118257580D01*
X169981551Y-117686152D02*
X170029170Y-117638533D01*
X170124408Y-117590914D01*
X170267265Y-117590914D01*
X170362503Y-117638533D01*
X170410122Y-117733771D01*
X170410122Y-118257580D01*
X171267265Y-118209961D02*
X171172027Y-118257580D01*
X170981551Y-118257580D01*
X170886313Y-118209961D01*
X170838694Y-118114723D01*
X170838694Y-117733771D01*
X170886313Y-117638533D01*
X170981551Y-117590914D01*
X171172027Y-117590914D01*
X171267265Y-117638533D01*
X171314884Y-117733771D01*
X171314884Y-117829009D01*
X170838694Y-117924247D01*
X172172027Y-118257580D02*
X172172027Y-117257580D01*
X172172027Y-118209961D02*
X172076789Y-118257580D01*
X171886313Y-118257580D01*
X171791075Y-118209961D01*
X171743456Y-118162342D01*
X171695837Y-118067104D01*
X171695837Y-117781390D01*
X171743456Y-117686152D01*
X171791075Y-117638533D01*
X171886313Y-117590914D01*
X172076789Y-117590914D01*
X172172027Y-117638533D01*
X173410122Y-118257580D02*
X173410122Y-117590914D01*
X173410122Y-117257580D02*
X173362503Y-117305200D01*
X173410122Y-117352819D01*
X173457741Y-117305200D01*
X173410122Y-117257580D01*
X173410122Y-117352819D01*
X173886313Y-117590914D02*
X173886313Y-118257580D01*
X173886313Y-117686152D02*
X173933932Y-117638533D01*
X174029170Y-117590914D01*
X174172027Y-117590914D01*
X174267265Y-117638533D01*
X174314884Y-117733771D01*
X174314884Y-118257580D01*
X175410122Y-117590914D02*
X175791075Y-117590914D01*
X175552980Y-117257580D02*
X175552980Y-118114723D01*
X175600599Y-118209961D01*
X175695837Y-118257580D01*
X175791075Y-118257580D01*
X176124408Y-118257580D02*
X176124408Y-117257580D01*
X176552980Y-118257580D02*
X176552980Y-117733771D01*
X176505360Y-117638533D01*
X176410122Y-117590914D01*
X176267265Y-117590914D01*
X176172027Y-117638533D01*
X176124408Y-117686152D01*
X177410122Y-118209961D02*
X177314884Y-118257580D01*
X177124408Y-118257580D01*
X177029170Y-118209961D01*
X176981551Y-118114723D01*
X176981551Y-117733771D01*
X177029170Y-117638533D01*
X177124408Y-117590914D01*
X177314884Y-117590914D01*
X177410122Y-117638533D01*
X177457741Y-117733771D01*
X177457741Y-117829009D01*
X176981551Y-117924247D01*
X178648218Y-117257580D02*
X178648218Y-118067104D01*
X178695837Y-118162342D01*
X178743456Y-118209961D01*
X178838694Y-118257580D01*
X179029170Y-118257580D01*
X179124408Y-118209961D01*
X179172027Y-118162342D01*
X179219646Y-118067104D01*
X179219646Y-117257580D01*
X179695837Y-118257580D02*
X179695837Y-117257580D01*
X180267265Y-118257580D02*
X179838694Y-117686152D01*
X180267265Y-117257580D02*
X179695837Y-117829009D01*
X181457741Y-118257580D02*
X181457741Y-117257580D01*
X181457741Y-117638533D02*
X181552980Y-117590914D01*
X181743456Y-117590914D01*
X181838694Y-117638533D01*
X181886313Y-117686152D01*
X181933932Y-117781390D01*
X181933932Y-118067104D01*
X181886313Y-118162342D01*
X181838694Y-118209961D01*
X181743456Y-118257580D01*
X181552980Y-118257580D01*
X181457741Y-118209961D01*
X182267265Y-117590914D02*
X182505360Y-118257580D01*
X182743456Y-117590914D02*
X182505360Y-118257580D01*
X182410122Y-118495676D01*
X182362503Y-118543295D01*
X182267265Y-118590914D01*
X184219646Y-117733771D02*
X184362503Y-117781390D01*
X184410122Y-117829009D01*
X184457741Y-117924247D01*
X184457741Y-118067104D01*
X184410122Y-118162342D01*
X184362503Y-118209961D01*
X184267265Y-118257580D01*
X183886313Y-118257580D01*
X183886313Y-117257580D01*
X184219646Y-117257580D01*
X184314884Y-117305200D01*
X184362503Y-117352819D01*
X184410122Y-117448057D01*
X184410122Y-117543295D01*
X184362503Y-117638533D01*
X184314884Y-117686152D01*
X184219646Y-117733771D01*
X183886313Y-117733771D01*
X185029170Y-118257580D02*
X184933932Y-118209961D01*
X184886313Y-118114723D01*
X184886313Y-117257580D01*
X185838694Y-118257580D02*
X185838694Y-117733771D01*
X185791075Y-117638533D01*
X185695837Y-117590914D01*
X185505360Y-117590914D01*
X185410122Y-117638533D01*
X185838694Y-118209961D02*
X185743456Y-118257580D01*
X185505360Y-118257580D01*
X185410122Y-118209961D01*
X185362503Y-118114723D01*
X185362503Y-118019485D01*
X185410122Y-117924247D01*
X185505360Y-117876628D01*
X185743456Y-117876628D01*
X185838694Y-117829009D01*
X186314884Y-118257580D02*
X186314884Y-117257580D01*
X186410122Y-117876628D02*
X186695837Y-118257580D01*
X186695837Y-117590914D02*
X186314884Y-117971866D01*
X187505360Y-118209961D02*
X187410122Y-118257580D01*
X187219646Y-118257580D01*
X187124408Y-118209961D01*
X187076789Y-118114723D01*
X187076789Y-117733771D01*
X187124408Y-117638533D01*
X187219646Y-117590914D01*
X187410122Y-117590914D01*
X187505360Y-117638533D01*
X187552980Y-117733771D01*
X187552980Y-117829009D01*
X187076789Y-117924247D01*
X188743456Y-118257580D02*
X188743456Y-117257580D01*
X188981551Y-117257580D01*
X189124408Y-117305200D01*
X189219646Y-117400438D01*
X189267265Y-117495676D01*
X189314884Y-117686152D01*
X189314884Y-117829009D01*
X189267265Y-118019485D01*
X189219646Y-118114723D01*
X189124408Y-118209961D01*
X188981551Y-118257580D01*
X188743456Y-118257580D01*
X189743456Y-118257580D02*
X189743456Y-117590914D01*
X189743456Y-117781390D02*
X189791075Y-117686152D01*
X189838694Y-117638533D01*
X189933932Y-117590914D01*
X190029170Y-117590914D01*
X190791075Y-118257580D02*
X190791075Y-117733771D01*
X190743456Y-117638533D01*
X190648218Y-117590914D01*
X190457741Y-117590914D01*
X190362503Y-117638533D01*
X190791075Y-118209961D02*
X190695837Y-118257580D01*
X190457741Y-118257580D01*
X190362503Y-118209961D01*
X190314884Y-118114723D01*
X190314884Y-118019485D01*
X190362503Y-117924247D01*
X190457741Y-117876628D01*
X190695837Y-117876628D01*
X190791075Y-117829009D01*
X191172027Y-117590914D02*
X191410122Y-118257580D01*
X191648218Y-117590914D02*
X191410122Y-118257580D01*
X191314884Y-118495676D01*
X191267265Y-118543295D01*
X191172027Y-118590914D01*
X191981551Y-118209961D02*
X192076789Y-118257580D01*
X192267265Y-118257580D01*
X192362503Y-118209961D01*
X192410122Y-118114723D01*
X192410122Y-118067104D01*
X192362503Y-117971866D01*
X192267265Y-117924247D01*
X192124408Y-117924247D01*
X192029170Y-117876628D01*
X191981551Y-117781390D01*
X191981551Y-117733771D01*
X192029170Y-117638533D01*
X192124408Y-117590914D01*
X192267265Y-117590914D01*
X192362503Y-117638533D01*
X192981551Y-118257580D02*
X192886313Y-118209961D01*
X192838694Y-118162342D01*
X192791075Y-118067104D01*
X192791075Y-117781390D01*
X192838694Y-117686152D01*
X192886313Y-117638533D01*
X192981551Y-117590914D01*
X193124408Y-117590914D01*
X193219646Y-117638533D01*
X193267265Y-117686152D01*
X193314884Y-117781390D01*
X193314884Y-118067104D01*
X193267265Y-118162342D01*
X193219646Y-118209961D01*
X193124408Y-118257580D01*
X192981551Y-118257580D01*
X193743456Y-117590914D02*
X193743456Y-118257580D01*
X193743456Y-117686152D02*
X193791075Y-117638533D01*
X193886313Y-117590914D01*
X194029170Y-117590914D01*
X194124408Y-117638533D01*
X194172027Y-117733771D01*
X194172027Y-118257580D01*
D11*
G04 #@! TO.C,G\u002A\u002A\u002A*
G36*
X198352061Y-105836501D02*
G01*
X198586231Y-105922416D01*
X198790812Y-106079553D01*
X198873824Y-106182241D01*
X198965556Y-106398765D01*
X198978244Y-106641711D01*
X198914706Y-106877326D01*
X198801527Y-107048060D01*
X198560887Y-107236791D01*
X198289656Y-107331520D01*
X198001115Y-107329883D01*
X197727542Y-107239145D01*
X197502202Y-107077556D01*
X197360685Y-106860647D01*
X197307503Y-106595578D01*
X197307200Y-106572296D01*
X197350830Y-106322521D01*
X197470035Y-106117784D01*
X197647289Y-105962449D01*
X197865062Y-105860882D01*
X198105829Y-105817444D01*
X198352061Y-105836501D01*
G37*
X198352061Y-105836501D02*
X198586231Y-105922416D01*
X198790812Y-106079553D01*
X198873824Y-106182241D01*
X198965556Y-106398765D01*
X198978244Y-106641711D01*
X198914706Y-106877326D01*
X198801527Y-107048060D01*
X198560887Y-107236791D01*
X198289656Y-107331520D01*
X198001115Y-107329883D01*
X197727542Y-107239145D01*
X197502202Y-107077556D01*
X197360685Y-106860647D01*
X197307503Y-106595578D01*
X197307200Y-106572296D01*
X197350830Y-106322521D01*
X197470035Y-106117784D01*
X197647289Y-105962449D01*
X197865062Y-105860882D01*
X198105829Y-105817444D01*
X198352061Y-105836501D01*
G36*
X166616791Y-105577401D02*
G01*
X168529000Y-105592880D01*
X168859200Y-105749869D01*
X169152119Y-105906219D01*
X169368028Y-106066643D01*
X169530126Y-106251954D01*
X169650335Y-106459566D01*
X169718976Y-106611580D01*
X169757170Y-106741556D01*
X169770973Y-106887018D01*
X169766443Y-107085489D01*
X169762710Y-107155734D01*
X169698626Y-107579634D01*
X169551247Y-107987069D01*
X169313987Y-108394273D01*
X169193122Y-108559842D01*
X168808164Y-108978373D01*
X168347095Y-109337169D01*
X167819569Y-109630962D01*
X167235242Y-109854483D01*
X166603768Y-110002465D01*
X166526834Y-110014663D01*
X166324315Y-110038983D01*
X166079453Y-110058897D01*
X165810931Y-110074026D01*
X165537438Y-110083993D01*
X165277657Y-110088421D01*
X165050275Y-110086934D01*
X164873979Y-110079152D01*
X164767453Y-110064700D01*
X164744400Y-110050657D01*
X164760657Y-109995324D01*
X164806822Y-109855588D01*
X164878983Y-109642850D01*
X164973227Y-109368512D01*
X165085645Y-109043977D01*
X165212323Y-108680647D01*
X165310788Y-108399657D01*
X165877176Y-106786679D01*
X166453788Y-106786679D01*
X166681976Y-106789812D01*
X166867213Y-106798320D01*
X166989390Y-106810872D01*
X167028814Y-106824780D01*
X167012011Y-106880795D01*
X166965372Y-107019884D01*
X166893264Y-107229451D01*
X166800055Y-107496900D01*
X166690115Y-107809635D01*
X166567811Y-108155062D01*
X166553127Y-108196380D01*
X166079027Y-109529880D01*
X166245387Y-109529880D01*
X166514559Y-109493012D01*
X166823123Y-109391412D01*
X167145654Y-109238585D01*
X167456724Y-109048033D01*
X167730906Y-108833262D01*
X167914674Y-108643329D01*
X168034453Y-108475745D01*
X168163057Y-108262955D01*
X168262588Y-108071462D01*
X168392564Y-107717422D01*
X168446330Y-107382062D01*
X168425787Y-107077672D01*
X168332837Y-106816541D01*
X168169382Y-106610959D01*
X168021000Y-106510223D01*
X167962182Y-106482413D01*
X167897544Y-106459859D01*
X167816029Y-106441898D01*
X167706580Y-106427866D01*
X167558142Y-106417100D01*
X167359658Y-106408936D01*
X167100071Y-106402711D01*
X166768326Y-106397760D01*
X166353365Y-106393421D01*
X166027100Y-106390558D01*
X165611989Y-106386475D01*
X165230911Y-106381612D01*
X164895319Y-106376204D01*
X164616671Y-106370481D01*
X164406419Y-106364676D01*
X164276019Y-106359021D01*
X164236400Y-106354260D01*
X164260999Y-106304320D01*
X164326793Y-106188681D01*
X164421779Y-106028203D01*
X164470491Y-105947503D01*
X164704582Y-105561923D01*
X166616791Y-105577401D01*
G37*
X166616791Y-105577401D02*
X168529000Y-105592880D01*
X168859200Y-105749869D01*
X169152119Y-105906219D01*
X169368028Y-106066643D01*
X169530126Y-106251954D01*
X169650335Y-106459566D01*
X169718976Y-106611580D01*
X169757170Y-106741556D01*
X169770973Y-106887018D01*
X169766443Y-107085489D01*
X169762710Y-107155734D01*
X169698626Y-107579634D01*
X169551247Y-107987069D01*
X169313987Y-108394273D01*
X169193122Y-108559842D01*
X168808164Y-108978373D01*
X168347095Y-109337169D01*
X167819569Y-109630962D01*
X167235242Y-109854483D01*
X166603768Y-110002465D01*
X166526834Y-110014663D01*
X166324315Y-110038983D01*
X166079453Y-110058897D01*
X165810931Y-110074026D01*
X165537438Y-110083993D01*
X165277657Y-110088421D01*
X165050275Y-110086934D01*
X164873979Y-110079152D01*
X164767453Y-110064700D01*
X164744400Y-110050657D01*
X164760657Y-109995324D01*
X164806822Y-109855588D01*
X164878983Y-109642850D01*
X164973227Y-109368512D01*
X165085645Y-109043977D01*
X165212323Y-108680647D01*
X165310788Y-108399657D01*
X165877176Y-106786679D01*
X166453788Y-106786679D01*
X166681976Y-106789812D01*
X166867213Y-106798320D01*
X166989390Y-106810872D01*
X167028814Y-106824780D01*
X167012011Y-106880795D01*
X166965372Y-107019884D01*
X166893264Y-107229451D01*
X166800055Y-107496900D01*
X166690115Y-107809635D01*
X166567811Y-108155062D01*
X166553127Y-108196380D01*
X166079027Y-109529880D01*
X166245387Y-109529880D01*
X166514559Y-109493012D01*
X166823123Y-109391412D01*
X167145654Y-109238585D01*
X167456724Y-109048033D01*
X167730906Y-108833262D01*
X167914674Y-108643329D01*
X168034453Y-108475745D01*
X168163057Y-108262955D01*
X168262588Y-108071462D01*
X168392564Y-107717422D01*
X168446330Y-107382062D01*
X168425787Y-107077672D01*
X168332837Y-106816541D01*
X168169382Y-106610959D01*
X168021000Y-106510223D01*
X167962182Y-106482413D01*
X167897544Y-106459859D01*
X167816029Y-106441898D01*
X167706580Y-106427866D01*
X167558142Y-106417100D01*
X167359658Y-106408936D01*
X167100071Y-106402711D01*
X166768326Y-106397760D01*
X166353365Y-106393421D01*
X166027100Y-106390558D01*
X165611989Y-106386475D01*
X165230911Y-106381612D01*
X164895319Y-106376204D01*
X164616671Y-106370481D01*
X164406419Y-106364676D01*
X164276019Y-106359021D01*
X164236400Y-106354260D01*
X164260999Y-106304320D01*
X164326793Y-106188681D01*
X164421779Y-106028203D01*
X164470491Y-105947503D01*
X164704582Y-105561923D01*
X166616791Y-105577401D01*
G36*
X184042659Y-106586500D02*
G01*
X184159813Y-106594390D01*
X184200800Y-106604657D01*
X184184663Y-106657951D01*
X184140744Y-106787301D01*
X184075775Y-106973209D01*
X183997600Y-107193079D01*
X183917804Y-107421648D01*
X183852735Y-107619106D01*
X183809308Y-107763694D01*
X183794400Y-107832302D01*
X183818067Y-107870735D01*
X183900342Y-107893282D01*
X184058138Y-107903125D01*
X184176704Y-107904280D01*
X184559009Y-107904280D01*
X184482890Y-108051477D01*
X184364538Y-108188611D01*
X184178476Y-108305625D01*
X183958537Y-108385697D01*
X183757150Y-108412280D01*
X183548778Y-108412280D01*
X183384729Y-108907580D01*
X183313606Y-109121657D01*
X183253070Y-109302652D01*
X183211086Y-109426817D01*
X183197305Y-109466380D01*
X183210795Y-109490786D01*
X183279208Y-109508481D01*
X183413484Y-109520312D01*
X183624564Y-109527126D01*
X183923388Y-109529770D01*
X184017564Y-109529880D01*
X184297479Y-109529004D01*
X184538126Y-109526579D01*
X184722818Y-109522909D01*
X184834865Y-109518300D01*
X184861200Y-109514490D01*
X184877477Y-109463561D01*
X184921697Y-109336791D01*
X184986944Y-109153773D01*
X185059579Y-108952600D01*
X185257959Y-108406100D01*
X185135803Y-108359656D01*
X185005686Y-108265510D01*
X184893571Y-108108696D01*
X184823164Y-107927986D01*
X184810779Y-107828080D01*
X184857646Y-107599835D01*
X184994506Y-107409694D01*
X185215753Y-107261366D01*
X185515778Y-107158562D01*
X185888974Y-107104992D01*
X185905184Y-107103936D01*
X186130701Y-107092478D01*
X186267271Y-107102610D01*
X186327359Y-107149786D01*
X186323433Y-107249457D01*
X186267958Y-107417074D01*
X186232825Y-107510035D01*
X186176595Y-107668654D01*
X186139697Y-107793213D01*
X186131225Y-107840780D01*
X186156225Y-107865199D01*
X186238338Y-107882977D01*
X186388197Y-107894889D01*
X186616440Y-107901713D01*
X186933700Y-107904225D01*
X187000235Y-107904279D01*
X187324441Y-107905665D01*
X187558943Y-107910454D01*
X187715608Y-107919596D01*
X187806303Y-107934039D01*
X187842895Y-107954732D01*
X187843401Y-107971692D01*
X187818495Y-108041210D01*
X187766879Y-108188435D01*
X187694952Y-108395019D01*
X187609108Y-108642613D01*
X187560052Y-108784492D01*
X187302572Y-109529879D01*
X187933443Y-109529880D01*
X188564314Y-109529880D01*
X188509798Y-109373494D01*
X188507679Y-109360061D01*
X189557896Y-109360061D01*
X189569135Y-109420735D01*
X189602834Y-109469904D01*
X189611124Y-109479217D01*
X189766778Y-109582411D01*
X189987169Y-109614576D01*
X190037013Y-109612908D01*
X190092954Y-109599953D01*
X190141969Y-109557325D01*
X190193092Y-109468827D01*
X190255355Y-109318261D01*
X190337792Y-109089432D01*
X190352483Y-109047280D01*
X190429175Y-108824043D01*
X190491952Y-108636326D01*
X190534063Y-108504659D01*
X190548770Y-108450380D01*
X190503354Y-108431512D01*
X190382017Y-108417886D01*
X190210407Y-108412298D01*
X190199389Y-108412280D01*
X189847978Y-108412280D01*
X189686208Y-108897855D01*
X189613705Y-109119735D01*
X189571844Y-109266765D01*
X189557896Y-109360061D01*
X188507679Y-109360061D01*
X188467863Y-109107776D01*
X188513304Y-108834599D01*
X188634786Y-108570565D01*
X188820975Y-108332276D01*
X189060536Y-108136332D01*
X189342134Y-107999335D01*
X189472961Y-107962763D01*
X189574448Y-107950843D01*
X189760109Y-107939344D01*
X190017287Y-107928421D01*
X190333325Y-107918230D01*
X190695566Y-107908926D01*
X191091353Y-107900664D01*
X191508029Y-107893601D01*
X191932938Y-107887891D01*
X192353421Y-107883690D01*
X192756823Y-107881154D01*
X193130485Y-107880437D01*
X193461752Y-107881696D01*
X193737966Y-107885085D01*
X193946470Y-107890761D01*
X194074607Y-107898879D01*
X194109282Y-107905814D01*
X194134221Y-107946373D01*
X194128622Y-108030755D01*
X194089258Y-108175580D01*
X194014888Y-108391954D01*
X193946428Y-108586484D01*
X193895223Y-108740614D01*
X193868303Y-108832721D01*
X193866341Y-108849063D01*
X193907584Y-108823377D01*
X194010958Y-108744740D01*
X194160720Y-108625453D01*
X194335400Y-108482558D01*
X194623595Y-108249886D01*
X194855274Y-108078326D01*
X195046985Y-107958394D01*
X195215281Y-107880610D01*
X195376712Y-107835490D01*
X195494962Y-107818214D01*
X195665775Y-107807235D01*
X195773411Y-107823637D01*
X195854345Y-107874995D01*
X195878357Y-107897837D01*
X195957419Y-108013944D01*
X195985754Y-108120180D01*
X195969300Y-108209262D01*
X195924729Y-108372229D01*
X195858459Y-108587418D01*
X195776912Y-108833165D01*
X195759456Y-108883725D01*
X195533804Y-109532970D01*
X196761688Y-109504480D01*
X197046592Y-108704379D01*
X197331496Y-107904279D01*
X197903548Y-107904279D01*
X198143791Y-107908345D01*
X198330254Y-107919571D01*
X198445777Y-107936501D01*
X198475600Y-107952816D01*
X198459318Y-108015059D01*
X198414351Y-108155486D01*
X198346514Y-108356721D01*
X198261623Y-108601387D01*
X198203565Y-108765616D01*
X197931531Y-109529880D01*
X199167883Y-109529880D01*
X199147452Y-109237780D01*
X199173705Y-108921408D01*
X199291661Y-108628150D01*
X199492105Y-108369377D01*
X199765821Y-108156461D01*
X200103592Y-108000772D01*
X200165949Y-107981043D01*
X200339782Y-107946035D01*
X200576290Y-107920973D01*
X200851745Y-107905901D01*
X201142421Y-107900859D01*
X201424592Y-107905888D01*
X201674530Y-107921030D01*
X201868509Y-107946326D01*
X201975778Y-107977883D01*
X202158782Y-108125667D01*
X202263149Y-108333367D01*
X202285600Y-108510399D01*
X202268657Y-108660827D01*
X202203582Y-108785145D01*
X202109660Y-108889632D01*
X201902903Y-109034011D01*
X201676735Y-109090356D01*
X201451772Y-109064017D01*
X201248630Y-108960342D01*
X201087927Y-108784680D01*
X201005943Y-108603280D01*
X200960752Y-108477912D01*
X200904675Y-108425432D01*
X200803712Y-108419791D01*
X200769895Y-108422438D01*
X200676770Y-108435674D01*
X200613715Y-108470202D01*
X200563344Y-108547638D01*
X200508273Y-108689601D01*
X200473898Y-108790475D01*
X200392419Y-109063697D01*
X200360109Y-109260136D01*
X200376611Y-109391721D01*
X200441571Y-109470383D01*
X200453460Y-109477292D01*
X200536733Y-109494106D01*
X200713127Y-109508057D01*
X200974196Y-109518834D01*
X201311494Y-109526123D01*
X201716574Y-109529613D01*
X201875860Y-109529880D01*
X202281423Y-109529242D01*
X202596378Y-109526902D01*
X202831710Y-109522224D01*
X202998405Y-109514567D01*
X203107450Y-109503293D01*
X203169830Y-109487765D01*
X203196532Y-109467343D01*
X203200000Y-109452933D01*
X203245550Y-109364707D01*
X203362720Y-109279153D01*
X203522290Y-109211341D01*
X203695037Y-109176339D01*
X203739983Y-109174469D01*
X203963692Y-109212177D01*
X204245913Y-109323931D01*
X204296367Y-109348722D01*
X204466143Y-109429141D01*
X204600465Y-109483437D01*
X204674545Y-109501804D01*
X204679777Y-109500415D01*
X204718412Y-109441301D01*
X204766817Y-109324408D01*
X204776473Y-109296207D01*
X204810017Y-109135307D01*
X204793245Y-108968072D01*
X204773578Y-108890515D01*
X204729440Y-108757279D01*
X204689642Y-108676949D01*
X204676102Y-108666280D01*
X204622430Y-108699728D01*
X204530152Y-108783392D01*
X204495400Y-108818680D01*
X204406270Y-108901924D01*
X204318371Y-108947432D01*
X204197067Y-108966037D01*
X204015995Y-108968636D01*
X203682600Y-108966192D01*
X204099265Y-108574936D01*
X204515931Y-108183680D01*
X204458037Y-107971399D01*
X204400142Y-107759118D01*
X204795445Y-107323699D01*
X204954869Y-107151935D01*
X205091279Y-107012112D01*
X205189543Y-106919272D01*
X205233467Y-106888279D01*
X205366178Y-106921326D01*
X205519099Y-107003431D01*
X205633521Y-107097946D01*
X205718740Y-107257769D01*
X205736451Y-107459813D01*
X205683566Y-107667734D01*
X205682193Y-107670770D01*
X205661310Y-107741720D01*
X205662417Y-107833271D01*
X205689202Y-107965268D01*
X205745357Y-108157558D01*
X205809193Y-108353970D01*
X205906312Y-108662904D01*
X205964956Y-108897923D01*
X205987157Y-109078284D01*
X205974948Y-109223247D01*
X205930363Y-109352071D01*
X205917331Y-109378386D01*
X205840662Y-109526647D01*
X206433886Y-109540963D01*
X206721622Y-109552151D01*
X206915106Y-109570035D01*
X207021517Y-109595518D01*
X207047931Y-109618011D01*
X207025879Y-109694954D01*
X206938249Y-109797150D01*
X206809871Y-109903492D01*
X206665575Y-109992878D01*
X206553020Y-110038654D01*
X206454984Y-110051856D01*
X206270997Y-110063452D01*
X206016700Y-110072970D01*
X205707734Y-110079942D01*
X205359742Y-110083895D01*
X205028800Y-110084492D01*
X204557747Y-110081455D01*
X204177892Y-110074250D01*
X203878870Y-110061542D01*
X203650320Y-110041994D01*
X203481876Y-110014271D01*
X203363176Y-109977036D01*
X203283857Y-109928953D01*
X203233556Y-109868687D01*
X203224457Y-109851875D01*
X203171112Y-109744876D01*
X203033072Y-109863613D01*
X202937074Y-109934644D01*
X202825487Y-109989338D01*
X202684359Y-110029701D01*
X202499742Y-110057739D01*
X202257684Y-110075458D01*
X201944236Y-110084866D01*
X201545447Y-110087967D01*
X201472800Y-110088012D01*
X200979520Y-110084247D01*
X200575063Y-110071511D01*
X200246873Y-110047490D01*
X199982390Y-110009869D01*
X199769056Y-109956333D01*
X199594314Y-109884568D01*
X199445605Y-109792258D01*
X199326500Y-109692376D01*
X199231777Y-109615724D01*
X199190385Y-109616092D01*
X199186800Y-109637871D01*
X199143583Y-109740412D01*
X199031853Y-109855673D01*
X198878492Y-109961410D01*
X198710380Y-110035380D01*
X198704200Y-110037226D01*
X198550145Y-110063066D01*
X198305854Y-110078568D01*
X197982208Y-110083258D01*
X197721779Y-110080017D01*
X197424676Y-110073082D01*
X197211945Y-110065183D01*
X197066376Y-110053452D01*
X196970761Y-110035018D01*
X196907890Y-110007011D01*
X196860552Y-109966560D01*
X196829006Y-109931124D01*
X196748298Y-109845381D01*
X196691005Y-109830665D01*
X196615660Y-109879822D01*
X196600860Y-109891758D01*
X196471990Y-109969197D01*
X196312877Y-110032565D01*
X196299834Y-110036331D01*
X196162153Y-110059376D01*
X195954978Y-110075603D01*
X195700808Y-110085172D01*
X195422141Y-110088244D01*
X195141477Y-110084978D01*
X194881313Y-110075533D01*
X194664148Y-110060070D01*
X194512481Y-110038749D01*
X194462400Y-110023272D01*
X194365600Y-109939664D01*
X194325200Y-109807180D01*
X194340741Y-109614389D01*
X194411764Y-109349863D01*
X194432772Y-109286796D01*
X194559160Y-108916712D01*
X194445313Y-109007396D01*
X194360117Y-109077098D01*
X194218997Y-109194482D01*
X194043534Y-109341537D01*
X193901633Y-109461098D01*
X193611733Y-109696998D01*
X193372350Y-109867930D01*
X193164638Y-109983166D01*
X192969753Y-110051976D01*
X192768849Y-110083634D01*
X192626033Y-110088680D01*
X192452854Y-110083189D01*
X192328216Y-110068766D01*
X192278088Y-110048477D01*
X192278000Y-110047548D01*
X192293993Y-109988053D01*
X192338249Y-109849580D01*
X192405181Y-109648952D01*
X192489203Y-109402985D01*
X192556413Y-109209348D01*
X192834827Y-108412279D01*
X192099213Y-108412279D01*
X191838963Y-108413423D01*
X191619162Y-108416570D01*
X191457683Y-108421291D01*
X191372399Y-108427161D01*
X191363600Y-108429875D01*
X191383979Y-108482296D01*
X191434171Y-108588758D01*
X191445724Y-108612092D01*
X191514002Y-108856149D01*
X191500151Y-109123556D01*
X191412336Y-109391090D01*
X191258727Y-109635532D01*
X191047492Y-109833659D01*
X191006382Y-109861100D01*
X190700440Y-110006979D01*
X190349919Y-110096788D01*
X189978400Y-110131086D01*
X189609463Y-110110433D01*
X189266691Y-110035390D01*
X188973663Y-109906516D01*
X188838454Y-109809635D01*
X188652675Y-109649042D01*
X188510246Y-109811260D01*
X188401316Y-109913945D01*
X188270308Y-109989311D01*
X188101670Y-110040506D01*
X187879851Y-110070678D01*
X187589301Y-110082977D01*
X187214468Y-110080551D01*
X187183497Y-110079885D01*
X186891152Y-110072337D01*
X186682600Y-110063063D01*
X186540042Y-110049372D01*
X186445675Y-110028572D01*
X186381698Y-109997971D01*
X186330310Y-109954880D01*
X186325565Y-109950167D01*
X186256938Y-109857549D01*
X186225070Y-109742405D01*
X186231272Y-109588761D01*
X186276857Y-109380645D01*
X186363136Y-109102082D01*
X186405321Y-108978863D01*
X186479290Y-108764744D01*
X186538936Y-108588740D01*
X186577423Y-108471246D01*
X186588400Y-108432763D01*
X186542077Y-108422275D01*
X186420997Y-108414889D01*
X186262143Y-108412279D01*
X185935886Y-108412279D01*
X185753122Y-108882180D01*
X185671529Y-109088164D01*
X185600506Y-109260554D01*
X185549887Y-109375827D01*
X185533279Y-109407975D01*
X185415786Y-109505270D01*
X185233118Y-109566494D01*
X185080439Y-109581001D01*
X184938339Y-109596261D01*
X184850002Y-109657637D01*
X184802124Y-109729808D01*
X184737247Y-109831127D01*
X184663183Y-109909706D01*
X184566827Y-109968396D01*
X184435077Y-110010046D01*
X184254829Y-110037509D01*
X184012980Y-110053634D01*
X183696426Y-110061273D01*
X183292065Y-110063276D01*
X183269342Y-110063280D01*
X182160084Y-110063280D01*
X182042528Y-109926660D01*
X181961224Y-109838934D01*
X181909648Y-109822433D01*
X181852232Y-109870544D01*
X181836070Y-109888274D01*
X181697451Y-109986391D01*
X181484987Y-110050663D01*
X181189522Y-110083213D01*
X180972215Y-110088396D01*
X180563031Y-110088680D01*
X180343926Y-110555182D01*
X180113073Y-110972258D01*
X179857509Y-111294065D01*
X179578622Y-111519136D01*
X179322291Y-111633881D01*
X178982081Y-111703426D01*
X178695116Y-111692533D01*
X178534081Y-111642824D01*
X178398062Y-111557913D01*
X178262642Y-111435729D01*
X178241981Y-111412315D01*
X178155873Y-111288093D01*
X178114933Y-111154442D01*
X178104800Y-110972150D01*
X178117655Y-110862580D01*
X178816000Y-110862580D01*
X178839156Y-111011127D01*
X178897591Y-111119275D01*
X178965860Y-111155348D01*
X178993981Y-111110777D01*
X179045354Y-110991769D01*
X179110850Y-110820186D01*
X179140884Y-110736248D01*
X179210117Y-110539400D01*
X179267859Y-110375884D01*
X179304807Y-110272022D01*
X179311419Y-110253780D01*
X179308134Y-110196629D01*
X179248660Y-110196276D01*
X179155917Y-110245764D01*
X179060311Y-110329980D01*
X178907303Y-110524884D01*
X178831401Y-110709970D01*
X178816000Y-110862580D01*
X178117655Y-110862580D01*
X178142395Y-110651710D01*
X178249182Y-110371963D01*
X178370079Y-110203673D01*
X178478110Y-110088680D01*
X178349835Y-110088680D01*
X178129532Y-110055018D01*
X177943661Y-109964409D01*
X177824728Y-109833380D01*
X177750943Y-109690696D01*
X177581909Y-109859730D01*
X177489061Y-109941124D01*
X177385489Y-110001755D01*
X177255880Y-110044072D01*
X177084920Y-110070524D01*
X176857294Y-110083559D01*
X176557689Y-110085624D01*
X176204618Y-110079926D01*
X175912929Y-110072989D01*
X175705576Y-110065102D01*
X175565319Y-110053225D01*
X175474915Y-110034315D01*
X175417122Y-110005330D01*
X175374700Y-109963229D01*
X175348287Y-109928846D01*
X175248026Y-109794413D01*
X175025920Y-109950968D01*
X174760163Y-110085460D01*
X174476241Y-110138842D01*
X174196533Y-110112958D01*
X173943418Y-110009655D01*
X173751631Y-109845875D01*
X173640262Y-109713363D01*
X173503530Y-109850094D01*
X173393750Y-109940042D01*
X173260145Y-110005528D01*
X173086997Y-110049345D01*
X172858585Y-110074284D01*
X172559190Y-110083134D01*
X172211195Y-110079547D01*
X171912616Y-110071606D01*
X171698292Y-110061274D01*
X171550880Y-110046264D01*
X171453033Y-110024289D01*
X171387408Y-109993065D01*
X171353573Y-109966506D01*
X171277633Y-109857087D01*
X171251008Y-109702930D01*
X171274542Y-109492426D01*
X171349083Y-109213971D01*
X171424599Y-108992940D01*
X171498904Y-108783553D01*
X171557966Y-108609277D01*
X171594370Y-108492470D01*
X171602399Y-108457020D01*
X171556110Y-108434040D01*
X171435187Y-108417897D01*
X171278575Y-108412279D01*
X170954750Y-108412279D01*
X170764706Y-108918930D01*
X170679331Y-109134350D01*
X170598581Y-109316714D01*
X170533137Y-109443009D01*
X170501251Y-109486506D01*
X170425423Y-109518303D01*
X170295624Y-109547650D01*
X170143900Y-109570488D01*
X170002298Y-109582758D01*
X169902866Y-109580402D01*
X169875199Y-109565792D01*
X169891364Y-109509890D01*
X169935324Y-109378385D01*
X170000274Y-109191199D01*
X170075667Y-108978707D01*
X170276135Y-108419091D01*
X170104485Y-108317815D01*
X169948995Y-108178251D01*
X169880060Y-108025404D01*
X169849389Y-107764253D01*
X169910574Y-107543002D01*
X170061151Y-107363783D01*
X170298656Y-107228729D01*
X170620627Y-107139971D01*
X170945680Y-107103246D01*
X171397915Y-107077460D01*
X171271557Y-107448968D01*
X171211335Y-107631127D01*
X171166703Y-107775845D01*
X171145812Y-107856450D01*
X171145200Y-107862377D01*
X171193253Y-107876102D01*
X171326440Y-107887941D01*
X171528298Y-107897097D01*
X171782367Y-107902775D01*
X172012223Y-107904279D01*
X172879246Y-107904279D01*
X172843993Y-108018579D01*
X172815050Y-108106411D01*
X172759669Y-108269458D01*
X172684938Y-108487028D01*
X172597943Y-108738428D01*
X172565631Y-108831380D01*
X172322522Y-109529880D01*
X173583600Y-109529880D01*
X173584589Y-109270753D01*
X174807523Y-109270753D01*
X174837874Y-109413321D01*
X174926135Y-109493337D01*
X175075109Y-109519523D01*
X175151485Y-109516941D01*
X175226190Y-109508315D01*
X175282241Y-109484051D01*
X175330599Y-109427385D01*
X175382225Y-109321552D01*
X175448079Y-109149789D01*
X175516686Y-108958380D01*
X175711003Y-108412280D01*
X175015895Y-108412280D01*
X174909347Y-108763066D01*
X174832282Y-109056909D01*
X174807523Y-109270753D01*
X173584589Y-109270753D01*
X173584715Y-109237780D01*
X173634201Y-108893574D01*
X173776097Y-108583807D01*
X174004672Y-108316634D01*
X174314195Y-108100214D01*
X174421800Y-108046486D01*
X174509115Y-108008921D01*
X174596738Y-107980071D01*
X174699687Y-107958543D01*
X174832982Y-107942949D01*
X175011643Y-107931896D01*
X175250688Y-107923994D01*
X175565139Y-107917853D01*
X175856900Y-107913602D01*
X176191079Y-107910403D01*
X176488584Y-107910142D01*
X176735314Y-107912619D01*
X176917169Y-107917630D01*
X177020047Y-107924977D01*
X177038000Y-107930451D01*
X177021864Y-107984676D01*
X176978158Y-108114516D01*
X176913928Y-108300063D01*
X176836223Y-108521411D01*
X176752090Y-108758654D01*
X176668578Y-108991886D01*
X176592735Y-109201200D01*
X176531608Y-109366691D01*
X176502630Y-109442542D01*
X176494698Y-109479635D01*
X176515580Y-109504308D01*
X176580571Y-109518469D01*
X176704960Y-109524026D01*
X176904042Y-109522886D01*
X177113450Y-109518742D01*
X177759770Y-109504480D01*
X178045790Y-108704379D01*
X178331809Y-107904279D01*
X179512632Y-107904279D01*
X179372468Y-108297979D01*
X179282969Y-108547670D01*
X179179658Y-108833388D01*
X179083969Y-109095869D01*
X179078500Y-109110780D01*
X178924697Y-109529880D01*
X179565847Y-109529880D01*
X179845009Y-108729780D01*
X180124170Y-107929680D01*
X180720759Y-107915315D01*
X180974174Y-107910250D01*
X181141861Y-107911009D01*
X181239627Y-107919740D01*
X181283276Y-107938591D01*
X181288615Y-107969710D01*
X181281474Y-107991515D01*
X181248247Y-108080454D01*
X181192134Y-108235794D01*
X181120139Y-108437632D01*
X181039263Y-108666064D01*
X180956509Y-108901188D01*
X180878878Y-109123100D01*
X180813373Y-109311898D01*
X180766997Y-109447678D01*
X180746750Y-109510537D01*
X180746400Y-109512411D01*
X180793975Y-109519062D01*
X180923807Y-109524548D01*
X181116553Y-109528329D01*
X181352872Y-109529869D01*
X181374474Y-109529880D01*
X182002549Y-109529880D01*
X182187274Y-109006039D01*
X182262167Y-108790639D01*
X182322474Y-108611444D01*
X182361216Y-108489561D01*
X182372000Y-108447239D01*
X182326331Y-108427154D01*
X182209752Y-108414512D01*
X182122086Y-108412280D01*
X181872173Y-108412280D01*
X181953581Y-108196380D01*
X182025516Y-108021460D01*
X182096820Y-107913786D01*
X182197773Y-107843818D01*
X182358656Y-107782019D01*
X182388609Y-107772032D01*
X182698087Y-107641889D01*
X182947473Y-107467418D01*
X183166499Y-107225439D01*
X183260492Y-107092243D01*
X183371469Y-106921021D01*
X183461437Y-106774331D01*
X183514046Y-106679022D01*
X183518879Y-106667887D01*
X183560124Y-106619624D01*
X183651886Y-106593371D01*
X183816458Y-106583860D01*
X183876035Y-106583479D01*
X184042659Y-106586500D01*
G37*
X184042659Y-106586500D02*
X184159813Y-106594390D01*
X184200800Y-106604657D01*
X184184663Y-106657951D01*
X184140744Y-106787301D01*
X184075775Y-106973209D01*
X183997600Y-107193079D01*
X183917804Y-107421648D01*
X183852735Y-107619106D01*
X183809308Y-107763694D01*
X183794400Y-107832302D01*
X183818067Y-107870735D01*
X183900342Y-107893282D01*
X184058138Y-107903125D01*
X184176704Y-107904280D01*
X184559009Y-107904280D01*
X184482890Y-108051477D01*
X184364538Y-108188611D01*
X184178476Y-108305625D01*
X183958537Y-108385697D01*
X183757150Y-108412280D01*
X183548778Y-108412280D01*
X183384729Y-108907580D01*
X183313606Y-109121657D01*
X183253070Y-109302652D01*
X183211086Y-109426817D01*
X183197305Y-109466380D01*
X183210795Y-109490786D01*
X183279208Y-109508481D01*
X183413484Y-109520312D01*
X183624564Y-109527126D01*
X183923388Y-109529770D01*
X184017564Y-109529880D01*
X184297479Y-109529004D01*
X184538126Y-109526579D01*
X184722818Y-109522909D01*
X184834865Y-109518300D01*
X184861200Y-109514490D01*
X184877477Y-109463561D01*
X184921697Y-109336791D01*
X184986944Y-109153773D01*
X185059579Y-108952600D01*
X185257959Y-108406100D01*
X185135803Y-108359656D01*
X185005686Y-108265510D01*
X184893571Y-108108696D01*
X184823164Y-107927986D01*
X184810779Y-107828080D01*
X184857646Y-107599835D01*
X184994506Y-107409694D01*
X185215753Y-107261366D01*
X185515778Y-107158562D01*
X185888974Y-107104992D01*
X185905184Y-107103936D01*
X186130701Y-107092478D01*
X186267271Y-107102610D01*
X186327359Y-107149786D01*
X186323433Y-107249457D01*
X186267958Y-107417074D01*
X186232825Y-107510035D01*
X186176595Y-107668654D01*
X186139697Y-107793213D01*
X186131225Y-107840780D01*
X186156225Y-107865199D01*
X186238338Y-107882977D01*
X186388197Y-107894889D01*
X186616440Y-107901713D01*
X186933700Y-107904225D01*
X187000235Y-107904279D01*
X187324441Y-107905665D01*
X187558943Y-107910454D01*
X187715608Y-107919596D01*
X187806303Y-107934039D01*
X187842895Y-107954732D01*
X187843401Y-107971692D01*
X187818495Y-108041210D01*
X187766879Y-108188435D01*
X187694952Y-108395019D01*
X187609108Y-108642613D01*
X187560052Y-108784492D01*
X187302572Y-109529879D01*
X187933443Y-109529880D01*
X188564314Y-109529880D01*
X188509798Y-109373494D01*
X188507679Y-109360061D01*
X189557896Y-109360061D01*
X189569135Y-109420735D01*
X189602834Y-109469904D01*
X189611124Y-109479217D01*
X189766778Y-109582411D01*
X189987169Y-109614576D01*
X190037013Y-109612908D01*
X190092954Y-109599953D01*
X190141969Y-109557325D01*
X190193092Y-109468827D01*
X190255355Y-109318261D01*
X190337792Y-109089432D01*
X190352483Y-109047280D01*
X190429175Y-108824043D01*
X190491952Y-108636326D01*
X190534063Y-108504659D01*
X190548770Y-108450380D01*
X190503354Y-108431512D01*
X190382017Y-108417886D01*
X190210407Y-108412298D01*
X190199389Y-108412280D01*
X189847978Y-108412280D01*
X189686208Y-108897855D01*
X189613705Y-109119735D01*
X189571844Y-109266765D01*
X189557896Y-109360061D01*
X188507679Y-109360061D01*
X188467863Y-109107776D01*
X188513304Y-108834599D01*
X188634786Y-108570565D01*
X188820975Y-108332276D01*
X189060536Y-108136332D01*
X189342134Y-107999335D01*
X189472961Y-107962763D01*
X189574448Y-107950843D01*
X189760109Y-107939344D01*
X190017287Y-107928421D01*
X190333325Y-107918230D01*
X190695566Y-107908926D01*
X191091353Y-107900664D01*
X191508029Y-107893601D01*
X191932938Y-107887891D01*
X192353421Y-107883690D01*
X192756823Y-107881154D01*
X193130485Y-107880437D01*
X193461752Y-107881696D01*
X193737966Y-107885085D01*
X193946470Y-107890761D01*
X194074607Y-107898879D01*
X194109282Y-107905814D01*
X194134221Y-107946373D01*
X194128622Y-108030755D01*
X194089258Y-108175580D01*
X194014888Y-108391954D01*
X193946428Y-108586484D01*
X193895223Y-108740614D01*
X193868303Y-108832721D01*
X193866341Y-108849063D01*
X193907584Y-108823377D01*
X194010958Y-108744740D01*
X194160720Y-108625453D01*
X194335400Y-108482558D01*
X194623595Y-108249886D01*
X194855274Y-108078326D01*
X195046985Y-107958394D01*
X195215281Y-107880610D01*
X195376712Y-107835490D01*
X195494962Y-107818214D01*
X195665775Y-107807235D01*
X195773411Y-107823637D01*
X195854345Y-107874995D01*
X195878357Y-107897837D01*
X195957419Y-108013944D01*
X195985754Y-108120180D01*
X195969300Y-108209262D01*
X195924729Y-108372229D01*
X195858459Y-108587418D01*
X195776912Y-108833165D01*
X195759456Y-108883725D01*
X195533804Y-109532970D01*
X196761688Y-109504480D01*
X197046592Y-108704379D01*
X197331496Y-107904279D01*
X197903548Y-107904279D01*
X198143791Y-107908345D01*
X198330254Y-107919571D01*
X198445777Y-107936501D01*
X198475600Y-107952816D01*
X198459318Y-108015059D01*
X198414351Y-108155486D01*
X198346514Y-108356721D01*
X198261623Y-108601387D01*
X198203565Y-108765616D01*
X197931531Y-109529880D01*
X199167883Y-109529880D01*
X199147452Y-109237780D01*
X199173705Y-108921408D01*
X199291661Y-108628150D01*
X199492105Y-108369377D01*
X199765821Y-108156461D01*
X200103592Y-108000772D01*
X200165949Y-107981043D01*
X200339782Y-107946035D01*
X200576290Y-107920973D01*
X200851745Y-107905901D01*
X201142421Y-107900859D01*
X201424592Y-107905888D01*
X201674530Y-107921030D01*
X201868509Y-107946326D01*
X201975778Y-107977883D01*
X202158782Y-108125667D01*
X202263149Y-108333367D01*
X202285600Y-108510399D01*
X202268657Y-108660827D01*
X202203582Y-108785145D01*
X202109660Y-108889632D01*
X201902903Y-109034011D01*
X201676735Y-109090356D01*
X201451772Y-109064017D01*
X201248630Y-108960342D01*
X201087927Y-108784680D01*
X201005943Y-108603280D01*
X200960752Y-108477912D01*
X200904675Y-108425432D01*
X200803712Y-108419791D01*
X200769895Y-108422438D01*
X200676770Y-108435674D01*
X200613715Y-108470202D01*
X200563344Y-108547638D01*
X200508273Y-108689601D01*
X200473898Y-108790475D01*
X200392419Y-109063697D01*
X200360109Y-109260136D01*
X200376611Y-109391721D01*
X200441571Y-109470383D01*
X200453460Y-109477292D01*
X200536733Y-109494106D01*
X200713127Y-109508057D01*
X200974196Y-109518834D01*
X201311494Y-109526123D01*
X201716574Y-109529613D01*
X201875860Y-109529880D01*
X202281423Y-109529242D01*
X202596378Y-109526902D01*
X202831710Y-109522224D01*
X202998405Y-109514567D01*
X203107450Y-109503293D01*
X203169830Y-109487765D01*
X203196532Y-109467343D01*
X203200000Y-109452933D01*
X203245550Y-109364707D01*
X203362720Y-109279153D01*
X203522290Y-109211341D01*
X203695037Y-109176339D01*
X203739983Y-109174469D01*
X203963692Y-109212177D01*
X204245913Y-109323931D01*
X204296367Y-109348722D01*
X204466143Y-109429141D01*
X204600465Y-109483437D01*
X204674545Y-109501804D01*
X204679777Y-109500415D01*
X204718412Y-109441301D01*
X204766817Y-109324408D01*
X204776473Y-109296207D01*
X204810017Y-109135307D01*
X204793245Y-108968072D01*
X204773578Y-108890515D01*
X204729440Y-108757279D01*
X204689642Y-108676949D01*
X204676102Y-108666280D01*
X204622430Y-108699728D01*
X204530152Y-108783392D01*
X204495400Y-108818680D01*
X204406270Y-108901924D01*
X204318371Y-108947432D01*
X204197067Y-108966037D01*
X204015995Y-108968636D01*
X203682600Y-108966192D01*
X204099265Y-108574936D01*
X204515931Y-108183680D01*
X204458037Y-107971399D01*
X204400142Y-107759118D01*
X204795445Y-107323699D01*
X204954869Y-107151935D01*
X205091279Y-107012112D01*
X205189543Y-106919272D01*
X205233467Y-106888279D01*
X205366178Y-106921326D01*
X205519099Y-107003431D01*
X205633521Y-107097946D01*
X205718740Y-107257769D01*
X205736451Y-107459813D01*
X205683566Y-107667734D01*
X205682193Y-107670770D01*
X205661310Y-107741720D01*
X205662417Y-107833271D01*
X205689202Y-107965268D01*
X205745357Y-108157558D01*
X205809193Y-108353970D01*
X205906312Y-108662904D01*
X205964956Y-108897923D01*
X205987157Y-109078284D01*
X205974948Y-109223247D01*
X205930363Y-109352071D01*
X205917331Y-109378386D01*
X205840662Y-109526647D01*
X206433886Y-109540963D01*
X206721622Y-109552151D01*
X206915106Y-109570035D01*
X207021517Y-109595518D01*
X207047931Y-109618011D01*
X207025879Y-109694954D01*
X206938249Y-109797150D01*
X206809871Y-109903492D01*
X206665575Y-109992878D01*
X206553020Y-110038654D01*
X206454984Y-110051856D01*
X206270997Y-110063452D01*
X206016700Y-110072970D01*
X205707734Y-110079942D01*
X205359742Y-110083895D01*
X205028800Y-110084492D01*
X204557747Y-110081455D01*
X204177892Y-110074250D01*
X203878870Y-110061542D01*
X203650320Y-110041994D01*
X203481876Y-110014271D01*
X203363176Y-109977036D01*
X203283857Y-109928953D01*
X203233556Y-109868687D01*
X203224457Y-109851875D01*
X203171112Y-109744876D01*
X203033072Y-109863613D01*
X202937074Y-109934644D01*
X202825487Y-109989338D01*
X202684359Y-110029701D01*
X202499742Y-110057739D01*
X202257684Y-110075458D01*
X201944236Y-110084866D01*
X201545447Y-110087967D01*
X201472800Y-110088012D01*
X200979520Y-110084247D01*
X200575063Y-110071511D01*
X200246873Y-110047490D01*
X199982390Y-110009869D01*
X199769056Y-109956333D01*
X199594314Y-109884568D01*
X199445605Y-109792258D01*
X199326500Y-109692376D01*
X199231777Y-109615724D01*
X199190385Y-109616092D01*
X199186800Y-109637871D01*
X199143583Y-109740412D01*
X199031853Y-109855673D01*
X198878492Y-109961410D01*
X198710380Y-110035380D01*
X198704200Y-110037226D01*
X198550145Y-110063066D01*
X198305854Y-110078568D01*
X197982208Y-110083258D01*
X197721779Y-110080017D01*
X197424676Y-110073082D01*
X197211945Y-110065183D01*
X197066376Y-110053452D01*
X196970761Y-110035018D01*
X196907890Y-110007011D01*
X196860552Y-109966560D01*
X196829006Y-109931124D01*
X196748298Y-109845381D01*
X196691005Y-109830665D01*
X196615660Y-109879822D01*
X196600860Y-109891758D01*
X196471990Y-109969197D01*
X196312877Y-110032565D01*
X196299834Y-110036331D01*
X196162153Y-110059376D01*
X195954978Y-110075603D01*
X195700808Y-110085172D01*
X195422141Y-110088244D01*
X195141477Y-110084978D01*
X194881313Y-110075533D01*
X194664148Y-110060070D01*
X194512481Y-110038749D01*
X194462400Y-110023272D01*
X194365600Y-109939664D01*
X194325200Y-109807180D01*
X194340741Y-109614389D01*
X194411764Y-109349863D01*
X194432772Y-109286796D01*
X194559160Y-108916712D01*
X194445313Y-109007396D01*
X194360117Y-109077098D01*
X194218997Y-109194482D01*
X194043534Y-109341537D01*
X193901633Y-109461098D01*
X193611733Y-109696998D01*
X193372350Y-109867930D01*
X193164638Y-109983166D01*
X192969753Y-110051976D01*
X192768849Y-110083634D01*
X192626033Y-110088680D01*
X192452854Y-110083189D01*
X192328216Y-110068766D01*
X192278088Y-110048477D01*
X192278000Y-110047548D01*
X192293993Y-109988053D01*
X192338249Y-109849580D01*
X192405181Y-109648952D01*
X192489203Y-109402985D01*
X192556413Y-109209348D01*
X192834827Y-108412279D01*
X192099213Y-108412279D01*
X191838963Y-108413423D01*
X191619162Y-108416570D01*
X191457683Y-108421291D01*
X191372399Y-108427161D01*
X191363600Y-108429875D01*
X191383979Y-108482296D01*
X191434171Y-108588758D01*
X191445724Y-108612092D01*
X191514002Y-108856149D01*
X191500151Y-109123556D01*
X191412336Y-109391090D01*
X191258727Y-109635532D01*
X191047492Y-109833659D01*
X191006382Y-109861100D01*
X190700440Y-110006979D01*
X190349919Y-110096788D01*
X189978400Y-110131086D01*
X189609463Y-110110433D01*
X189266691Y-110035390D01*
X188973663Y-109906516D01*
X188838454Y-109809635D01*
X188652675Y-109649042D01*
X188510246Y-109811260D01*
X188401316Y-109913945D01*
X188270308Y-109989311D01*
X188101670Y-110040506D01*
X187879851Y-110070678D01*
X187589301Y-110082977D01*
X187214468Y-110080551D01*
X187183497Y-110079885D01*
X186891152Y-110072337D01*
X186682600Y-110063063D01*
X186540042Y-110049372D01*
X186445675Y-110028572D01*
X186381698Y-109997971D01*
X186330310Y-109954880D01*
X186325565Y-109950167D01*
X186256938Y-109857549D01*
X186225070Y-109742405D01*
X186231272Y-109588761D01*
X186276857Y-109380645D01*
X186363136Y-109102082D01*
X186405321Y-108978863D01*
X186479290Y-108764744D01*
X186538936Y-108588740D01*
X186577423Y-108471246D01*
X186588400Y-108432763D01*
X186542077Y-108422275D01*
X186420997Y-108414889D01*
X186262143Y-108412279D01*
X185935886Y-108412279D01*
X185753122Y-108882180D01*
X185671529Y-109088164D01*
X185600506Y-109260554D01*
X185549887Y-109375827D01*
X185533279Y-109407975D01*
X185415786Y-109505270D01*
X185233118Y-109566494D01*
X185080439Y-109581001D01*
X184938339Y-109596261D01*
X184850002Y-109657637D01*
X184802124Y-109729808D01*
X184737247Y-109831127D01*
X184663183Y-109909706D01*
X184566827Y-109968396D01*
X184435077Y-110010046D01*
X184254829Y-110037509D01*
X184012980Y-110053634D01*
X183696426Y-110061273D01*
X183292065Y-110063276D01*
X183269342Y-110063280D01*
X182160084Y-110063280D01*
X182042528Y-109926660D01*
X181961224Y-109838934D01*
X181909648Y-109822433D01*
X181852232Y-109870544D01*
X181836070Y-109888274D01*
X181697451Y-109986391D01*
X181484987Y-110050663D01*
X181189522Y-110083213D01*
X180972215Y-110088396D01*
X180563031Y-110088680D01*
X180343926Y-110555182D01*
X180113073Y-110972258D01*
X179857509Y-111294065D01*
X179578622Y-111519136D01*
X179322291Y-111633881D01*
X178982081Y-111703426D01*
X178695116Y-111692533D01*
X178534081Y-111642824D01*
X178398062Y-111557913D01*
X178262642Y-111435729D01*
X178241981Y-111412315D01*
X178155873Y-111288093D01*
X178114933Y-111154442D01*
X178104800Y-110972150D01*
X178117655Y-110862580D01*
X178816000Y-110862580D01*
X178839156Y-111011127D01*
X178897591Y-111119275D01*
X178965860Y-111155348D01*
X178993981Y-111110777D01*
X179045354Y-110991769D01*
X179110850Y-110820186D01*
X179140884Y-110736248D01*
X179210117Y-110539400D01*
X179267859Y-110375884D01*
X179304807Y-110272022D01*
X179311419Y-110253780D01*
X179308134Y-110196629D01*
X179248660Y-110196276D01*
X179155917Y-110245764D01*
X179060311Y-110329980D01*
X178907303Y-110524884D01*
X178831401Y-110709970D01*
X178816000Y-110862580D01*
X178117655Y-110862580D01*
X178142395Y-110651710D01*
X178249182Y-110371963D01*
X178370079Y-110203673D01*
X178478110Y-110088680D01*
X178349835Y-110088680D01*
X178129532Y-110055018D01*
X177943661Y-109964409D01*
X177824728Y-109833380D01*
X177750943Y-109690696D01*
X177581909Y-109859730D01*
X177489061Y-109941124D01*
X177385489Y-110001755D01*
X177255880Y-110044072D01*
X177084920Y-110070524D01*
X176857294Y-110083559D01*
X176557689Y-110085624D01*
X176204618Y-110079926D01*
X175912929Y-110072989D01*
X175705576Y-110065102D01*
X175565319Y-110053225D01*
X175474915Y-110034315D01*
X175417122Y-110005330D01*
X175374700Y-109963229D01*
X175348287Y-109928846D01*
X175248026Y-109794413D01*
X175025920Y-109950968D01*
X174760163Y-110085460D01*
X174476241Y-110138842D01*
X174196533Y-110112958D01*
X173943418Y-110009655D01*
X173751631Y-109845875D01*
X173640262Y-109713363D01*
X173503530Y-109850094D01*
X173393750Y-109940042D01*
X173260145Y-110005528D01*
X173086997Y-110049345D01*
X172858585Y-110074284D01*
X172559190Y-110083134D01*
X172211195Y-110079547D01*
X171912616Y-110071606D01*
X171698292Y-110061274D01*
X171550880Y-110046264D01*
X171453033Y-110024289D01*
X171387408Y-109993065D01*
X171353573Y-109966506D01*
X171277633Y-109857087D01*
X171251008Y-109702930D01*
X171274542Y-109492426D01*
X171349083Y-109213971D01*
X171424599Y-108992940D01*
X171498904Y-108783553D01*
X171557966Y-108609277D01*
X171594370Y-108492470D01*
X171602399Y-108457020D01*
X171556110Y-108434040D01*
X171435187Y-108417897D01*
X171278575Y-108412279D01*
X170954750Y-108412279D01*
X170764706Y-108918930D01*
X170679331Y-109134350D01*
X170598581Y-109316714D01*
X170533137Y-109443009D01*
X170501251Y-109486506D01*
X170425423Y-109518303D01*
X170295624Y-109547650D01*
X170143900Y-109570488D01*
X170002298Y-109582758D01*
X169902866Y-109580402D01*
X169875199Y-109565792D01*
X169891364Y-109509890D01*
X169935324Y-109378385D01*
X170000274Y-109191199D01*
X170075667Y-108978707D01*
X170276135Y-108419091D01*
X170104485Y-108317815D01*
X169948995Y-108178251D01*
X169880060Y-108025404D01*
X169849389Y-107764253D01*
X169910574Y-107543002D01*
X170061151Y-107363783D01*
X170298656Y-107228729D01*
X170620627Y-107139971D01*
X170945680Y-107103246D01*
X171397915Y-107077460D01*
X171271557Y-107448968D01*
X171211335Y-107631127D01*
X171166703Y-107775845D01*
X171145812Y-107856450D01*
X171145200Y-107862377D01*
X171193253Y-107876102D01*
X171326440Y-107887941D01*
X171528298Y-107897097D01*
X171782367Y-107902775D01*
X172012223Y-107904279D01*
X172879246Y-107904279D01*
X172843993Y-108018579D01*
X172815050Y-108106411D01*
X172759669Y-108269458D01*
X172684938Y-108487028D01*
X172597943Y-108738428D01*
X172565631Y-108831380D01*
X172322522Y-109529880D01*
X173583600Y-109529880D01*
X173584589Y-109270753D01*
X174807523Y-109270753D01*
X174837874Y-109413321D01*
X174926135Y-109493337D01*
X175075109Y-109519523D01*
X175151485Y-109516941D01*
X175226190Y-109508315D01*
X175282241Y-109484051D01*
X175330599Y-109427385D01*
X175382225Y-109321552D01*
X175448079Y-109149789D01*
X175516686Y-108958380D01*
X175711003Y-108412280D01*
X175015895Y-108412280D01*
X174909347Y-108763066D01*
X174832282Y-109056909D01*
X174807523Y-109270753D01*
X173584589Y-109270753D01*
X173584715Y-109237780D01*
X173634201Y-108893574D01*
X173776097Y-108583807D01*
X174004672Y-108316634D01*
X174314195Y-108100214D01*
X174421800Y-108046486D01*
X174509115Y-108008921D01*
X174596738Y-107980071D01*
X174699687Y-107958543D01*
X174832982Y-107942949D01*
X175011643Y-107931896D01*
X175250688Y-107923994D01*
X175565139Y-107917853D01*
X175856900Y-107913602D01*
X176191079Y-107910403D01*
X176488584Y-107910142D01*
X176735314Y-107912619D01*
X176917169Y-107917630D01*
X177020047Y-107924977D01*
X177038000Y-107930451D01*
X177021864Y-107984676D01*
X176978158Y-108114516D01*
X176913928Y-108300063D01*
X176836223Y-108521411D01*
X176752090Y-108758654D01*
X176668578Y-108991886D01*
X176592735Y-109201200D01*
X176531608Y-109366691D01*
X176502630Y-109442542D01*
X176494698Y-109479635D01*
X176515580Y-109504308D01*
X176580571Y-109518469D01*
X176704960Y-109524026D01*
X176904042Y-109522886D01*
X177113450Y-109518742D01*
X177759770Y-109504480D01*
X178045790Y-108704379D01*
X178331809Y-107904279D01*
X179512632Y-107904279D01*
X179372468Y-108297979D01*
X179282969Y-108547670D01*
X179179658Y-108833388D01*
X179083969Y-109095869D01*
X179078500Y-109110780D01*
X178924697Y-109529880D01*
X179565847Y-109529880D01*
X179845009Y-108729780D01*
X180124170Y-107929680D01*
X180720759Y-107915315D01*
X180974174Y-107910250D01*
X181141861Y-107911009D01*
X181239627Y-107919740D01*
X181283276Y-107938591D01*
X181288615Y-107969710D01*
X181281474Y-107991515D01*
X181248247Y-108080454D01*
X181192134Y-108235794D01*
X181120139Y-108437632D01*
X181039263Y-108666064D01*
X180956509Y-108901188D01*
X180878878Y-109123100D01*
X180813373Y-109311898D01*
X180766997Y-109447678D01*
X180746750Y-109510537D01*
X180746400Y-109512411D01*
X180793975Y-109519062D01*
X180923807Y-109524548D01*
X181116553Y-109528329D01*
X181352872Y-109529869D01*
X181374474Y-109529880D01*
X182002549Y-109529880D01*
X182187274Y-109006039D01*
X182262167Y-108790639D01*
X182322474Y-108611444D01*
X182361216Y-108489561D01*
X182372000Y-108447239D01*
X182326331Y-108427154D01*
X182209752Y-108414512D01*
X182122086Y-108412280D01*
X181872173Y-108412280D01*
X181953581Y-108196380D01*
X182025516Y-108021460D01*
X182096820Y-107913786D01*
X182197773Y-107843818D01*
X182358656Y-107782019D01*
X182388609Y-107772032D01*
X182698087Y-107641889D01*
X182947473Y-107467418D01*
X183166499Y-107225439D01*
X183260492Y-107092243D01*
X183371469Y-106921021D01*
X183461437Y-106774331D01*
X183514046Y-106679022D01*
X183518879Y-106667887D01*
X183560124Y-106619624D01*
X183651886Y-106593371D01*
X183816458Y-106583860D01*
X183876035Y-106583479D01*
X184042659Y-106586500D01*
G36*
X206992580Y-111257415D02*
G01*
X206962347Y-111508197D01*
X206930503Y-111673337D01*
X206891607Y-111768718D01*
X206840218Y-111810226D01*
X206801292Y-111815880D01*
X206729640Y-111788508D01*
X206705617Y-111691015D01*
X206705200Y-111666787D01*
X206674577Y-111448726D01*
X206590411Y-111281286D01*
X206504150Y-111207431D01*
X206398970Y-111173065D01*
X206232388Y-111140793D01*
X206078954Y-111121640D01*
X205758069Y-111091675D01*
X205627167Y-111695077D01*
X205578338Y-111928889D01*
X205541160Y-112124062D01*
X205519170Y-112260701D01*
X205515904Y-112318911D01*
X205516205Y-112319319D01*
X205572593Y-112319359D01*
X205688640Y-112293869D01*
X205729802Y-112282137D01*
X205889616Y-112205153D01*
X206009761Y-112067755D01*
X206038180Y-112019998D01*
X206148198Y-111869414D01*
X206253085Y-111815944D01*
X206256685Y-111815880D01*
X206332373Y-111840407D01*
X206335170Y-111881810D01*
X206315222Y-111955855D01*
X206280343Y-112106611D01*
X206235675Y-112311194D01*
X206192509Y-112516810D01*
X206138055Y-112768477D01*
X206094281Y-112935498D01*
X206055459Y-113033492D01*
X206015859Y-113078078D01*
X205983774Y-113085880D01*
X205918854Y-113060200D01*
X205893964Y-112967485D01*
X205892400Y-112913707D01*
X205852778Y-112725660D01*
X205746438Y-112585505D01*
X205592163Y-112517804D01*
X205589346Y-112517436D01*
X205531103Y-112515827D01*
X205488253Y-112539987D01*
X205452181Y-112607428D01*
X205414275Y-112735663D01*
X205365921Y-112942204D01*
X205353830Y-112996281D01*
X205302329Y-113230157D01*
X205255788Y-113446580D01*
X205221125Y-113613160D01*
X205210082Y-113669381D01*
X205176596Y-113847880D01*
X205470998Y-113846764D01*
X205812202Y-113802518D01*
X206106101Y-113670791D01*
X206356813Y-113448931D01*
X206563137Y-113144184D01*
X206640283Y-113042805D01*
X206723603Y-112987830D01*
X206787302Y-112990129D01*
X206806800Y-113041491D01*
X206795764Y-113113858D01*
X206766232Y-113259246D01*
X206723565Y-113451916D01*
X206700967Y-113549491D01*
X206595134Y-114000280D01*
X205303967Y-114000280D01*
X204903609Y-113999603D01*
X204593771Y-113997138D01*
X204363379Y-113992230D01*
X204201359Y-113984226D01*
X204096636Y-113972473D01*
X204038138Y-113956317D01*
X204014790Y-113935104D01*
X204012800Y-113924080D01*
X204047822Y-113870061D01*
X204162678Y-113848765D01*
X204207639Y-113847880D01*
X204402479Y-113847880D01*
X204668411Y-112590580D01*
X204742457Y-112241070D01*
X204810758Y-111919766D01*
X204870132Y-111641553D01*
X204917396Y-111421312D01*
X204949369Y-111273928D01*
X204961678Y-111218980D01*
X204968599Y-111143756D01*
X204923807Y-111111535D01*
X204802583Y-111104680D01*
X204801473Y-111104680D01*
X204670339Y-111090975D01*
X204633195Y-111048848D01*
X204635070Y-111041180D01*
X204668632Y-111019333D01*
X204759225Y-111001829D01*
X204915889Y-110988088D01*
X205147665Y-110977532D01*
X205463591Y-110969582D01*
X205840440Y-110964025D01*
X207024673Y-110950371D01*
X206992580Y-111257415D01*
G37*
X206992580Y-111257415D02*
X206962347Y-111508197D01*
X206930503Y-111673337D01*
X206891607Y-111768718D01*
X206840218Y-111810226D01*
X206801292Y-111815880D01*
X206729640Y-111788508D01*
X206705617Y-111691015D01*
X206705200Y-111666787D01*
X206674577Y-111448726D01*
X206590411Y-111281286D01*
X206504150Y-111207431D01*
X206398970Y-111173065D01*
X206232388Y-111140793D01*
X206078954Y-111121640D01*
X205758069Y-111091675D01*
X205627167Y-111695077D01*
X205578338Y-111928889D01*
X205541160Y-112124062D01*
X205519170Y-112260701D01*
X205515904Y-112318911D01*
X205516205Y-112319319D01*
X205572593Y-112319359D01*
X205688640Y-112293869D01*
X205729802Y-112282137D01*
X205889616Y-112205153D01*
X206009761Y-112067755D01*
X206038180Y-112019998D01*
X206148198Y-111869414D01*
X206253085Y-111815944D01*
X206256685Y-111815880D01*
X206332373Y-111840407D01*
X206335170Y-111881810D01*
X206315222Y-111955855D01*
X206280343Y-112106611D01*
X206235675Y-112311194D01*
X206192509Y-112516810D01*
X206138055Y-112768477D01*
X206094281Y-112935498D01*
X206055459Y-113033492D01*
X206015859Y-113078078D01*
X205983774Y-113085880D01*
X205918854Y-113060200D01*
X205893964Y-112967485D01*
X205892400Y-112913707D01*
X205852778Y-112725660D01*
X205746438Y-112585505D01*
X205592163Y-112517804D01*
X205589346Y-112517436D01*
X205531103Y-112515827D01*
X205488253Y-112539987D01*
X205452181Y-112607428D01*
X205414275Y-112735663D01*
X205365921Y-112942204D01*
X205353830Y-112996281D01*
X205302329Y-113230157D01*
X205255788Y-113446580D01*
X205221125Y-113613160D01*
X205210082Y-113669381D01*
X205176596Y-113847880D01*
X205470998Y-113846764D01*
X205812202Y-113802518D01*
X206106101Y-113670791D01*
X206356813Y-113448931D01*
X206563137Y-113144184D01*
X206640283Y-113042805D01*
X206723603Y-112987830D01*
X206787302Y-112990129D01*
X206806800Y-113041491D01*
X206795764Y-113113858D01*
X206766232Y-113259246D01*
X206723565Y-113451916D01*
X206700967Y-113549491D01*
X206595134Y-114000280D01*
X205303967Y-114000280D01*
X204903609Y-113999603D01*
X204593771Y-113997138D01*
X204363379Y-113992230D01*
X204201359Y-113984226D01*
X204096636Y-113972473D01*
X204038138Y-113956317D01*
X204014790Y-113935104D01*
X204012800Y-113924080D01*
X204047822Y-113870061D01*
X204162678Y-113848765D01*
X204207639Y-113847880D01*
X204402479Y-113847880D01*
X204668411Y-112590580D01*
X204742457Y-112241070D01*
X204810758Y-111919766D01*
X204870132Y-111641553D01*
X204917396Y-111421312D01*
X204949369Y-111273928D01*
X204961678Y-111218980D01*
X204968599Y-111143756D01*
X204923807Y-111111535D01*
X204802583Y-111104680D01*
X204801473Y-111104680D01*
X204670339Y-111090975D01*
X204633195Y-111048848D01*
X204635070Y-111041180D01*
X204668632Y-111019333D01*
X204759225Y-111001829D01*
X204915889Y-110988088D01*
X205147665Y-110977532D01*
X205463591Y-110969582D01*
X205840440Y-110964025D01*
X207024673Y-110950371D01*
X206992580Y-111257415D01*
G36*
X201181178Y-110953730D02*
G01*
X201386521Y-110959070D01*
X201518960Y-110969783D01*
X201592833Y-110987351D01*
X201622472Y-111013257D01*
X201625200Y-111028480D01*
X201584517Y-111086166D01*
X201456940Y-111104679D01*
X201456093Y-111104680D01*
X201286987Y-111104680D01*
X201021073Y-112361980D01*
X200947017Y-112711492D01*
X200878681Y-113032798D01*
X200819251Y-113311012D01*
X200771914Y-113531253D01*
X200739855Y-113678635D01*
X200727472Y-113733580D01*
X200721449Y-113813210D01*
X200774044Y-113843839D01*
X200857692Y-113847880D01*
X200981063Y-113869004D01*
X201015600Y-113924080D01*
X201001578Y-113954346D01*
X200949957Y-113975589D01*
X200846401Y-113989289D01*
X200676577Y-113996931D01*
X200426149Y-113999997D01*
X200279000Y-114000280D01*
X199984588Y-113998683D01*
X199777801Y-113992970D01*
X199644702Y-113981757D01*
X199571352Y-113963661D01*
X199543814Y-113937298D01*
X199542400Y-113927146D01*
X199590684Y-113868733D01*
X199731985Y-113838322D01*
X199732898Y-113838246D01*
X199923397Y-113822480D01*
X200206265Y-112476280D01*
X200489132Y-111130080D01*
X200320566Y-111114313D01*
X200194431Y-111082104D01*
X200152000Y-111025413D01*
X200168082Y-110996182D01*
X200225620Y-110975651D01*
X200338553Y-110962437D01*
X200520818Y-110955154D01*
X200786354Y-110952420D01*
X200888600Y-110952280D01*
X201181178Y-110953730D01*
G37*
X201181178Y-110953730D02*
X201386521Y-110959070D01*
X201518960Y-110969783D01*
X201592833Y-110987351D01*
X201622472Y-111013257D01*
X201625200Y-111028480D01*
X201584517Y-111086166D01*
X201456940Y-111104679D01*
X201456093Y-111104680D01*
X201286987Y-111104680D01*
X201021073Y-112361980D01*
X200947017Y-112711492D01*
X200878681Y-113032798D01*
X200819251Y-113311012D01*
X200771914Y-113531253D01*
X200739855Y-113678635D01*
X200727472Y-113733580D01*
X200721449Y-113813210D01*
X200774044Y-113843839D01*
X200857692Y-113847880D01*
X200981063Y-113869004D01*
X201015600Y-113924080D01*
X201001578Y-113954346D01*
X200949957Y-113975589D01*
X200846401Y-113989289D01*
X200676577Y-113996931D01*
X200426149Y-113999997D01*
X200279000Y-114000280D01*
X199984588Y-113998683D01*
X199777801Y-113992970D01*
X199644702Y-113981757D01*
X199571352Y-113963661D01*
X199543814Y-113937298D01*
X199542400Y-113927146D01*
X199590684Y-113868733D01*
X199731985Y-113838322D01*
X199732898Y-113838246D01*
X199923397Y-113822480D01*
X200206265Y-112476280D01*
X200489132Y-111130080D01*
X200320566Y-111114313D01*
X200194431Y-111082104D01*
X200152000Y-111025413D01*
X200168082Y-110996182D01*
X200225620Y-110975651D01*
X200338553Y-110962437D01*
X200520818Y-110955154D01*
X200786354Y-110952420D01*
X200888600Y-110952280D01*
X201181178Y-110953730D01*
G36*
X198387178Y-110953730D02*
G01*
X198592521Y-110959070D01*
X198724960Y-110969783D01*
X198798833Y-110987351D01*
X198828472Y-111013257D01*
X198831200Y-111028480D01*
X198792644Y-111084838D01*
X198669593Y-111104542D01*
X198653400Y-111104680D01*
X198535807Y-111110920D01*
X198477109Y-111126262D01*
X198475600Y-111129490D01*
X198465543Y-111183824D01*
X198437192Y-111324356D01*
X198393277Y-111537885D01*
X198336528Y-111811206D01*
X198269675Y-112131118D01*
X198196200Y-112480842D01*
X198122056Y-112833591D01*
X198055308Y-113152553D01*
X197998681Y-113424586D01*
X197954903Y-113636546D01*
X197926701Y-113775289D01*
X197916800Y-113827632D01*
X197961643Y-113845090D01*
X198074984Y-113848074D01*
X198225033Y-113838414D01*
X198380003Y-113817938D01*
X198486722Y-113794844D01*
X198750716Y-113668974D01*
X198980878Y-113447692D01*
X199122556Y-113234441D01*
X199233208Y-113069507D01*
X199329470Y-112990157D01*
X199357824Y-112984331D01*
X199425554Y-113006825D01*
X199424866Y-113090360D01*
X199423224Y-113096801D01*
X199398597Y-113199438D01*
X199360359Y-113368041D01*
X199316061Y-113569209D01*
X199308351Y-113604801D01*
X199222903Y-114000280D01*
X197985651Y-114000280D01*
X197594627Y-113999564D01*
X197293896Y-113996955D01*
X197072157Y-113991755D01*
X196918112Y-113983269D01*
X196820461Y-113970801D01*
X196767903Y-113953655D01*
X196749138Y-113931134D01*
X196748400Y-113924080D01*
X196784286Y-113869475D01*
X196901219Y-113848476D01*
X196938900Y-113847813D01*
X197129400Y-113847747D01*
X197412520Y-112488913D01*
X197695641Y-111130080D01*
X197526820Y-111114313D01*
X197400502Y-111082129D01*
X197358000Y-111025413D01*
X197374082Y-110996182D01*
X197431620Y-110975651D01*
X197544553Y-110962437D01*
X197726818Y-110955154D01*
X197992354Y-110952420D01*
X198094600Y-110952280D01*
X198387178Y-110953730D01*
G37*
X198387178Y-110953730D02*
X198592521Y-110959070D01*
X198724960Y-110969783D01*
X198798833Y-110987351D01*
X198828472Y-111013257D01*
X198831200Y-111028480D01*
X198792644Y-111084838D01*
X198669593Y-111104542D01*
X198653400Y-111104680D01*
X198535807Y-111110920D01*
X198477109Y-111126262D01*
X198475600Y-111129490D01*
X198465543Y-111183824D01*
X198437192Y-111324356D01*
X198393277Y-111537885D01*
X198336528Y-111811206D01*
X198269675Y-112131118D01*
X198196200Y-112480842D01*
X198122056Y-112833591D01*
X198055308Y-113152553D01*
X197998681Y-113424586D01*
X197954903Y-113636546D01*
X197926701Y-113775289D01*
X197916800Y-113827632D01*
X197961643Y-113845090D01*
X198074984Y-113848074D01*
X198225033Y-113838414D01*
X198380003Y-113817938D01*
X198486722Y-113794844D01*
X198750716Y-113668974D01*
X198980878Y-113447692D01*
X199122556Y-113234441D01*
X199233208Y-113069507D01*
X199329470Y-112990157D01*
X199357824Y-112984331D01*
X199425554Y-113006825D01*
X199424866Y-113090360D01*
X199423224Y-113096801D01*
X199398597Y-113199438D01*
X199360359Y-113368041D01*
X199316061Y-113569209D01*
X199308351Y-113604801D01*
X199222903Y-114000280D01*
X197985651Y-114000280D01*
X197594627Y-113999564D01*
X197293896Y-113996955D01*
X197072157Y-113991755D01*
X196918112Y-113983269D01*
X196820461Y-113970801D01*
X196767903Y-113953655D01*
X196749138Y-113931134D01*
X196748400Y-113924080D01*
X196784286Y-113869475D01*
X196901219Y-113848476D01*
X196938900Y-113847813D01*
X197129400Y-113847747D01*
X197412520Y-112488913D01*
X197695641Y-111130080D01*
X197526820Y-111114313D01*
X197400502Y-111082129D01*
X197358000Y-111025413D01*
X197374082Y-110996182D01*
X197431620Y-110975651D01*
X197544553Y-110962437D01*
X197726818Y-110955154D01*
X197992354Y-110952420D01*
X198094600Y-110952280D01*
X198387178Y-110953730D01*
G36*
X195885738Y-110952958D02*
G01*
X196177743Y-110955509D01*
X196391474Y-110960705D01*
X196538590Y-110969319D01*
X196630752Y-110982123D01*
X196679620Y-110999890D01*
X196696854Y-111023393D01*
X196697600Y-111031394D01*
X196689650Y-111119302D01*
X196668804Y-111273940D01*
X196639561Y-111461942D01*
X196639355Y-111463194D01*
X196603234Y-111653211D01*
X196567546Y-111761844D01*
X196523727Y-111808912D01*
X196486955Y-111815880D01*
X196410298Y-111779563D01*
X196392800Y-111696460D01*
X196367711Y-111517139D01*
X196303478Y-111347548D01*
X196216653Y-111226779D01*
X196183975Y-111203270D01*
X196083830Y-111171467D01*
X195920594Y-111140773D01*
X195760266Y-111121053D01*
X195583400Y-111106795D01*
X195482616Y-111109963D01*
X195432998Y-111136933D01*
X195409629Y-111194085D01*
X195405412Y-111211890D01*
X195375194Y-111348084D01*
X195335463Y-111532081D01*
X195291348Y-111739473D01*
X195247977Y-111945854D01*
X195210477Y-112126817D01*
X195183978Y-112257956D01*
X195173608Y-112314864D01*
X195173600Y-112315151D01*
X195217001Y-112321039D01*
X195322755Y-112306684D01*
X195335366Y-112304226D01*
X195550373Y-112213799D01*
X195717789Y-112035909D01*
X195764305Y-111955699D01*
X195842785Y-111856600D01*
X195928529Y-111815880D01*
X195965316Y-111821946D01*
X195984901Y-111850839D01*
X195986190Y-111918593D01*
X195968089Y-112041247D01*
X195929504Y-112234837D01*
X195886065Y-112438073D01*
X195823295Y-112713604D01*
X195771717Y-112901910D01*
X195726796Y-113016145D01*
X195683998Y-113069460D01*
X195665839Y-113076798D01*
X195594025Y-113055291D01*
X195580000Y-112995585D01*
X195544068Y-112784688D01*
X195446233Y-112619604D01*
X195314077Y-112530535D01*
X195203567Y-112496707D01*
X195145714Y-112487968D01*
X195144411Y-112488750D01*
X195129290Y-112540842D01*
X195099115Y-112669680D01*
X195058702Y-112852373D01*
X195012873Y-113066033D01*
X194966445Y-113287766D01*
X194924239Y-113494684D01*
X194891073Y-113663896D01*
X194871766Y-113772510D01*
X194868800Y-113797888D01*
X194914245Y-113829002D01*
X195031711Y-113844256D01*
X195192895Y-113843838D01*
X195369493Y-113827935D01*
X195533201Y-113796734D01*
X195545495Y-113793416D01*
X195764274Y-113690492D01*
X195976439Y-113518584D01*
X196149576Y-113306975D01*
X196214194Y-113189267D01*
X196305983Y-113037546D01*
X196401044Y-112984403D01*
X196406022Y-112984280D01*
X196477888Y-113006471D01*
X196481252Y-113089632D01*
X196479289Y-113098580D01*
X196455610Y-113202022D01*
X196416902Y-113370967D01*
X196370846Y-113571890D01*
X196362893Y-113606580D01*
X196272623Y-114000280D01*
X194986511Y-114000280D01*
X194587020Y-113999599D01*
X194278029Y-113997121D01*
X194048441Y-113992187D01*
X193887164Y-113984140D01*
X193783103Y-113972323D01*
X193725162Y-113956079D01*
X193702247Y-113934749D01*
X193700400Y-113924080D01*
X193736401Y-113869409D01*
X193853611Y-113848297D01*
X193890900Y-113847607D01*
X194081400Y-113847334D01*
X194355814Y-112539507D01*
X194430264Y-112186399D01*
X194498802Y-111864592D01*
X194558423Y-111587925D01*
X194606127Y-111370236D01*
X194638909Y-111225363D01*
X194653349Y-111168180D01*
X194630769Y-111122169D01*
X194515468Y-111104909D01*
X194493235Y-111104680D01*
X194359593Y-111089150D01*
X194310776Y-111039111D01*
X194310000Y-111028480D01*
X194321741Y-111004010D01*
X194364627Y-110985291D01*
X194450150Y-110971590D01*
X194589802Y-110962173D01*
X194795075Y-110956307D01*
X195077461Y-110953257D01*
X195448454Y-110952290D01*
X195503800Y-110952280D01*
X195885738Y-110952958D01*
G37*
X195885738Y-110952958D02*
X196177743Y-110955509D01*
X196391474Y-110960705D01*
X196538590Y-110969319D01*
X196630752Y-110982123D01*
X196679620Y-110999890D01*
X196696854Y-111023393D01*
X196697600Y-111031394D01*
X196689650Y-111119302D01*
X196668804Y-111273940D01*
X196639561Y-111461942D01*
X196639355Y-111463194D01*
X196603234Y-111653211D01*
X196567546Y-111761844D01*
X196523727Y-111808912D01*
X196486955Y-111815880D01*
X196410298Y-111779563D01*
X196392800Y-111696460D01*
X196367711Y-111517139D01*
X196303478Y-111347548D01*
X196216653Y-111226779D01*
X196183975Y-111203270D01*
X196083830Y-111171467D01*
X195920594Y-111140773D01*
X195760266Y-111121053D01*
X195583400Y-111106795D01*
X195482616Y-111109963D01*
X195432998Y-111136933D01*
X195409629Y-111194085D01*
X195405412Y-111211890D01*
X195375194Y-111348084D01*
X195335463Y-111532081D01*
X195291348Y-111739473D01*
X195247977Y-111945854D01*
X195210477Y-112126817D01*
X195183978Y-112257956D01*
X195173608Y-112314864D01*
X195173600Y-112315151D01*
X195217001Y-112321039D01*
X195322755Y-112306684D01*
X195335366Y-112304226D01*
X195550373Y-112213799D01*
X195717789Y-112035909D01*
X195764305Y-111955699D01*
X195842785Y-111856600D01*
X195928529Y-111815880D01*
X195965316Y-111821946D01*
X195984901Y-111850839D01*
X195986190Y-111918593D01*
X195968089Y-112041247D01*
X195929504Y-112234837D01*
X195886065Y-112438073D01*
X195823295Y-112713604D01*
X195771717Y-112901910D01*
X195726796Y-113016145D01*
X195683998Y-113069460D01*
X195665839Y-113076798D01*
X195594025Y-113055291D01*
X195580000Y-112995585D01*
X195544068Y-112784688D01*
X195446233Y-112619604D01*
X195314077Y-112530535D01*
X195203567Y-112496707D01*
X195145714Y-112487968D01*
X195144411Y-112488750D01*
X195129290Y-112540842D01*
X195099115Y-112669680D01*
X195058702Y-112852373D01*
X195012873Y-113066033D01*
X194966445Y-113287766D01*
X194924239Y-113494684D01*
X194891073Y-113663896D01*
X194871766Y-113772510D01*
X194868800Y-113797888D01*
X194914245Y-113829002D01*
X195031711Y-113844256D01*
X195192895Y-113843838D01*
X195369493Y-113827935D01*
X195533201Y-113796734D01*
X195545495Y-113793416D01*
X195764274Y-113690492D01*
X195976439Y-113518584D01*
X196149576Y-113306975D01*
X196214194Y-113189267D01*
X196305983Y-113037546D01*
X196401044Y-112984403D01*
X196406022Y-112984280D01*
X196477888Y-113006471D01*
X196481252Y-113089632D01*
X196479289Y-113098580D01*
X196455610Y-113202022D01*
X196416902Y-113370967D01*
X196370846Y-113571890D01*
X196362893Y-113606580D01*
X196272623Y-114000280D01*
X194986511Y-114000280D01*
X194587020Y-113999599D01*
X194278029Y-113997121D01*
X194048441Y-113992187D01*
X193887164Y-113984140D01*
X193783103Y-113972323D01*
X193725162Y-113956079D01*
X193702247Y-113934749D01*
X193700400Y-113924080D01*
X193736401Y-113869409D01*
X193853611Y-113848297D01*
X193890900Y-113847607D01*
X194081400Y-113847334D01*
X194355814Y-112539507D01*
X194430264Y-112186399D01*
X194498802Y-111864592D01*
X194558423Y-111587925D01*
X194606127Y-111370236D01*
X194638909Y-111225363D01*
X194653349Y-111168180D01*
X194630769Y-111122169D01*
X194515468Y-111104909D01*
X194493235Y-111104680D01*
X194359593Y-111089150D01*
X194310776Y-111039111D01*
X194310000Y-111028480D01*
X194321741Y-111004010D01*
X194364627Y-110985291D01*
X194450150Y-110971590D01*
X194589802Y-110962173D01*
X194795075Y-110956307D01*
X195077461Y-110953257D01*
X195448454Y-110952290D01*
X195503800Y-110952280D01*
X195885738Y-110952958D01*
G36*
X203115783Y-110922725D02*
G01*
X203427516Y-111031370D01*
X203549954Y-111083450D01*
X203623691Y-111087853D01*
X203689458Y-111045118D01*
X203700811Y-111034985D01*
X203813341Y-110959153D01*
X203881772Y-110967979D01*
X203897045Y-111058760D01*
X203891885Y-111091980D01*
X203870660Y-111221580D01*
X203845818Y-111403008D01*
X203831195Y-111523780D01*
X203806061Y-111692935D01*
X203773563Y-111782459D01*
X203724078Y-111814293D01*
X203703114Y-111815880D01*
X203616190Y-111769658D01*
X203578864Y-111676180D01*
X203484784Y-111406998D01*
X203336128Y-111206891D01*
X203143243Y-111086241D01*
X202958603Y-111053880D01*
X202795423Y-111078793D01*
X202633551Y-111141468D01*
X202514523Y-111223803D01*
X202487727Y-111259083D01*
X202434812Y-111397716D01*
X202440924Y-111522665D01*
X202514092Y-111644561D01*
X202662347Y-111774037D01*
X202893716Y-111921728D01*
X203057458Y-112013568D01*
X203344998Y-112188037D01*
X203548208Y-112357480D01*
X203682253Y-112537441D01*
X203759624Y-112733342D01*
X203793661Y-113035273D01*
X203739363Y-113320182D01*
X203609834Y-113576711D01*
X203418181Y-113793502D01*
X203177511Y-113959198D01*
X202900928Y-114062442D01*
X202601539Y-114091874D01*
X202292449Y-114036139D01*
X202266539Y-114027249D01*
X202128465Y-113970080D01*
X202030273Y-113915320D01*
X202016399Y-113903799D01*
X201942102Y-113886969D01*
X201814779Y-113942550D01*
X201791488Y-113956594D01*
X201676988Y-114017262D01*
X201601978Y-114038448D01*
X201592181Y-114034995D01*
X201586465Y-113975711D01*
X201594285Y-113839994D01*
X201613906Y-113651857D01*
X201627468Y-113546600D01*
X201661142Y-113323555D01*
X201692008Y-113184212D01*
X201725823Y-113111037D01*
X201768347Y-113086496D01*
X201778783Y-113085880D01*
X201849795Y-113125105D01*
X201907100Y-113250538D01*
X201923612Y-113310158D01*
X202035837Y-113582936D01*
X202210452Y-113780538D01*
X202437174Y-113896417D01*
X202705719Y-113924023D01*
X202853654Y-113902411D01*
X203080132Y-113810562D01*
X203231040Y-113658091D01*
X203298629Y-113453781D01*
X203301600Y-113394774D01*
X203281297Y-113251449D01*
X203212093Y-113122299D01*
X203081544Y-112994356D01*
X202877208Y-112854651D01*
X202667760Y-112734195D01*
X202475239Y-112618447D01*
X202302847Y-112497157D01*
X202183119Y-112393553D01*
X202169700Y-112378607D01*
X202037953Y-112148437D01*
X201993263Y-111889226D01*
X202033323Y-111620272D01*
X202155827Y-111360871D01*
X202314088Y-111170834D01*
X202560728Y-110990457D01*
X202826415Y-110907947D01*
X203115783Y-110922725D01*
G37*
X203115783Y-110922725D02*
X203427516Y-111031370D01*
X203549954Y-111083450D01*
X203623691Y-111087853D01*
X203689458Y-111045118D01*
X203700811Y-111034985D01*
X203813341Y-110959153D01*
X203881772Y-110967979D01*
X203897045Y-111058760D01*
X203891885Y-111091980D01*
X203870660Y-111221580D01*
X203845818Y-111403008D01*
X203831195Y-111523780D01*
X203806061Y-111692935D01*
X203773563Y-111782459D01*
X203724078Y-111814293D01*
X203703114Y-111815880D01*
X203616190Y-111769658D01*
X203578864Y-111676180D01*
X203484784Y-111406998D01*
X203336128Y-111206891D01*
X203143243Y-111086241D01*
X202958603Y-111053880D01*
X202795423Y-111078793D01*
X202633551Y-111141468D01*
X202514523Y-111223803D01*
X202487727Y-111259083D01*
X202434812Y-111397716D01*
X202440924Y-111522665D01*
X202514092Y-111644561D01*
X202662347Y-111774037D01*
X202893716Y-111921728D01*
X203057458Y-112013568D01*
X203344998Y-112188037D01*
X203548208Y-112357480D01*
X203682253Y-112537441D01*
X203759624Y-112733342D01*
X203793661Y-113035273D01*
X203739363Y-113320182D01*
X203609834Y-113576711D01*
X203418181Y-113793502D01*
X203177511Y-113959198D01*
X202900928Y-114062442D01*
X202601539Y-114091874D01*
X202292449Y-114036139D01*
X202266539Y-114027249D01*
X202128465Y-113970080D01*
X202030273Y-113915320D01*
X202016399Y-113903799D01*
X201942102Y-113886969D01*
X201814779Y-113942550D01*
X201791488Y-113956594D01*
X201676988Y-114017262D01*
X201601978Y-114038448D01*
X201592181Y-114034995D01*
X201586465Y-113975711D01*
X201594285Y-113839994D01*
X201613906Y-113651857D01*
X201627468Y-113546600D01*
X201661142Y-113323555D01*
X201692008Y-113184212D01*
X201725823Y-113111037D01*
X201768347Y-113086496D01*
X201778783Y-113085880D01*
X201849795Y-113125105D01*
X201907100Y-113250538D01*
X201923612Y-113310158D01*
X202035837Y-113582936D01*
X202210452Y-113780538D01*
X202437174Y-113896417D01*
X202705719Y-113924023D01*
X202853654Y-113902411D01*
X203080132Y-113810562D01*
X203231040Y-113658091D01*
X203298629Y-113453781D01*
X203301600Y-113394774D01*
X203281297Y-113251449D01*
X203212093Y-113122299D01*
X203081544Y-112994356D01*
X202877208Y-112854651D01*
X202667760Y-112734195D01*
X202475239Y-112618447D01*
X202302847Y-112497157D01*
X202183119Y-112393553D01*
X202169700Y-112378607D01*
X202037953Y-112148437D01*
X201993263Y-111889226D01*
X202033323Y-111620272D01*
X202155827Y-111360871D01*
X202314088Y-111170834D01*
X202560728Y-110990457D01*
X202826415Y-110907947D01*
X203115783Y-110922725D01*
G04 #@! TD*
M02*
