G04 #@! TF.GenerationSoftware,KiCad,Pcbnew,(5.1.9-0-10_14)*
G04 #@! TF.CreationDate,2021-07-16T17:28:01+01:00*
G04 #@! TF.ProjectId,Draytronics-Elise-PCB V2,44726179-7472-46f6-9e69-63732d456c69,rev?*
G04 #@! TF.SameCoordinates,Original*
G04 #@! TF.FileFunction,Paste,Bot*
G04 #@! TF.FilePolarity,Positive*
%FSLAX46Y46*%
G04 Gerber Fmt 4.6, Leading zero omitted, Abs format (unit mm)*
G04 Created by KiCad (PCBNEW (5.1.9-0-10_14)) date 2021-07-16 17:28:01*
%MOMM*%
%LPD*%
G01*
G04 APERTURE LIST*
%ADD10R,1.500000X1.000000*%
%ADD11R,1.000000X0.750000*%
%ADD12R,0.600000X1.450000*%
%ADD13R,0.300000X1.450000*%
%ADD14R,1.400000X1.200000*%
%ADD15R,0.650000X1.060000*%
%ADD16R,1.200000X0.900000*%
G04 APERTURE END LIST*
G04 #@! TO.C,R6*
G36*
G01*
X47075000Y-49625000D02*
X47075000Y-50175000D01*
G75*
G02*
X46875000Y-50375000I-200000J0D01*
G01*
X46475000Y-50375000D01*
G75*
G02*
X46275000Y-50175000I0J200000D01*
G01*
X46275000Y-49625000D01*
G75*
G02*
X46475000Y-49425000I200000J0D01*
G01*
X46875000Y-49425000D01*
G75*
G02*
X47075000Y-49625000I0J-200000D01*
G01*
G37*
G36*
G01*
X48725000Y-49625000D02*
X48725000Y-50175000D01*
G75*
G02*
X48525000Y-50375000I-200000J0D01*
G01*
X48125000Y-50375000D01*
G75*
G02*
X47925000Y-50175000I0J200000D01*
G01*
X47925000Y-49625000D01*
G75*
G02*
X48125000Y-49425000I200000J0D01*
G01*
X48525000Y-49425000D01*
G75*
G02*
X48725000Y-49625000I0J-200000D01*
G01*
G37*
G04 #@! TD*
D10*
G04 #@! TO.C,D85*
X37150000Y-103400000D03*
X37150000Y-100200000D03*
X42050000Y-103400000D03*
X42050000Y-100200000D03*
G04 #@! TD*
G04 #@! TO.C,D84*
X78050000Y-103400000D03*
X78050000Y-100200000D03*
X82950000Y-103400000D03*
X82950000Y-100200000D03*
G04 #@! TD*
G04 #@! TO.C,D83*
X121450000Y-100200000D03*
X121450000Y-103400000D03*
X116550000Y-100200000D03*
X116550000Y-103400000D03*
G04 #@! TD*
G04 #@! TO.C,D82*
X159950000Y-100200000D03*
X159950000Y-103400000D03*
X155050000Y-100200000D03*
X155050000Y-103400000D03*
G04 #@! TD*
G04 #@! TO.C,D81*
X193550000Y-103400000D03*
X193550000Y-100200000D03*
X198450000Y-103400000D03*
X198450000Y-100200000D03*
G04 #@! TD*
G04 #@! TO.C,D80*
X232050000Y-103400000D03*
X232050000Y-100200000D03*
X236950000Y-103400000D03*
X236950000Y-100200000D03*
G04 #@! TD*
G04 #@! TO.C,D79*
X270550000Y-103400000D03*
X270550000Y-100200000D03*
X275450000Y-103400000D03*
X275450000Y-100200000D03*
G04 #@! TD*
G04 #@! TO.C,D78*
X316750000Y-103400000D03*
X316750000Y-100200000D03*
X321650000Y-103400000D03*
X321650000Y-100200000D03*
G04 #@! TD*
G04 #@! TO.C,D77*
X316750000Y-46100000D03*
X316750000Y-42900000D03*
X321650000Y-46100000D03*
X321650000Y-42900000D03*
G04 #@! TD*
G04 #@! TO.C,U1*
G36*
G01*
X55831800Y-65762001D02*
X55831800Y-65211999D01*
G75*
G02*
X56081799Y-64962000I249999J0D01*
G01*
X56631801Y-64962000D01*
G75*
G02*
X56881800Y-65211999I0J-249999D01*
G01*
X56881800Y-65762001D01*
G75*
G02*
X56631801Y-66012000I-249999J0D01*
G01*
X56081799Y-66012000D01*
G75*
G02*
X55831800Y-65762001I0J249999D01*
G01*
G37*
G36*
G01*
X55831800Y-67062001D02*
X55831800Y-66511999D01*
G75*
G02*
X56081799Y-66262000I249999J0D01*
G01*
X56631801Y-66262000D01*
G75*
G02*
X56881800Y-66511999I0J-249999D01*
G01*
X56881800Y-67062001D01*
G75*
G02*
X56631801Y-67312000I-249999J0D01*
G01*
X56081799Y-67312000D01*
G75*
G02*
X55831800Y-67062001I0J249999D01*
G01*
G37*
G36*
G01*
X55831800Y-68362001D02*
X55831800Y-67811999D01*
G75*
G02*
X56081799Y-67562000I249999J0D01*
G01*
X56631801Y-67562000D01*
G75*
G02*
X56881800Y-67811999I0J-249999D01*
G01*
X56881800Y-68362001D01*
G75*
G02*
X56631801Y-68612000I-249999J0D01*
G01*
X56081799Y-68612000D01*
G75*
G02*
X55831800Y-68362001I0J249999D01*
G01*
G37*
G36*
G01*
X55831800Y-69662001D02*
X55831800Y-69111999D01*
G75*
G02*
X56081799Y-68862000I249999J0D01*
G01*
X56631801Y-68862000D01*
G75*
G02*
X56881800Y-69111999I0J-249999D01*
G01*
X56881800Y-69662001D01*
G75*
G02*
X56631801Y-69912000I-249999J0D01*
G01*
X56081799Y-69912000D01*
G75*
G02*
X55831800Y-69662001I0J249999D01*
G01*
G37*
G36*
G01*
X54531800Y-65762001D02*
X54531800Y-65211999D01*
G75*
G02*
X54781799Y-64962000I249999J0D01*
G01*
X55331801Y-64962000D01*
G75*
G02*
X55581800Y-65211999I0J-249999D01*
G01*
X55581800Y-65762001D01*
G75*
G02*
X55331801Y-66012000I-249999J0D01*
G01*
X54781799Y-66012000D01*
G75*
G02*
X54531800Y-65762001I0J249999D01*
G01*
G37*
G36*
G01*
X54531800Y-67062001D02*
X54531800Y-66511999D01*
G75*
G02*
X54781799Y-66262000I249999J0D01*
G01*
X55331801Y-66262000D01*
G75*
G02*
X55581800Y-66511999I0J-249999D01*
G01*
X55581800Y-67062001D01*
G75*
G02*
X55331801Y-67312000I-249999J0D01*
G01*
X54781799Y-67312000D01*
G75*
G02*
X54531800Y-67062001I0J249999D01*
G01*
G37*
G36*
G01*
X54531800Y-68362001D02*
X54531800Y-67811999D01*
G75*
G02*
X54781799Y-67562000I249999J0D01*
G01*
X55331801Y-67562000D01*
G75*
G02*
X55581800Y-67811999I0J-249999D01*
G01*
X55581800Y-68362001D01*
G75*
G02*
X55331801Y-68612000I-249999J0D01*
G01*
X54781799Y-68612000D01*
G75*
G02*
X54531800Y-68362001I0J249999D01*
G01*
G37*
G36*
G01*
X54531800Y-69662001D02*
X54531800Y-69111999D01*
G75*
G02*
X54781799Y-68862000I249999J0D01*
G01*
X55331801Y-68862000D01*
G75*
G02*
X55581800Y-69111999I0J-249999D01*
G01*
X55581800Y-69662001D01*
G75*
G02*
X55331801Y-69912000I-249999J0D01*
G01*
X54781799Y-69912000D01*
G75*
G02*
X54531800Y-69662001I0J249999D01*
G01*
G37*
G36*
G01*
X53231800Y-65762001D02*
X53231800Y-65211999D01*
G75*
G02*
X53481799Y-64962000I249999J0D01*
G01*
X54031801Y-64962000D01*
G75*
G02*
X54281800Y-65211999I0J-249999D01*
G01*
X54281800Y-65762001D01*
G75*
G02*
X54031801Y-66012000I-249999J0D01*
G01*
X53481799Y-66012000D01*
G75*
G02*
X53231800Y-65762001I0J249999D01*
G01*
G37*
G36*
G01*
X53231800Y-67062001D02*
X53231800Y-66511999D01*
G75*
G02*
X53481799Y-66262000I249999J0D01*
G01*
X54031801Y-66262000D01*
G75*
G02*
X54281800Y-66511999I0J-249999D01*
G01*
X54281800Y-67062001D01*
G75*
G02*
X54031801Y-67312000I-249999J0D01*
G01*
X53481799Y-67312000D01*
G75*
G02*
X53231800Y-67062001I0J249999D01*
G01*
G37*
G36*
G01*
X53231800Y-68362001D02*
X53231800Y-67811999D01*
G75*
G02*
X53481799Y-67562000I249999J0D01*
G01*
X54031801Y-67562000D01*
G75*
G02*
X54281800Y-67811999I0J-249999D01*
G01*
X54281800Y-68362001D01*
G75*
G02*
X54031801Y-68612000I-249999J0D01*
G01*
X53481799Y-68612000D01*
G75*
G02*
X53231800Y-68362001I0J249999D01*
G01*
G37*
G36*
G01*
X53231800Y-69662001D02*
X53231800Y-69111999D01*
G75*
G02*
X53481799Y-68862000I249999J0D01*
G01*
X54031801Y-68862000D01*
G75*
G02*
X54281800Y-69111999I0J-249999D01*
G01*
X54281800Y-69662001D01*
G75*
G02*
X54031801Y-69912000I-249999J0D01*
G01*
X53481799Y-69912000D01*
G75*
G02*
X53231800Y-69662001I0J249999D01*
G01*
G37*
G36*
G01*
X51931800Y-65762001D02*
X51931800Y-65211999D01*
G75*
G02*
X52181799Y-64962000I249999J0D01*
G01*
X52731801Y-64962000D01*
G75*
G02*
X52981800Y-65211999I0J-249999D01*
G01*
X52981800Y-65762001D01*
G75*
G02*
X52731801Y-66012000I-249999J0D01*
G01*
X52181799Y-66012000D01*
G75*
G02*
X51931800Y-65762001I0J249999D01*
G01*
G37*
G36*
G01*
X51931800Y-67062001D02*
X51931800Y-66511999D01*
G75*
G02*
X52181799Y-66262000I249999J0D01*
G01*
X52731801Y-66262000D01*
G75*
G02*
X52981800Y-66511999I0J-249999D01*
G01*
X52981800Y-67062001D01*
G75*
G02*
X52731801Y-67312000I-249999J0D01*
G01*
X52181799Y-67312000D01*
G75*
G02*
X51931800Y-67062001I0J249999D01*
G01*
G37*
G36*
G01*
X51931800Y-68362001D02*
X51931800Y-67811999D01*
G75*
G02*
X52181799Y-67562000I249999J0D01*
G01*
X52731801Y-67562000D01*
G75*
G02*
X52981800Y-67811999I0J-249999D01*
G01*
X52981800Y-68362001D01*
G75*
G02*
X52731801Y-68612000I-249999J0D01*
G01*
X52181799Y-68612000D01*
G75*
G02*
X51931800Y-68362001I0J249999D01*
G01*
G37*
G36*
G01*
X51931800Y-69662001D02*
X51931800Y-69111999D01*
G75*
G02*
X52181799Y-68862000I249999J0D01*
G01*
X52731801Y-68862000D01*
G75*
G02*
X52981800Y-69111999I0J-249999D01*
G01*
X52981800Y-69662001D01*
G75*
G02*
X52731801Y-69912000I-249999J0D01*
G01*
X52181799Y-69912000D01*
G75*
G02*
X51931800Y-69662001I0J249999D01*
G01*
G37*
G36*
G01*
X51781800Y-71249500D02*
X51781800Y-70299500D01*
G75*
G02*
X51844300Y-70237000I62500J0D01*
G01*
X51969300Y-70237000D01*
G75*
G02*
X52031800Y-70299500I0J-62500D01*
G01*
X52031800Y-71249500D01*
G75*
G02*
X51969300Y-71312000I-62500J0D01*
G01*
X51844300Y-71312000D01*
G75*
G02*
X51781800Y-71249500I0J62500D01*
G01*
G37*
G36*
G01*
X52281800Y-71249500D02*
X52281800Y-70299500D01*
G75*
G02*
X52344300Y-70237000I62500J0D01*
G01*
X52469300Y-70237000D01*
G75*
G02*
X52531800Y-70299500I0J-62500D01*
G01*
X52531800Y-71249500D01*
G75*
G02*
X52469300Y-71312000I-62500J0D01*
G01*
X52344300Y-71312000D01*
G75*
G02*
X52281800Y-71249500I0J62500D01*
G01*
G37*
G36*
G01*
X52781800Y-71249500D02*
X52781800Y-70299500D01*
G75*
G02*
X52844300Y-70237000I62500J0D01*
G01*
X52969300Y-70237000D01*
G75*
G02*
X53031800Y-70299500I0J-62500D01*
G01*
X53031800Y-71249500D01*
G75*
G02*
X52969300Y-71312000I-62500J0D01*
G01*
X52844300Y-71312000D01*
G75*
G02*
X52781800Y-71249500I0J62500D01*
G01*
G37*
G36*
G01*
X53281800Y-71249500D02*
X53281800Y-70299500D01*
G75*
G02*
X53344300Y-70237000I62500J0D01*
G01*
X53469300Y-70237000D01*
G75*
G02*
X53531800Y-70299500I0J-62500D01*
G01*
X53531800Y-71249500D01*
G75*
G02*
X53469300Y-71312000I-62500J0D01*
G01*
X53344300Y-71312000D01*
G75*
G02*
X53281800Y-71249500I0J62500D01*
G01*
G37*
G36*
G01*
X53781800Y-71249500D02*
X53781800Y-70299500D01*
G75*
G02*
X53844300Y-70237000I62500J0D01*
G01*
X53969300Y-70237000D01*
G75*
G02*
X54031800Y-70299500I0J-62500D01*
G01*
X54031800Y-71249500D01*
G75*
G02*
X53969300Y-71312000I-62500J0D01*
G01*
X53844300Y-71312000D01*
G75*
G02*
X53781800Y-71249500I0J62500D01*
G01*
G37*
G36*
G01*
X54281800Y-71249500D02*
X54281800Y-70299500D01*
G75*
G02*
X54344300Y-70237000I62500J0D01*
G01*
X54469300Y-70237000D01*
G75*
G02*
X54531800Y-70299500I0J-62500D01*
G01*
X54531800Y-71249500D01*
G75*
G02*
X54469300Y-71312000I-62500J0D01*
G01*
X54344300Y-71312000D01*
G75*
G02*
X54281800Y-71249500I0J62500D01*
G01*
G37*
G36*
G01*
X54781800Y-71249500D02*
X54781800Y-70299500D01*
G75*
G02*
X54844300Y-70237000I62500J0D01*
G01*
X54969300Y-70237000D01*
G75*
G02*
X55031800Y-70299500I0J-62500D01*
G01*
X55031800Y-71249500D01*
G75*
G02*
X54969300Y-71312000I-62500J0D01*
G01*
X54844300Y-71312000D01*
G75*
G02*
X54781800Y-71249500I0J62500D01*
G01*
G37*
G36*
G01*
X55281800Y-71249500D02*
X55281800Y-70299500D01*
G75*
G02*
X55344300Y-70237000I62500J0D01*
G01*
X55469300Y-70237000D01*
G75*
G02*
X55531800Y-70299500I0J-62500D01*
G01*
X55531800Y-71249500D01*
G75*
G02*
X55469300Y-71312000I-62500J0D01*
G01*
X55344300Y-71312000D01*
G75*
G02*
X55281800Y-71249500I0J62500D01*
G01*
G37*
G36*
G01*
X55781800Y-71249500D02*
X55781800Y-70299500D01*
G75*
G02*
X55844300Y-70237000I62500J0D01*
G01*
X55969300Y-70237000D01*
G75*
G02*
X56031800Y-70299500I0J-62500D01*
G01*
X56031800Y-71249500D01*
G75*
G02*
X55969300Y-71312000I-62500J0D01*
G01*
X55844300Y-71312000D01*
G75*
G02*
X55781800Y-71249500I0J62500D01*
G01*
G37*
G36*
G01*
X56281800Y-71249500D02*
X56281800Y-70299500D01*
G75*
G02*
X56344300Y-70237000I62500J0D01*
G01*
X56469300Y-70237000D01*
G75*
G02*
X56531800Y-70299500I0J-62500D01*
G01*
X56531800Y-71249500D01*
G75*
G02*
X56469300Y-71312000I-62500J0D01*
G01*
X56344300Y-71312000D01*
G75*
G02*
X56281800Y-71249500I0J62500D01*
G01*
G37*
G36*
G01*
X56781800Y-71249500D02*
X56781800Y-70299500D01*
G75*
G02*
X56844300Y-70237000I62500J0D01*
G01*
X56969300Y-70237000D01*
G75*
G02*
X57031800Y-70299500I0J-62500D01*
G01*
X57031800Y-71249500D01*
G75*
G02*
X56969300Y-71312000I-62500J0D01*
G01*
X56844300Y-71312000D01*
G75*
G02*
X56781800Y-71249500I0J62500D01*
G01*
G37*
G36*
G01*
X57206800Y-69999500D02*
X57206800Y-69874500D01*
G75*
G02*
X57269300Y-69812000I62500J0D01*
G01*
X58219300Y-69812000D01*
G75*
G02*
X58281800Y-69874500I0J-62500D01*
G01*
X58281800Y-69999500D01*
G75*
G02*
X58219300Y-70062000I-62500J0D01*
G01*
X57269300Y-70062000D01*
G75*
G02*
X57206800Y-69999500I0J62500D01*
G01*
G37*
G36*
G01*
X57206800Y-69499500D02*
X57206800Y-69374500D01*
G75*
G02*
X57269300Y-69312000I62500J0D01*
G01*
X58219300Y-69312000D01*
G75*
G02*
X58281800Y-69374500I0J-62500D01*
G01*
X58281800Y-69499500D01*
G75*
G02*
X58219300Y-69562000I-62500J0D01*
G01*
X57269300Y-69562000D01*
G75*
G02*
X57206800Y-69499500I0J62500D01*
G01*
G37*
G36*
G01*
X57206800Y-68999500D02*
X57206800Y-68874500D01*
G75*
G02*
X57269300Y-68812000I62500J0D01*
G01*
X58219300Y-68812000D01*
G75*
G02*
X58281800Y-68874500I0J-62500D01*
G01*
X58281800Y-68999500D01*
G75*
G02*
X58219300Y-69062000I-62500J0D01*
G01*
X57269300Y-69062000D01*
G75*
G02*
X57206800Y-68999500I0J62500D01*
G01*
G37*
G36*
G01*
X57206800Y-68499500D02*
X57206800Y-68374500D01*
G75*
G02*
X57269300Y-68312000I62500J0D01*
G01*
X58219300Y-68312000D01*
G75*
G02*
X58281800Y-68374500I0J-62500D01*
G01*
X58281800Y-68499500D01*
G75*
G02*
X58219300Y-68562000I-62500J0D01*
G01*
X57269300Y-68562000D01*
G75*
G02*
X57206800Y-68499500I0J62500D01*
G01*
G37*
G36*
G01*
X57206800Y-67999500D02*
X57206800Y-67874500D01*
G75*
G02*
X57269300Y-67812000I62500J0D01*
G01*
X58219300Y-67812000D01*
G75*
G02*
X58281800Y-67874500I0J-62500D01*
G01*
X58281800Y-67999500D01*
G75*
G02*
X58219300Y-68062000I-62500J0D01*
G01*
X57269300Y-68062000D01*
G75*
G02*
X57206800Y-67999500I0J62500D01*
G01*
G37*
G36*
G01*
X57206800Y-67499500D02*
X57206800Y-67374500D01*
G75*
G02*
X57269300Y-67312000I62500J0D01*
G01*
X58219300Y-67312000D01*
G75*
G02*
X58281800Y-67374500I0J-62500D01*
G01*
X58281800Y-67499500D01*
G75*
G02*
X58219300Y-67562000I-62500J0D01*
G01*
X57269300Y-67562000D01*
G75*
G02*
X57206800Y-67499500I0J62500D01*
G01*
G37*
G36*
G01*
X57206800Y-66999500D02*
X57206800Y-66874500D01*
G75*
G02*
X57269300Y-66812000I62500J0D01*
G01*
X58219300Y-66812000D01*
G75*
G02*
X58281800Y-66874500I0J-62500D01*
G01*
X58281800Y-66999500D01*
G75*
G02*
X58219300Y-67062000I-62500J0D01*
G01*
X57269300Y-67062000D01*
G75*
G02*
X57206800Y-66999500I0J62500D01*
G01*
G37*
G36*
G01*
X57206800Y-66499500D02*
X57206800Y-66374500D01*
G75*
G02*
X57269300Y-66312000I62500J0D01*
G01*
X58219300Y-66312000D01*
G75*
G02*
X58281800Y-66374500I0J-62500D01*
G01*
X58281800Y-66499500D01*
G75*
G02*
X58219300Y-66562000I-62500J0D01*
G01*
X57269300Y-66562000D01*
G75*
G02*
X57206800Y-66499500I0J62500D01*
G01*
G37*
G36*
G01*
X57206800Y-65999500D02*
X57206800Y-65874500D01*
G75*
G02*
X57269300Y-65812000I62500J0D01*
G01*
X58219300Y-65812000D01*
G75*
G02*
X58281800Y-65874500I0J-62500D01*
G01*
X58281800Y-65999500D01*
G75*
G02*
X58219300Y-66062000I-62500J0D01*
G01*
X57269300Y-66062000D01*
G75*
G02*
X57206800Y-65999500I0J62500D01*
G01*
G37*
G36*
G01*
X57206800Y-65499500D02*
X57206800Y-65374500D01*
G75*
G02*
X57269300Y-65312000I62500J0D01*
G01*
X58219300Y-65312000D01*
G75*
G02*
X58281800Y-65374500I0J-62500D01*
G01*
X58281800Y-65499500D01*
G75*
G02*
X58219300Y-65562000I-62500J0D01*
G01*
X57269300Y-65562000D01*
G75*
G02*
X57206800Y-65499500I0J62500D01*
G01*
G37*
G36*
G01*
X57206800Y-64999500D02*
X57206800Y-64874500D01*
G75*
G02*
X57269300Y-64812000I62500J0D01*
G01*
X58219300Y-64812000D01*
G75*
G02*
X58281800Y-64874500I0J-62500D01*
G01*
X58281800Y-64999500D01*
G75*
G02*
X58219300Y-65062000I-62500J0D01*
G01*
X57269300Y-65062000D01*
G75*
G02*
X57206800Y-64999500I0J62500D01*
G01*
G37*
G36*
G01*
X56781800Y-64574500D02*
X56781800Y-63624500D01*
G75*
G02*
X56844300Y-63562000I62500J0D01*
G01*
X56969300Y-63562000D01*
G75*
G02*
X57031800Y-63624500I0J-62500D01*
G01*
X57031800Y-64574500D01*
G75*
G02*
X56969300Y-64637000I-62500J0D01*
G01*
X56844300Y-64637000D01*
G75*
G02*
X56781800Y-64574500I0J62500D01*
G01*
G37*
G36*
G01*
X56281800Y-64574500D02*
X56281800Y-63624500D01*
G75*
G02*
X56344300Y-63562000I62500J0D01*
G01*
X56469300Y-63562000D01*
G75*
G02*
X56531800Y-63624500I0J-62500D01*
G01*
X56531800Y-64574500D01*
G75*
G02*
X56469300Y-64637000I-62500J0D01*
G01*
X56344300Y-64637000D01*
G75*
G02*
X56281800Y-64574500I0J62500D01*
G01*
G37*
G36*
G01*
X55781800Y-64574500D02*
X55781800Y-63624500D01*
G75*
G02*
X55844300Y-63562000I62500J0D01*
G01*
X55969300Y-63562000D01*
G75*
G02*
X56031800Y-63624500I0J-62500D01*
G01*
X56031800Y-64574500D01*
G75*
G02*
X55969300Y-64637000I-62500J0D01*
G01*
X55844300Y-64637000D01*
G75*
G02*
X55781800Y-64574500I0J62500D01*
G01*
G37*
G36*
G01*
X55281800Y-64574500D02*
X55281800Y-63624500D01*
G75*
G02*
X55344300Y-63562000I62500J0D01*
G01*
X55469300Y-63562000D01*
G75*
G02*
X55531800Y-63624500I0J-62500D01*
G01*
X55531800Y-64574500D01*
G75*
G02*
X55469300Y-64637000I-62500J0D01*
G01*
X55344300Y-64637000D01*
G75*
G02*
X55281800Y-64574500I0J62500D01*
G01*
G37*
G36*
G01*
X54781800Y-64574500D02*
X54781800Y-63624500D01*
G75*
G02*
X54844300Y-63562000I62500J0D01*
G01*
X54969300Y-63562000D01*
G75*
G02*
X55031800Y-63624500I0J-62500D01*
G01*
X55031800Y-64574500D01*
G75*
G02*
X54969300Y-64637000I-62500J0D01*
G01*
X54844300Y-64637000D01*
G75*
G02*
X54781800Y-64574500I0J62500D01*
G01*
G37*
G36*
G01*
X54281800Y-64574500D02*
X54281800Y-63624500D01*
G75*
G02*
X54344300Y-63562000I62500J0D01*
G01*
X54469300Y-63562000D01*
G75*
G02*
X54531800Y-63624500I0J-62500D01*
G01*
X54531800Y-64574500D01*
G75*
G02*
X54469300Y-64637000I-62500J0D01*
G01*
X54344300Y-64637000D01*
G75*
G02*
X54281800Y-64574500I0J62500D01*
G01*
G37*
G36*
G01*
X53781800Y-64574500D02*
X53781800Y-63624500D01*
G75*
G02*
X53844300Y-63562000I62500J0D01*
G01*
X53969300Y-63562000D01*
G75*
G02*
X54031800Y-63624500I0J-62500D01*
G01*
X54031800Y-64574500D01*
G75*
G02*
X53969300Y-64637000I-62500J0D01*
G01*
X53844300Y-64637000D01*
G75*
G02*
X53781800Y-64574500I0J62500D01*
G01*
G37*
G36*
G01*
X53281800Y-64574500D02*
X53281800Y-63624500D01*
G75*
G02*
X53344300Y-63562000I62500J0D01*
G01*
X53469300Y-63562000D01*
G75*
G02*
X53531800Y-63624500I0J-62500D01*
G01*
X53531800Y-64574500D01*
G75*
G02*
X53469300Y-64637000I-62500J0D01*
G01*
X53344300Y-64637000D01*
G75*
G02*
X53281800Y-64574500I0J62500D01*
G01*
G37*
G36*
G01*
X52781800Y-64574500D02*
X52781800Y-63624500D01*
G75*
G02*
X52844300Y-63562000I62500J0D01*
G01*
X52969300Y-63562000D01*
G75*
G02*
X53031800Y-63624500I0J-62500D01*
G01*
X53031800Y-64574500D01*
G75*
G02*
X52969300Y-64637000I-62500J0D01*
G01*
X52844300Y-64637000D01*
G75*
G02*
X52781800Y-64574500I0J62500D01*
G01*
G37*
G36*
G01*
X52281800Y-64574500D02*
X52281800Y-63624500D01*
G75*
G02*
X52344300Y-63562000I62500J0D01*
G01*
X52469300Y-63562000D01*
G75*
G02*
X52531800Y-63624500I0J-62500D01*
G01*
X52531800Y-64574500D01*
G75*
G02*
X52469300Y-64637000I-62500J0D01*
G01*
X52344300Y-64637000D01*
G75*
G02*
X52281800Y-64574500I0J62500D01*
G01*
G37*
G36*
G01*
X51781800Y-64574500D02*
X51781800Y-63624500D01*
G75*
G02*
X51844300Y-63562000I62500J0D01*
G01*
X51969300Y-63562000D01*
G75*
G02*
X52031800Y-63624500I0J-62500D01*
G01*
X52031800Y-64574500D01*
G75*
G02*
X51969300Y-64637000I-62500J0D01*
G01*
X51844300Y-64637000D01*
G75*
G02*
X51781800Y-64574500I0J62500D01*
G01*
G37*
G36*
G01*
X50531800Y-64999500D02*
X50531800Y-64874500D01*
G75*
G02*
X50594300Y-64812000I62500J0D01*
G01*
X51544300Y-64812000D01*
G75*
G02*
X51606800Y-64874500I0J-62500D01*
G01*
X51606800Y-64999500D01*
G75*
G02*
X51544300Y-65062000I-62500J0D01*
G01*
X50594300Y-65062000D01*
G75*
G02*
X50531800Y-64999500I0J62500D01*
G01*
G37*
G36*
G01*
X50531800Y-65499500D02*
X50531800Y-65374500D01*
G75*
G02*
X50594300Y-65312000I62500J0D01*
G01*
X51544300Y-65312000D01*
G75*
G02*
X51606800Y-65374500I0J-62500D01*
G01*
X51606800Y-65499500D01*
G75*
G02*
X51544300Y-65562000I-62500J0D01*
G01*
X50594300Y-65562000D01*
G75*
G02*
X50531800Y-65499500I0J62500D01*
G01*
G37*
G36*
G01*
X50531800Y-65999500D02*
X50531800Y-65874500D01*
G75*
G02*
X50594300Y-65812000I62500J0D01*
G01*
X51544300Y-65812000D01*
G75*
G02*
X51606800Y-65874500I0J-62500D01*
G01*
X51606800Y-65999500D01*
G75*
G02*
X51544300Y-66062000I-62500J0D01*
G01*
X50594300Y-66062000D01*
G75*
G02*
X50531800Y-65999500I0J62500D01*
G01*
G37*
G36*
G01*
X50531800Y-66499500D02*
X50531800Y-66374500D01*
G75*
G02*
X50594300Y-66312000I62500J0D01*
G01*
X51544300Y-66312000D01*
G75*
G02*
X51606800Y-66374500I0J-62500D01*
G01*
X51606800Y-66499500D01*
G75*
G02*
X51544300Y-66562000I-62500J0D01*
G01*
X50594300Y-66562000D01*
G75*
G02*
X50531800Y-66499500I0J62500D01*
G01*
G37*
G36*
G01*
X50531800Y-66999500D02*
X50531800Y-66874500D01*
G75*
G02*
X50594300Y-66812000I62500J0D01*
G01*
X51544300Y-66812000D01*
G75*
G02*
X51606800Y-66874500I0J-62500D01*
G01*
X51606800Y-66999500D01*
G75*
G02*
X51544300Y-67062000I-62500J0D01*
G01*
X50594300Y-67062000D01*
G75*
G02*
X50531800Y-66999500I0J62500D01*
G01*
G37*
G36*
G01*
X50531800Y-67499500D02*
X50531800Y-67374500D01*
G75*
G02*
X50594300Y-67312000I62500J0D01*
G01*
X51544300Y-67312000D01*
G75*
G02*
X51606800Y-67374500I0J-62500D01*
G01*
X51606800Y-67499500D01*
G75*
G02*
X51544300Y-67562000I-62500J0D01*
G01*
X50594300Y-67562000D01*
G75*
G02*
X50531800Y-67499500I0J62500D01*
G01*
G37*
G36*
G01*
X50531800Y-67999500D02*
X50531800Y-67874500D01*
G75*
G02*
X50594300Y-67812000I62500J0D01*
G01*
X51544300Y-67812000D01*
G75*
G02*
X51606800Y-67874500I0J-62500D01*
G01*
X51606800Y-67999500D01*
G75*
G02*
X51544300Y-68062000I-62500J0D01*
G01*
X50594300Y-68062000D01*
G75*
G02*
X50531800Y-67999500I0J62500D01*
G01*
G37*
G36*
G01*
X50531800Y-68499500D02*
X50531800Y-68374500D01*
G75*
G02*
X50594300Y-68312000I62500J0D01*
G01*
X51544300Y-68312000D01*
G75*
G02*
X51606800Y-68374500I0J-62500D01*
G01*
X51606800Y-68499500D01*
G75*
G02*
X51544300Y-68562000I-62500J0D01*
G01*
X50594300Y-68562000D01*
G75*
G02*
X50531800Y-68499500I0J62500D01*
G01*
G37*
G36*
G01*
X50531800Y-68999500D02*
X50531800Y-68874500D01*
G75*
G02*
X50594300Y-68812000I62500J0D01*
G01*
X51544300Y-68812000D01*
G75*
G02*
X51606800Y-68874500I0J-62500D01*
G01*
X51606800Y-68999500D01*
G75*
G02*
X51544300Y-69062000I-62500J0D01*
G01*
X50594300Y-69062000D01*
G75*
G02*
X50531800Y-68999500I0J62500D01*
G01*
G37*
G36*
G01*
X50531800Y-69499500D02*
X50531800Y-69374500D01*
G75*
G02*
X50594300Y-69312000I62500J0D01*
G01*
X51544300Y-69312000D01*
G75*
G02*
X51606800Y-69374500I0J-62500D01*
G01*
X51606800Y-69499500D01*
G75*
G02*
X51544300Y-69562000I-62500J0D01*
G01*
X50594300Y-69562000D01*
G75*
G02*
X50531800Y-69499500I0J62500D01*
G01*
G37*
G36*
G01*
X50531800Y-69999500D02*
X50531800Y-69874500D01*
G75*
G02*
X50594300Y-69812000I62500J0D01*
G01*
X51544300Y-69812000D01*
G75*
G02*
X51606800Y-69874500I0J-62500D01*
G01*
X51606800Y-69999500D01*
G75*
G02*
X51544300Y-70062000I-62500J0D01*
G01*
X50594300Y-70062000D01*
G75*
G02*
X50531800Y-69999500I0J62500D01*
G01*
G37*
G04 #@! TD*
D11*
G04 #@! TO.C,SW1*
X33100000Y-61350000D03*
X27100000Y-61350000D03*
X27100000Y-57600000D03*
X33100000Y-57600000D03*
G04 #@! TD*
D10*
G04 #@! TO.C,D76*
X270550000Y-46100000D03*
X270550000Y-42900000D03*
X275450000Y-46100000D03*
X275450000Y-42900000D03*
G04 #@! TD*
G04 #@! TO.C,D75*
X232050000Y-46100000D03*
X232050000Y-42900000D03*
X236950000Y-46100000D03*
X236950000Y-42900000D03*
G04 #@! TD*
G04 #@! TO.C,D74*
X193550000Y-46100000D03*
X193550000Y-42900000D03*
X198450000Y-46100000D03*
X198450000Y-42900000D03*
G04 #@! TD*
G04 #@! TO.C,D73*
X155050000Y-46100000D03*
X155050000Y-42900000D03*
X159950000Y-46100000D03*
X159950000Y-42900000D03*
G04 #@! TD*
G04 #@! TO.C,D72*
X116550000Y-46100000D03*
X116550000Y-42900000D03*
X121450000Y-46100000D03*
X121450000Y-42900000D03*
G04 #@! TD*
G04 #@! TO.C,D71*
X78050000Y-46100000D03*
X78050000Y-42900000D03*
X82950000Y-46100000D03*
X82950000Y-42900000D03*
G04 #@! TD*
G04 #@! TO.C,D70*
X31850000Y-46100000D03*
X31850000Y-42900000D03*
X36750000Y-46100000D03*
X36750000Y-42900000D03*
G04 #@! TD*
D12*
G04 #@! TO.C,USB1*
X45769800Y-32545600D03*
X39319800Y-32545600D03*
X44994800Y-32545600D03*
X40094800Y-32545600D03*
D13*
X40794800Y-32545600D03*
X44294800Y-32545600D03*
X41294800Y-32545600D03*
X43794800Y-32545600D03*
X41794800Y-32545600D03*
X43294800Y-32545600D03*
X42794800Y-32545600D03*
X42294800Y-32545600D03*
G04 #@! TD*
D14*
G04 #@! TO.C,Y1*
X55301060Y-58425980D03*
X53101060Y-58425980D03*
X53101060Y-60125980D03*
X55301060Y-60125980D03*
G04 #@! TD*
D15*
G04 #@! TO.C,U2*
X43743880Y-37980800D03*
X42793880Y-37980800D03*
X44693880Y-37980800D03*
X44693880Y-35780800D03*
X43743880Y-35780800D03*
X42793880Y-35780800D03*
G04 #@! TD*
G04 #@! TO.C,R5*
G36*
G01*
X48480300Y-29858520D02*
X49030300Y-29858520D01*
G75*
G02*
X49230300Y-30058520I0J-200000D01*
G01*
X49230300Y-30458520D01*
G75*
G02*
X49030300Y-30658520I-200000J0D01*
G01*
X48480300Y-30658520D01*
G75*
G02*
X48280300Y-30458520I0J200000D01*
G01*
X48280300Y-30058520D01*
G75*
G02*
X48480300Y-29858520I200000J0D01*
G01*
G37*
G36*
G01*
X48480300Y-28208520D02*
X49030300Y-28208520D01*
G75*
G02*
X49230300Y-28408520I0J-200000D01*
G01*
X49230300Y-28808520D01*
G75*
G02*
X49030300Y-29008520I-200000J0D01*
G01*
X48480300Y-29008520D01*
G75*
G02*
X48280300Y-28808520I0J200000D01*
G01*
X48280300Y-28408520D01*
G75*
G02*
X48480300Y-28208520I200000J0D01*
G01*
G37*
G04 #@! TD*
G04 #@! TO.C,R4*
G36*
G01*
X34817640Y-40640820D02*
X35367640Y-40640820D01*
G75*
G02*
X35567640Y-40840820I0J-200000D01*
G01*
X35567640Y-41240820D01*
G75*
G02*
X35367640Y-41440820I-200000J0D01*
G01*
X34817640Y-41440820D01*
G75*
G02*
X34617640Y-41240820I0J200000D01*
G01*
X34617640Y-40840820D01*
G75*
G02*
X34817640Y-40640820I200000J0D01*
G01*
G37*
G36*
G01*
X34817640Y-38990820D02*
X35367640Y-38990820D01*
G75*
G02*
X35567640Y-39190820I0J-200000D01*
G01*
X35567640Y-39590820D01*
G75*
G02*
X35367640Y-39790820I-200000J0D01*
G01*
X34817640Y-39790820D01*
G75*
G02*
X34617640Y-39590820I0J200000D01*
G01*
X34617640Y-39190820D01*
G75*
G02*
X34817640Y-38990820I200000J0D01*
G01*
G37*
G04 #@! TD*
G04 #@! TO.C,R3*
G36*
G01*
X44971380Y-41556120D02*
X44421380Y-41556120D01*
G75*
G02*
X44221380Y-41356120I0J200000D01*
G01*
X44221380Y-40956120D01*
G75*
G02*
X44421380Y-40756120I200000J0D01*
G01*
X44971380Y-40756120D01*
G75*
G02*
X45171380Y-40956120I0J-200000D01*
G01*
X45171380Y-41356120D01*
G75*
G02*
X44971380Y-41556120I-200000J0D01*
G01*
G37*
G36*
G01*
X44971380Y-43206120D02*
X44421380Y-43206120D01*
G75*
G02*
X44221380Y-43006120I0J200000D01*
G01*
X44221380Y-42606120D01*
G75*
G02*
X44421380Y-42406120I200000J0D01*
G01*
X44971380Y-42406120D01*
G75*
G02*
X45171380Y-42606120I0J-200000D01*
G01*
X45171380Y-43006120D01*
G75*
G02*
X44971380Y-43206120I-200000J0D01*
G01*
G37*
G04 #@! TD*
G04 #@! TO.C,R2*
G36*
G01*
X43071460Y-41551040D02*
X42521460Y-41551040D01*
G75*
G02*
X42321460Y-41351040I0J200000D01*
G01*
X42321460Y-40951040D01*
G75*
G02*
X42521460Y-40751040I200000J0D01*
G01*
X43071460Y-40751040D01*
G75*
G02*
X43271460Y-40951040I0J-200000D01*
G01*
X43271460Y-41351040D01*
G75*
G02*
X43071460Y-41551040I-200000J0D01*
G01*
G37*
G36*
G01*
X43071460Y-43201040D02*
X42521460Y-43201040D01*
G75*
G02*
X42321460Y-43001040I0J200000D01*
G01*
X42321460Y-42601040D01*
G75*
G02*
X42521460Y-42401040I200000J0D01*
G01*
X43071460Y-42401040D01*
G75*
G02*
X43271460Y-42601040I0J-200000D01*
G01*
X43271460Y-43001040D01*
G75*
G02*
X43071460Y-43201040I-200000J0D01*
G01*
G37*
G04 #@! TD*
G04 #@! TO.C,R1*
G36*
G01*
X60358700Y-71241100D02*
X59808700Y-71241100D01*
G75*
G02*
X59608700Y-71041100I0J200000D01*
G01*
X59608700Y-70641100D01*
G75*
G02*
X59808700Y-70441100I200000J0D01*
G01*
X60358700Y-70441100D01*
G75*
G02*
X60558700Y-70641100I0J-200000D01*
G01*
X60558700Y-71041100D01*
G75*
G02*
X60358700Y-71241100I-200000J0D01*
G01*
G37*
G36*
G01*
X60358700Y-72891100D02*
X59808700Y-72891100D01*
G75*
G02*
X59608700Y-72691100I0J200000D01*
G01*
X59608700Y-72291100D01*
G75*
G02*
X59808700Y-72091100I200000J0D01*
G01*
X60358700Y-72091100D01*
G75*
G02*
X60558700Y-72291100I0J-200000D01*
G01*
X60558700Y-72691100D01*
G75*
G02*
X60358700Y-72891100I-200000J0D01*
G01*
G37*
G04 #@! TD*
G04 #@! TO.C,FB1*
G36*
G01*
X45999150Y-45125800D02*
X46761650Y-45125800D01*
G75*
G02*
X46980400Y-45344550I0J-218750D01*
G01*
X46980400Y-45782050D01*
G75*
G02*
X46761650Y-46000800I-218750J0D01*
G01*
X45999150Y-46000800D01*
G75*
G02*
X45780400Y-45782050I0J218750D01*
G01*
X45780400Y-45344550D01*
G75*
G02*
X45999150Y-45125800I218750J0D01*
G01*
G37*
G36*
G01*
X45999150Y-43000800D02*
X46761650Y-43000800D01*
G75*
G02*
X46980400Y-43219550I0J-218750D01*
G01*
X46980400Y-43657050D01*
G75*
G02*
X46761650Y-43875800I-218750J0D01*
G01*
X45999150Y-43875800D01*
G75*
G02*
X45780400Y-43657050I0J218750D01*
G01*
X45780400Y-43219550D01*
G75*
G02*
X45999150Y-43000800I218750J0D01*
G01*
G37*
G04 #@! TD*
G04 #@! TO.C,F1*
G36*
G01*
X47778350Y-42944200D02*
X48690850Y-42944200D01*
G75*
G02*
X48934600Y-43187950I0J-243750D01*
G01*
X48934600Y-43675450D01*
G75*
G02*
X48690850Y-43919200I-243750J0D01*
G01*
X47778350Y-43919200D01*
G75*
G02*
X47534600Y-43675450I0J243750D01*
G01*
X47534600Y-43187950D01*
G75*
G02*
X47778350Y-42944200I243750J0D01*
G01*
G37*
G36*
G01*
X47778350Y-41069200D02*
X48690850Y-41069200D01*
G75*
G02*
X48934600Y-41312950I0J-243750D01*
G01*
X48934600Y-41800450D01*
G75*
G02*
X48690850Y-42044200I-243750J0D01*
G01*
X47778350Y-42044200D01*
G75*
G02*
X47534600Y-41800450I0J243750D01*
G01*
X47534600Y-41312950D01*
G75*
G02*
X47778350Y-41069200I243750J0D01*
G01*
G37*
G04 #@! TD*
G04 #@! TO.C,C8*
G36*
G01*
X47998260Y-38243320D02*
X47998260Y-37743320D01*
G75*
G02*
X48223260Y-37518320I225000J0D01*
G01*
X48673260Y-37518320D01*
G75*
G02*
X48898260Y-37743320I0J-225000D01*
G01*
X48898260Y-38243320D01*
G75*
G02*
X48673260Y-38468320I-225000J0D01*
G01*
X48223260Y-38468320D01*
G75*
G02*
X47998260Y-38243320I0J225000D01*
G01*
G37*
G36*
G01*
X46448260Y-38243320D02*
X46448260Y-37743320D01*
G75*
G02*
X46673260Y-37518320I225000J0D01*
G01*
X47123260Y-37518320D01*
G75*
G02*
X47348260Y-37743320I0J-225000D01*
G01*
X47348260Y-38243320D01*
G75*
G02*
X47123260Y-38468320I-225000J0D01*
G01*
X46673260Y-38468320D01*
G75*
G02*
X46448260Y-38243320I0J225000D01*
G01*
G37*
G04 #@! TD*
G04 #@! TO.C,C7*
G36*
G01*
X47400400Y-71114800D02*
X47900400Y-71114800D01*
G75*
G02*
X48125400Y-71339800I0J-225000D01*
G01*
X48125400Y-71789800D01*
G75*
G02*
X47900400Y-72014800I-225000J0D01*
G01*
X47400400Y-72014800D01*
G75*
G02*
X47175400Y-71789800I0J225000D01*
G01*
X47175400Y-71339800D01*
G75*
G02*
X47400400Y-71114800I225000J0D01*
G01*
G37*
G36*
G01*
X47400400Y-69564800D02*
X47900400Y-69564800D01*
G75*
G02*
X48125400Y-69789800I0J-225000D01*
G01*
X48125400Y-70239800D01*
G75*
G02*
X47900400Y-70464800I-225000J0D01*
G01*
X47400400Y-70464800D01*
G75*
G02*
X47175400Y-70239800I0J225000D01*
G01*
X47175400Y-69789800D01*
G75*
G02*
X47400400Y-69564800I225000J0D01*
G01*
G37*
G04 #@! TD*
G04 #@! TO.C,C6*
G36*
G01*
X57291160Y-59372380D02*
X57791160Y-59372380D01*
G75*
G02*
X58016160Y-59597380I0J-225000D01*
G01*
X58016160Y-60047380D01*
G75*
G02*
X57791160Y-60272380I-225000J0D01*
G01*
X57291160Y-60272380D01*
G75*
G02*
X57066160Y-60047380I0J225000D01*
G01*
X57066160Y-59597380D01*
G75*
G02*
X57291160Y-59372380I225000J0D01*
G01*
G37*
G36*
G01*
X57291160Y-57822380D02*
X57791160Y-57822380D01*
G75*
G02*
X58016160Y-58047380I0J-225000D01*
G01*
X58016160Y-58497380D01*
G75*
G02*
X57791160Y-58722380I-225000J0D01*
G01*
X57291160Y-58722380D01*
G75*
G02*
X57066160Y-58497380I0J225000D01*
G01*
X57066160Y-58047380D01*
G75*
G02*
X57291160Y-57822380I225000J0D01*
G01*
G37*
G04 #@! TD*
G04 #@! TO.C,C5*
G36*
G01*
X51143980Y-58737620D02*
X50643980Y-58737620D01*
G75*
G02*
X50418980Y-58512620I0J225000D01*
G01*
X50418980Y-58062620D01*
G75*
G02*
X50643980Y-57837620I225000J0D01*
G01*
X51143980Y-57837620D01*
G75*
G02*
X51368980Y-58062620I0J-225000D01*
G01*
X51368980Y-58512620D01*
G75*
G02*
X51143980Y-58737620I-225000J0D01*
G01*
G37*
G36*
G01*
X51143980Y-60287620D02*
X50643980Y-60287620D01*
G75*
G02*
X50418980Y-60062620I0J225000D01*
G01*
X50418980Y-59612620D01*
G75*
G02*
X50643980Y-59387620I225000J0D01*
G01*
X51143980Y-59387620D01*
G75*
G02*
X51368980Y-59612620I0J-225000D01*
G01*
X51368980Y-60062620D01*
G75*
G02*
X51143980Y-60287620I-225000J0D01*
G01*
G37*
G04 #@! TD*
G04 #@! TO.C,C4*
G36*
G01*
X57371100Y-72724200D02*
X57371100Y-73224200D01*
G75*
G02*
X57146100Y-73449200I-225000J0D01*
G01*
X56696100Y-73449200D01*
G75*
G02*
X56471100Y-73224200I0J225000D01*
G01*
X56471100Y-72724200D01*
G75*
G02*
X56696100Y-72499200I225000J0D01*
G01*
X57146100Y-72499200D01*
G75*
G02*
X57371100Y-72724200I0J-225000D01*
G01*
G37*
G36*
G01*
X58921100Y-72724200D02*
X58921100Y-73224200D01*
G75*
G02*
X58696100Y-73449200I-225000J0D01*
G01*
X58246100Y-73449200D01*
G75*
G02*
X58021100Y-73224200I0J225000D01*
G01*
X58021100Y-72724200D01*
G75*
G02*
X58246100Y-72499200I225000J0D01*
G01*
X58696100Y-72499200D01*
G75*
G02*
X58921100Y-72724200I0J-225000D01*
G01*
G37*
G04 #@! TD*
G04 #@! TO.C,C3*
G36*
G01*
X59711400Y-63035300D02*
X59211400Y-63035300D01*
G75*
G02*
X58986400Y-62810300I0J225000D01*
G01*
X58986400Y-62360300D01*
G75*
G02*
X59211400Y-62135300I225000J0D01*
G01*
X59711400Y-62135300D01*
G75*
G02*
X59936400Y-62360300I0J-225000D01*
G01*
X59936400Y-62810300D01*
G75*
G02*
X59711400Y-63035300I-225000J0D01*
G01*
G37*
G36*
G01*
X59711400Y-64585300D02*
X59211400Y-64585300D01*
G75*
G02*
X58986400Y-64360300I0J225000D01*
G01*
X58986400Y-63910300D01*
G75*
G02*
X59211400Y-63685300I225000J0D01*
G01*
X59711400Y-63685300D01*
G75*
G02*
X59936400Y-63910300I0J-225000D01*
G01*
X59936400Y-64360300D01*
G75*
G02*
X59711400Y-64585300I-225000J0D01*
G01*
G37*
G04 #@! TD*
G04 #@! TO.C,C2*
G36*
G01*
X49399000Y-61460500D02*
X48899000Y-61460500D01*
G75*
G02*
X48674000Y-61235500I0J225000D01*
G01*
X48674000Y-60785500D01*
G75*
G02*
X48899000Y-60560500I225000J0D01*
G01*
X49399000Y-60560500D01*
G75*
G02*
X49624000Y-60785500I0J-225000D01*
G01*
X49624000Y-61235500D01*
G75*
G02*
X49399000Y-61460500I-225000J0D01*
G01*
G37*
G36*
G01*
X49399000Y-63010500D02*
X48899000Y-63010500D01*
G75*
G02*
X48674000Y-62785500I0J225000D01*
G01*
X48674000Y-62335500D01*
G75*
G02*
X48899000Y-62110500I225000J0D01*
G01*
X49399000Y-62110500D01*
G75*
G02*
X49624000Y-62335500I0J-225000D01*
G01*
X49624000Y-62785500D01*
G75*
G02*
X49399000Y-63010500I-225000J0D01*
G01*
G37*
G04 #@! TD*
G04 #@! TO.C,C1*
G36*
G01*
X49267300Y-71102100D02*
X49767300Y-71102100D01*
G75*
G02*
X49992300Y-71327100I0J-225000D01*
G01*
X49992300Y-71777100D01*
G75*
G02*
X49767300Y-72002100I-225000J0D01*
G01*
X49267300Y-72002100D01*
G75*
G02*
X49042300Y-71777100I0J225000D01*
G01*
X49042300Y-71327100D01*
G75*
G02*
X49267300Y-71102100I225000J0D01*
G01*
G37*
G36*
G01*
X49267300Y-69552100D02*
X49767300Y-69552100D01*
G75*
G02*
X49992300Y-69777100I0J-225000D01*
G01*
X49992300Y-70227100D01*
G75*
G02*
X49767300Y-70452100I-225000J0D01*
G01*
X49267300Y-70452100D01*
G75*
G02*
X49042300Y-70227100I0J225000D01*
G01*
X49042300Y-69777100D01*
G75*
G02*
X49267300Y-69552100I225000J0D01*
G01*
G37*
G04 #@! TD*
D16*
G04 #@! TO.C,D69*
X325424800Y-114008900D03*
X325424800Y-117308900D03*
G04 #@! TD*
G04 #@! TO.C,D68*
X306463700Y-114008900D03*
X306463700Y-117308900D03*
G04 #@! TD*
G04 #@! TO.C,D67*
X287274000Y-114008900D03*
X287274000Y-117308900D03*
G04 #@! TD*
G04 #@! TO.C,D66*
X268287500Y-114008900D03*
X268287500Y-117308900D03*
G04 #@! TD*
G04 #@! TO.C,D65*
X249415300Y-114008900D03*
X249415300Y-117308900D03*
G04 #@! TD*
G04 #@! TO.C,D64*
X232778300Y-114008900D03*
X232778300Y-117308900D03*
G04 #@! TD*
G04 #@! TO.C,D63*
X161137600Y-114008900D03*
X161137600Y-117308900D03*
G04 #@! TD*
G04 #@! TO.C,D62*
X94589600Y-114008900D03*
X94589600Y-117308900D03*
G04 #@! TD*
G04 #@! TO.C,D61*
X70726300Y-114008900D03*
X70726300Y-117308900D03*
G04 #@! TD*
G04 #@! TO.C,D60*
X44475400Y-114008900D03*
X44475400Y-117308900D03*
G04 #@! TD*
G04 #@! TO.C,D59*
X325462900Y-94971600D03*
X325462900Y-98271600D03*
G04 #@! TD*
G04 #@! TO.C,D58*
X306438300Y-94971600D03*
X306438300Y-98271600D03*
G04 #@! TD*
G04 #@! TO.C,D57*
X280428700Y-94971600D03*
X280428700Y-98271600D03*
G04 #@! TD*
G04 #@! TO.C,D56*
X254127000Y-94971600D03*
X254127000Y-98271600D03*
G04 #@! TD*
G04 #@! TO.C,D55*
X234975400Y-94971600D03*
X234975400Y-98271600D03*
G04 #@! TD*
G04 #@! TO.C,D54*
X216052400Y-94971600D03*
X216052400Y-98271600D03*
G04 #@! TD*
G04 #@! TO.C,D53*
X196938900Y-94971600D03*
X196938900Y-98271600D03*
G04 #@! TD*
G04 #@! TO.C,D52*
X177761900Y-94971600D03*
X177761900Y-98271600D03*
G04 #@! TD*
G04 #@! TO.C,D51*
X158711900Y-94971600D03*
X158711900Y-98271600D03*
G04 #@! TD*
G04 #@! TO.C,D50*
X139788900Y-94971600D03*
X139788900Y-98271600D03*
G04 #@! TD*
G04 #@! TO.C,D49*
X120738900Y-94971600D03*
X120738900Y-98271600D03*
G04 #@! TD*
G04 #@! TO.C,D48*
X101511100Y-94971600D03*
X101511100Y-98271600D03*
G04 #@! TD*
G04 #@! TO.C,D47*
X82550000Y-94971600D03*
X82550000Y-98271600D03*
G04 #@! TD*
G04 #@! TO.C,D46*
X63512700Y-94971600D03*
X63512700Y-98271600D03*
G04 #@! TD*
G04 #@! TO.C,D45*
X42100500Y-94971600D03*
X42100500Y-98271600D03*
G04 #@! TD*
G04 #@! TO.C,D44*
X325361300Y-75896200D03*
X325361300Y-79196200D03*
G04 #@! TD*
G04 #@! TO.C,D43*
X282498800Y-75896200D03*
X282498800Y-79196200D03*
G04 #@! TD*
G04 #@! TO.C,D42*
X263461500Y-75896200D03*
X263461500Y-79196200D03*
G04 #@! TD*
G04 #@! TO.C,D41*
X244475000Y-75896200D03*
X244475000Y-79196200D03*
G04 #@! TD*
G04 #@! TO.C,D40*
X225348800Y-75896200D03*
X225348800Y-79196200D03*
G04 #@! TD*
G04 #@! TO.C,D39*
X206349600Y-75896200D03*
X206349600Y-79196200D03*
G04 #@! TD*
G04 #@! TO.C,D38*
X187223400Y-75896200D03*
X187223400Y-79196200D03*
G04 #@! TD*
G04 #@! TO.C,D37*
X168249600Y-75896200D03*
X168249600Y-79196200D03*
G04 #@! TD*
G04 #@! TO.C,D36*
X149136100Y-75896200D03*
X149136100Y-79196200D03*
G04 #@! TD*
G04 #@! TO.C,D35*
X130187700Y-75896200D03*
X130187700Y-79196200D03*
G04 #@! TD*
G04 #@! TO.C,D34*
X111048800Y-75896200D03*
X111048800Y-79196200D03*
G04 #@! TD*
G04 #@! TO.C,D33*
X92049600Y-75896200D03*
X92049600Y-79196200D03*
G04 #@! TD*
G04 #@! TO.C,D32*
X72986900Y-75896200D03*
X72986900Y-79196200D03*
G04 #@! TD*
G04 #@! TO.C,D31*
X46786800Y-75896200D03*
X46786800Y-79196200D03*
G04 #@! TD*
G04 #@! TO.C,D30*
X325335900Y-56820800D03*
X325335900Y-60120800D03*
G04 #@! TD*
G04 #@! TO.C,D29*
X293319200Y-56820800D03*
X293319200Y-60120800D03*
G04 #@! TD*
G04 #@! TO.C,D28*
X277761700Y-56820800D03*
X277761700Y-60120800D03*
G04 #@! TD*
G04 #@! TO.C,D27*
X258826000Y-56820800D03*
X258826000Y-60120800D03*
G04 #@! TD*
G04 #@! TO.C,D26*
X239776000Y-56820800D03*
X239776000Y-60120800D03*
G04 #@! TD*
G04 #@! TO.C,D25*
X220751400Y-56820800D03*
X220751400Y-60120800D03*
G04 #@! TD*
G04 #@! TO.C,D24*
X201599800Y-56820800D03*
X201599800Y-60120800D03*
G04 #@! TD*
G04 #@! TO.C,D23*
X182575200Y-56820800D03*
X182575200Y-60120800D03*
G04 #@! TD*
G04 #@! TO.C,D22*
X163639500Y-56820800D03*
X163639500Y-60120800D03*
G04 #@! TD*
G04 #@! TO.C,D21*
X144424400Y-56820800D03*
X144424400Y-60120800D03*
G04 #@! TD*
G04 #@! TO.C,D20*
X125285500Y-56820800D03*
X125285500Y-60120800D03*
G04 #@! TD*
G04 #@! TO.C,D19*
X106324400Y-56820800D03*
X106324400Y-60120800D03*
G04 #@! TD*
G04 #@! TO.C,D18*
X87325200Y-56820800D03*
X87325200Y-60120800D03*
G04 #@! TD*
G04 #@! TO.C,D17*
X68287900Y-56820800D03*
X68287900Y-60120800D03*
G04 #@! TD*
G04 #@! TO.C,D16*
X43573700Y-56820800D03*
X43573700Y-60120800D03*
G04 #@! TD*
G04 #@! TO.C,D15*
X325462900Y-37745400D03*
X325462900Y-41045400D03*
G04 #@! TD*
G04 #@! TO.C,D14*
X296964100Y-37745400D03*
X296964100Y-41045400D03*
G04 #@! TD*
G04 #@! TO.C,D13*
X268287500Y-37745400D03*
X268287500Y-41045400D03*
G04 #@! TD*
G04 #@! TO.C,D12*
X249237500Y-37745400D03*
X249237500Y-41045400D03*
G04 #@! TD*
G04 #@! TO.C,D11*
X230136700Y-37732700D03*
X230136700Y-41032700D03*
G04 #@! TD*
G04 #@! TO.C,D10*
X211226400Y-37732700D03*
X211226400Y-41032700D03*
G04 #@! TD*
G04 #@! TO.C,D9*
X192189100Y-37732700D03*
X192189100Y-41032700D03*
G04 #@! TD*
G04 #@! TO.C,D8*
X173126400Y-37732700D03*
X173126400Y-41032700D03*
G04 #@! TD*
G04 #@! TO.C,D7*
X154101800Y-37732700D03*
X154101800Y-41032700D03*
G04 #@! TD*
G04 #@! TO.C,D6*
X134975600Y-37721000D03*
X134975600Y-41021000D03*
G04 #@! TD*
G04 #@! TO.C,D5*
X115925600Y-37745400D03*
X115925600Y-41045400D03*
G04 #@! TD*
G04 #@! TO.C,D4*
X96888300Y-37745400D03*
X96888300Y-41045400D03*
G04 #@! TD*
G04 #@! TO.C,D3*
X77800200Y-37745400D03*
X77800200Y-41045400D03*
G04 #@! TD*
G04 #@! TO.C,D2*
X58661300Y-37745400D03*
X58661300Y-41045400D03*
G04 #@! TD*
G04 #@! TO.C,D1*
X39608760Y-37745400D03*
X39608760Y-41045400D03*
G04 #@! TD*
M02*
