M48
; DRILL file {KiCad (5.1.9-0-10_14)} date Friday, July 16, 2021 at 05:28:08 PM
; FORMAT={-:-/ absolute / inch / decimal}
; #@! TF.CreationDate,2021-07-16T17:28:08+01:00
; #@! TF.GenerationSoftware,Kicad,Pcbnew,(5.1.9-0-10_14)
; #@! TF.FileFunction,Plated,1,2,PTH
FMAT,2
INCH
T1C0.0157
T2C0.0197
T3C0.0236
T4C0.0579
T5C0.0984
T6C0.0984
%
G90
G05
T1
X1.1762Y-4.1329
X1.2539Y-1.6476
X1.2539Y-2.1673
X1.4223Y-1.6158
X1.5964Y-1.7416
X1.5984Y-1.815
X1.6257Y-1.3457
X1.672Y-2.367
X1.7319Y-1.85
X1.7439Y-1.344
X1.7441Y-2.4646
X1.8075Y-3.118
X1.8228Y-2.4646
X1.8264Y-2.5176
X1.8648Y-2.427
X1.876Y-2.721
X1.8822Y-1.8501
X1.8948Y-1.1663
X1.8955Y-3.7925
X1.8955Y-4.6185
X1.9213Y-2.5591
X1.9213Y-2.6378
X1.9528Y-2.5984
X1.957Y-2.663
X2.0004Y-2.417
X2.0221Y-2.7864
X2.0312Y-1.8501
X2.0358Y-2.2097
X2.1358Y-1.9587
X2.1398Y-1.6476
X2.1814Y-2.4568
X2.2362Y-1.7008
X2.2831Y-2.8284
X2.288Y-2.517
X2.3801Y-1.616
X2.395Y-2.4715
X2.4385Y-3.118
X2.5455Y-1.616
X10.559Y-2.4065
X11.522Y-2.466
X12.0118Y-3.9449
X12.0118Y-4.2677
T2
X1.8944Y-4.281
X1.8944Y-4.4622
X1.9416Y-4.281
X1.9416Y-4.4622
X1.9888Y-4.281
X1.9888Y-4.4622
X3.3482Y-3.5338
X3.3482Y-3.715
X3.3954Y-3.5338
X3.3954Y-3.715
X3.4426Y-3.5338
X3.4426Y-3.715
X5.9744Y-2.782
X5.9744Y-2.9632
X6.0216Y-2.782
X6.0216Y-2.9632
X6.0688Y-2.782
X6.0688Y-2.9632
X7.2864Y-2.032
X7.2864Y-2.2132
X7.3336Y-2.032
X7.3336Y-2.2132
X7.3808Y-2.032
X7.3808Y-2.2132
X8.2904Y-4.2774
X8.2904Y-4.4586
X8.3376Y-4.2774
X8.3376Y-4.4586
X8.3848Y-4.2774
X8.3848Y-4.4586
X10.663Y-1.2836
X10.663Y-1.4648
X10.7102Y-1.2836
X10.7102Y-1.4648
X10.7574Y-1.2836
X10.7574Y-1.4648
X11.1936Y-2.0306
X11.1936Y-2.2118
X11.2408Y-2.0306
X11.2408Y-2.2118
X11.288Y-2.0306
X11.288Y-2.2118
X12.16Y-3.9064
X12.16Y-4.0875
X12.2072Y-3.9064
X12.2072Y-4.0875
X12.2545Y-3.9064
X12.2545Y-4.0875
T4
X1.1828Y-1.2726
X1.276Y-3.522
X1.277Y-4.272
X1.278Y-2.771
X1.37Y-4.272
X1.371Y-2.022
X1.4328Y-1.1726
X1.465Y-2.772
X1.526Y-3.422
X1.527Y-4.172
X1.528Y-2.671
X1.62Y-4.172
X1.621Y-1.922
X1.651Y-3.522
X1.715Y-2.672
X1.901Y-3.422
X1.933Y-1.272
X2.12Y-3.522
X2.183Y-1.172
X2.214Y-4.272
X2.309Y-2.022
X2.37Y-3.422
X2.464Y-4.172
X2.495Y-4.272
X2.496Y-2.772
X2.559Y-1.922
X2.683Y-1.272
X2.745Y-4.172
X2.746Y-2.672
X2.871Y-3.522
X2.933Y-1.172
X3.058Y-2.022
X3.121Y-3.422
X3.152Y-4.272
X3.246Y-2.772
X3.308Y-1.922
X3.402Y-4.172
X3.433Y-1.272
X3.496Y-2.672
X3.621Y-3.522
X3.683Y-1.172
X3.808Y-2.022
X3.871Y-3.422
X3.996Y-2.772
X4.058Y-1.922
X4.183Y-1.272
X4.246Y-2.672
X4.371Y-3.522
X4.433Y-1.172
X4.558Y-2.022
X4.621Y-3.422
X4.746Y-2.772
X4.808Y-1.922
X4.933Y-1.272
X4.996Y-2.672
X5.121Y-3.522
X5.183Y-1.172
X5.308Y-2.022
X5.371Y-3.422
X5.497Y-2.772
X5.558Y-1.922
X5.682Y-4.272
X5.683Y-1.272
X5.747Y-2.672
X5.871Y-3.522
X5.932Y-4.172
X5.933Y-1.172
X5.964Y-4.272
X6.058Y-2.022
X6.121Y-3.422
X6.214Y-4.172
X6.247Y-2.772
X6.308Y-1.922
X6.433Y-1.272
X6.497Y-2.672
X6.621Y-3.522
X6.683Y-1.172
X6.808Y-2.022
X6.871Y-3.422
X6.997Y-2.772
X7.058Y-1.922
X7.183Y-1.272
X7.247Y-2.672
X7.371Y-3.522
X7.433Y-1.172
X7.558Y-2.022
X7.621Y-3.422
X7.747Y-2.772
X7.808Y-1.922
X7.933Y-1.272
X7.997Y-2.672
X8.121Y-3.522
X8.183Y-1.172
X8.308Y-2.022
X8.371Y-3.422
X8.497Y-2.772
X8.558Y-1.922
X8.682Y-4.272
X8.683Y-1.272
X8.747Y-2.672
X8.87Y-4.272
X8.871Y-3.522
X8.932Y-4.172
X8.933Y-1.172
X9.059Y-2.022
X9.12Y-4.172
X9.121Y-3.422
X9.247Y-2.772
X9.309Y-1.922
X9.432Y-4.272
X9.433Y-1.272
X9.497Y-2.672
X9.621Y-3.522
X9.682Y-4.172
X9.683Y-1.172
X9.81Y-2.022
X9.871Y-3.422
X9.995Y-4.272
X9.997Y-2.772
X10.06Y-1.922
X10.182Y-4.272
X10.183Y-1.272
X10.245Y-4.172
X10.247Y-2.672
X10.432Y-4.172
X10.433Y-1.172
X10.559Y-2.022
X10.652Y-3.522
X10.747Y-2.772
X10.809Y-1.922
X10.902Y-3.422
X10.932Y-4.272
X10.997Y-2.672
X11.182Y-4.172
X11.216Y-2.772
X11.308Y-1.272
X11.466Y-2.672
X11.495Y-2.022
X11.558Y-1.172
X11.682Y-4.272
X11.683Y-3.522
X11.745Y-1.922
X11.84Y-2.347
X11.932Y-4.172
X11.933Y-3.422
X11.94Y-2.597
X12.4322Y-4.2722
X12.433Y-1.272
X12.433Y-2.022
X12.433Y-2.772
X12.433Y-3.522
X12.6822Y-4.1722
X12.683Y-1.172
X12.683Y-1.922
X12.683Y-2.672
X12.683Y-3.422
T6
X1.922Y-2.123
X2.454Y-1.376
T3
G00X1.5049Y-1.0689
M15
G01X1.5049Y-1.0925
M16
G05
G00X1.5049Y-1.2236
M15
G01X1.5049Y-1.267
M16
G05
G00X1.8451Y-1.0689
M15
G01X1.8451Y-1.0925
M16
G05
G00X1.8451Y-1.2236
M15
G01X1.8451Y-1.267
M16
G05
T5
G00X1.8923Y-4.3716
M15
G01X1.9909Y-4.3716
M16
G05
G00X3.3461Y-3.6244
M15
G01X3.4446Y-3.6244
M16
G05
G00X5.9723Y-2.8726
M15
G01X6.0709Y-2.8726
M16
G05
G00X7.2843Y-2.1226
M15
G01X7.3828Y-2.1226
M16
G05
G00X8.2883Y-4.368
M15
G01X8.3868Y-4.368
M16
G05
G00X10.6609Y-1.3742
M15
G01X10.7594Y-1.3742
M16
G05
G00X11.1915Y-2.1212
M15
G01X11.29Y-2.1212
M16
G05
G00X12.158Y-3.997
M15
G01X12.2565Y-3.997
M16
G05
T0
M30
